<?xml version="1.0" encoding="utf-8"?>
<!-- Generator: Adobe Illustrator 18.0.0, SVG Export Plug-In . SVG Version: 6.00 Build 0)  -->
<!DOCTYPE svg PUBLIC "-//W3C//DTD SVG 1.1//EN" "http://www.w3.org/Graphics/SVG/1.1/DTD/svg11.dtd">
<svg version="1.1" id="Layer_1" xmlns="http://www.w3.org/2000/svg" xmlns:xlink="http://www.w3.org/1999/xlink" x="0px" y="0px"
	 width="1920px" height="225px" viewBox="0 0 1920 225" enable-background="new 0 0 1920 225" xml:space="preserve">
<rect x="2" y="33.6" fill="#ECF9FF" width="1918" height="191.4"/>
<g>
	<path fill="#E8E4FF" d="M1743.1,117.4c-0.6,0.1-1.7,0.5,0.2,0C1743.3,117.4,1743.2,117.4,1743.1,117.4z"/>
	<path fill="#FFFFFF" d="M1920,0v33.4c-36.3,26.5-77.3,48.2-119.2,64.8c-14,5.5-28.3,10.5-42.7,14.9c-4.6,1.4-9.3,2.8-14,4
		c-0.2,0-0.3,0.1-0.4,0.1c-0.6,0.1-3.2,0.8-3,0.7c-2.5,0.5-5,1-7.4,1.5c-29,5.7-58.5,9.2-88,11.2c-62.5,4.1-125.1,0.5-187-9
		c-70.3-10.7-140.1-27.3-211.5-27.3c-171.7,0-272.5,54.7-409.3,75.5c-147.3,22.4-292-11.3-435.6-41.3
		c-70.2-14.6-140.8-28-212.4-33.4c-63.9-4.8-127.4-2.1-189.2,10L0,0H1920z M1743.1,117.4c0.1,0,0.1,0,0.2,0
		C1741.4,117.9,1742.5,117.5,1743.1,117.4z"/>
</g>
<g>
	<path fill="#E8E4FF" d="M1743.4,113.7c-0.6,0.1-1.7,0.5,0.2,0C1743.5,113.7,1743.4,113.7,1743.4,113.7z"/>
	<path fill="#E8E4FF" d="M1920,29.9c-36.3,26.5-77.1,48.1-119,64.7c-14,5.5-28.3,10.5-42.7,14.9c-4.6,1.4-9.3,2.8-14,4
		c-0.2,0-0.3,0.1-0.4,0.1c-0.6,0.1-3.2,0.8-3,0.7c-2.5,0.5-5,1-7.4,1.5c-29,5.7-58.5,9.2-88,11.2c-62.5,4.1-125.1,0.5-187-9
		c-70.3-10.8-140.1-26.9-211.5-27.3c-140.1-0.9-271,55.4-407.8,76.2c-147.3,22.4-293.5-12-437.2-42c-70.2-14.6-140.8-28-212.4-33.4
		c-63.9-4.8-127.4-2.1-190.2,10v4.6c15.4-1.8,31-3.1,46.5-3.8c37-1.6,74.2-0.2,111.1,3.3c72.4,6.8,143.7,21.3,214.7,36.2
		C444,157,516.4,172.7,589.9,181c71.5,8.1,143,7.9,214.1-3.7c138.2-22.6,272.6-80.1,414.5-73.4c73.9,3.5,145.9,21.9,219.1,30.9
		c59.4,7.3,119.6,8.7,179.2,3.1c66.7-6.2,133.5-20.8,197.1-41.6c36.4-11.9,72.7-27,106.1-45.7L1920,29.9L1920,29.9z M1743.4,113.7
		c0.1,0,0.1,0,0.2,0C1741.6,114.2,1742.8,113.9,1743.4,113.7z"/>
</g>
</svg>
