<?xml version="1.0" encoding="utf-8"?>
<!-- Generator: Adobe Illustrator 18.0.0, SVG Export Plug-In . SVG Version: 6.00 Build 0)  -->
<!DOCTYPE svg PUBLIC "-//W3C//DTD SVG 1.1//EN" "http://www.w3.org/Graphics/SVG/1.1/DTD/svg11.dtd">
<svg version="1.1" id="Layer_1" xmlns="http://www.w3.org/2000/svg" xmlns:xlink="http://www.w3.org/1999/xlink" x="0px" y="0px"
	 width="1920px" height="200px" viewBox="0 0 1920 200" enable-background="new 0 0 1920 200" xml:space="preserve">
<path fill="#FFFFFF" d="M0,103h368.6L586,147.1l167.8-19.2L954.6,88l142.3,1.5l262.2,32.4l271.2-1.5l195.4-41.8l92.2-52.5V200H0
	C0,200,0,101,0,103z"/>
<g>
	<defs>
		<path id="SVGID_1_" d="M0,80.6c88.7-30,183.5-49.7,299.4-25.2c117.6,24.8,229.2,85.2,350.1,77.1c113.4-7.6,208-38.3,320.8-48.4
			c131.3-11.7,253.8,16,385.5,25.9C1664.4,133.4,1845,60.7,1920,0.4v48.3c-104.1,61.3-224.6,123-594,86.3
			c-159.1-15.8-234.7-50.9-366-39.1c-112.8,10.1-216.2,44.5-326.6,68.3c-140.5,30.3-232.4-10.5-361.2-32.6
			C118.3,105.1,62,140.7,0,176.2L0,80.6z"/>
	</defs>
	<clipPath id="SVGID_2_">
		<use xlink:href="#SVGID_1_"  overflow="visible"/>
	</clipPath>
	<path opacity="0.8" clip-path="url(#SVGID_2_)" fill-rule="evenodd" clip-rule="evenodd" fill="#229B8F" d="M684.1-20.6
		C826.8-47.1,915.4,94.1,826.4,141.3C739.4,187.6,540.6,6.1,684.1-20.6z"/>
	<path opacity="0.85" clip-path="url(#SVGID_2_)" fill-rule="evenodd" clip-rule="evenodd" fill="#F7BE2C" d="M1129.9-19.3
		c-5,1.8-17.2-1.2-20,4c-7.8,14.7,34.5,13,42.6,27.5c8,14.4-33.8,25.2-23,36.6c2.2,2.3,11.3,2.4,11.2,6.1c-0.1,5.4-13.4,1.5-21,6.8
		c-5.8,4.1,11.1,2.7,4,10c-16.1,16.6-65,7.5-64.5,27.5c0.1,4.9,10.7,12.9,1.1,16c-8.6,2.8-14.2-7.5-19-10.1
		c-18.4-10.1-18.9,11.7-43,10.7c-20.2-0.8-23.7-3.8-36-6.5c-16.5-3.6-24-13.3-38.4-11.3c-5.5,0.8-5.6,6.3-13.5,6
		c-10.8-0.3,6.3-10.9-2.1-13.9c-9.7-3.4-28.1,2.1-30.5-6.2c-0.8-2.6,3.2-9.8,1.9-13.3c-3.5-10-25.6,1-44-7.6
		c-19.6-9.1-48.1-11.6-47.2-24.4c0.4-5.1,2-14.1-10-19.4C758.3,10.4,767.2-8,778.8-18c9.5-8.2,5.4-20.8,18.7-27.5
		c12.7-6.4,30.9-5.3,48.1-12c12.8-5,18.6,9.3,46.3,2.7c12.6-3,23.2,10.4,39.1,6.7c18.5-6.6-23.7-30.1-3.3-29.6
		c21.1,0.5,18.1,31.3,36.4,27c6.5-1.6,7-6.8,13.3-9.2c6.9-2.6,11.6,6.6,17.5,4c14.2-6.2-1.1-26.8,20.5-27.7
		c10.3-0.4,6,8.3,18.1,12.3c15.5,5.2,9.7,33.6,29.7,23.9c6.8-3.3,5.7-19.8,19-16.2c12.5,3.4-7.9,18-6.3,24.8
		c6.6,14.6,25.8,7,49.8,8.2C1134.4-30.3,1139.2-22.7,1129.9-19.3z M1071.9,25.5c-13.6,0-14.9,6.5-14.2,11.1
		c0.7,4.9,13.5,5.4,20.7,4.6C1090.7,39.8,1083.6,25.6,1071.9,25.5z"/>
	<path opacity="0.8" clip-path="url(#SVGID_2_)" fill-rule="evenodd" clip-rule="evenodd" fill="#762267" d="M702.3,47.3
		c-11.4-2.2-13.3-5.7-24.7-8.8c-10.3-2.8-24.6,7.9-17.3,14.9c3.8,3.7,18.9,4.9,13.5,8.7c-3.5,2.5-12.7-1.2-18.4,0.3
		c-29.5,7.9,25.9,17.3,25.3,27.7c-0.1,2-12.7,5.9-23.5,2.2c-15.4-5.3-8.3-13.4-22.3-16.6c-17.3-4-17.3,15.4-10.8,28.8
		c5.5,11.4,9.4,8.9,11.8,20.2c1.1,4.9-2.4,8.9-4.9,9.5c-12.4,2.7-8.5-19.5-22.3-26.7c-8-0.5-10.9,3.3-17.5,4
		c-7.2-0.1-3.6-4.6-10.7-4.8c-3.2,0.7-3,3.5-2.1,6.4c1.6,5.1,10.5,14.6-3.2,17c-26,4.5-56.3-36.3-60.2-14.2
		c-0.4,2.2-2.7,5.1-6.3,5.6c-12.3,1.6-7.4-10.6-16.4-12.6c-27.8-6.1-61.1-5.1-71.1-15.9c-6.9-7.4-13.1-20.9-43.2-27.9
		c-7.4-1.7,8.9-11.7,4.4-13.9c-18.5-9.1-10-23.7-25.2-36.3C337.4-1.5,399,5.5,393.7-11c-1.5-4.7-13.9-8.1-10.1-13.1
		c3.5-4.7,9.2,0.1,20.4-0.1c12.2-0.3,21.7-0.9,22.4-9.1c0.3-3.8-10-13.8-1.8-17.4c9.6-4.2,34.6,5.5,33.3-2.3
		c-0.9-5.5,1.1-11.5,6.3-13.7c9.7,1.5,11.2,14.9,17.5,9.1c4.3-4-8.3-10.2,2.4-13.7c8.4-2.8,13,4.6,21.2,4.4
		c16.8-0.3,11.9,6.3,26.5,5.2c18.2-1.3,36.4-4.1,48.3,1.8c5.6,2.7,2.3,9.2,10.8,10.8c6.8-1,14.8-5,19.5-3.8c7.6,1.9-3.4,6.2,4.1,6.4
		c9.4,0.3,7.9-18.3,21.4-22.8c15.9-5.3,23.5-3.7,37.5-1.2c12.9,2.4,10.7-6.8,17.2-4.7c11.7,3.6,15.8,2.8,27.9,1.9
		c6.9-0.5,1.2,7.6,7.3,9.2c7.1,1.7,18.2-3.1,22.1-0.1c2.4,1.9-7.4,1.6-11,3.7c-4.5,2.6,10.7,4.2,18.9,4.5
		c12.2,0.4,32.4,9.9,23.5,16.1c-1.6,1.1-9.6,2.1-9.3,3.5c0.4,2.2,9.1,1.7,11.1,3.6c1.5,3.9-7.7,4.3-2.5,8.1c3.6,2.7,10.8,1,8.7,4.6
		c-2.7,2.1-9.3,0.9-9.7,4.9c0.5,4.6,26.5,10.8,18.7,14.9c-5,2.6-13-4.6-16.1-4.1c-14.8,2.6,6.3,12.6-0.7,15.7
		c-8.6,3.8,6.5,5.4-12.6,9C749.5,23.7,739.1,54.5,702.3,47.3z M575.6,115.8c-4.2-2.7-9.9,9.7-2.2,6.9
		C578.6,120.9,579.7,118.5,575.6,115.8z M616.2,44.9c4.6-6.6-13.1-9.3-16.6-5.4C595,44.5,610.2,51.1,616.2,44.9z"/>
	<path opacity="0.8" clip-path="url(#SVGID_2_)" fill-rule="evenodd" clip-rule="evenodd" fill="#086E75" d="M-356.1,157.3
		c2.9-3.6-5-4.6-5.4-8.2c-0.1-1,2.9-0.9,5.8-2.3c3.8-1.9-2.2-5.2-2.1-8.3c0.4-14.8-26.2-3.6-29.8-12.9c-2.7-6.9,18.2-9.2,25.9-14.9
		c11-8-6-19.5-10.6-30.1c-3.3-7.6-1.1-18.1,5.3-24.4c5.1-5.1,16.1-6.9,22.3-15.5c1.1-3.4-5.8-3.1-3.8-6.6c2.1-3.7,13.9-1.7,14.8-7.8
		c2-13,1.9-23,22.8-27.9c6.5-1.5,13.2,3,19,0.8c4.3-1.7,6.9-6.2,12.6-6.5c11,2.9,7.8,10.2,17.5,13.3c10.2-0.6,6-14.3,17.9-18.5
		c9.8-3.5,20.3,6,29.1,0.8c4.5-2.7,0.8-4.5,3.8-7.9c12-13.5,27.9,2.5,6.3,12.1c-3.6,1.6,2.6,6.6,5.1,8.8
		c11.7,9.9,19.6,5.6,30.6,12.1c1.9,1.1,8.7-2.2,11.7-1.1c4.4,1.5,1.8,11,4.7,11.4c11.2,1.6,7.2,4.7,11.3,9.5c3.2,3.6,6-3.8,10.9-5.9
		c11.5-4.9,16.3,13.5,9,13.2c-5.7-0.2-11.7-2.6-11.4,1c1.5,17.4,31.7,9.9,33.5,24c1,7.9-26.7,30.9-20.4,36.6
		c7.5,6.8,20.6,8.5,13.1,14.9c-5.1,4.4-19-0.8-18.4,1.9c1.2,4.9,29.7,3.1,25.8,10c-2.9,5.3-18.3-4.2-25.4-1.4
		c-2.8,0.8-2.6,3.7-0.2,4.1c11.2,2.1,16.1,8,6.6,9.1c-28.2,3.4-13.3,2.5-12.8,12.7c0.1,2.8-5.7,4.4-9,3.9c-3.7-0.6-4.7-1.8-9.1-2.4
		c-10-1.3-7.1,2.4,0.2,5.6c3.4,1.5,19.3-1.3,21.4,2.2c3.3,5.6-12.3,5-13.8,10.6c-1.3,4.6-4,1.1-8.7,1.8c-4.1,0.6,3,3-1.3,4.1
		c-1.1,0.3-1.9,0.4-3.3,0.5c-5.1,0.6-0.2-6.1-4-6.4c-6.9-0.5-8.3,8.2-13.7,5.6c-2.5-1.2,3-5.3,0.6-8.6c-2.7-3.6-15-4.9-9.3,5.2
		c0.8,1.4,2.4,7.1-1.6,8c-6.6,1.4-16.3-3.2-19.1-7.2c-4.8-6.9-19.1,3.4-29.6,2c-5.6-0.8-9.9-4.1-14.8-5.2
		c-5.9-1.3-11.8-2.2-19.4-3.3c-5.9-0.9-7.3-4.4-13.1,0c-2.1,1.6,2.9,6-1.3,7.4c-9.3,3.1-21.8,6.1-29.3-2.6c-6.3-7.3-2.7-10.9,3-15.4
		c7.4-5.9,1-7.8-5.8-2.9c-3.1,2.2,1.3,3.5-3.8,7.7c-3.2,2.6-7.4-3.1-11.3-1.7c-6.5,2.4,4.7,12.6-3.5,14.7
		c-6.4,1.6-2.3,8.8-13.1,11.3C-357.7,191.4-358.7,160.4-356.1,157.3z"/>
	<path opacity="0.8" clip-path="url(#SVGID_2_)" fill-rule="evenodd" clip-rule="evenodd" fill="#403E96" d="M1465.5,46.6
		c2.3-2.9,22-9.8,35.5-12.9c59.2-13.5,34.6-48.6,103.5-31c20.6,5.3,50.7-5,66.3,0.1c18.2,6,17.7,26.7,39.4,30.1
		c64.8,10.2,48.3,81.2,22.3,112.4c-44.3,53-167.6,56.2-236,20.3c-35.1-18.5-59.8-48.2-38.3-87.5
		C1465.3,65.3,1461.5,51.8,1465.5,46.6z"/>
	<path opacity="0.8" clip-path="url(#SVGID_2_)" fill-rule="evenodd" clip-rule="evenodd" fill="#76BE4F" d="M2111.6-1.6
		c-7.6,4.5-1.1,8.3-9.9,8.8c-7.2,0.4-2.6-0.4-9.4-1c-29-2.5-70.4,23.6-95.1,28.1c-7.3,1.3-13.8-2.4-18.4-4.7
		c-18.6-8.9,24.7-26,19.2-41.9c-2.3-6.8,0.6-16.9,5.2-22.7c-1.1-0.6-2.1-1.3-3-2c0,0,0,0,0,0c-22.7,12.7-21.4,40-47.1,44.8
		c-15.6,2.9-27.7-3.9-42.5-14.5c-12.1-8.6,4.7-26.6,7.5-38.2c4.7-19.3,32.3-55.7,1.1-60.7c-6.7-1.1-9.7,5-12.2,13.5
		c-6.9,24.3,15.4,64.4-20.3,79.9c-22.4,9.7-47.9-0.5-65.1-6c-4.4-1.4-28.2-4.6-29,3.3c-0.7,6.6,5,7,5.6,12.8
		c1.2,10.4-11.8,6.3-26.5,12.8c-16.2,7.1-48.7-25.5-52.3-12.7c-2.4,8.5,34.4,13,29,20.3c-6.2,8.4-28.4-1.4-46.1-5.9
		c-33.1-8.4-77.8-26.7-103.4-10.8c-7.2,4.5-16,6.5-10.9,9.8c5.3,3.4,12.5,3,20.9,4.2c4.5,0.6,7.7,0.2,12.8-0.5
		c24.9-3.1,53.3-7.9,66.2,4.2c2.8,2.6-13,3.2-7.1,5.6c13.7,5.7,77.5,7.4,63,21.4c-11,10.6-35.8-8.7-61.8-6.7c-7,0.5-25.8-3-20.1,1.8
		c6,5.1,20.9,1.4,20.5,6.9c-0.2,2.9-12.8,2.6-6.2,4.6c15,4.5,69.2,4.9,51.4,13.8c-13.1,6.5-44.2-8.1-44.7,1.7
		c-0.4,7.5,37.8-2,34.8,7c-2.6,8-25.8,16.2-34.1,10.9c-1.6,4.3-5.7,8.1-11.3,10.9c25.5-1.9,47.8-18.2,68.8-6.7
		c9.2,5.1-0.6,10.6-1.8,24.9c-0.5,6.8,10.2,13.5,5.3,19.2c-11.2,13.3-31.6,20.6-50,32.2c-6,3.8-33.2,2.6-28.8,12.2
		c3.4,7.5,23.1-3.5,29.6-6.2c23.5-9.6,35.3-32.7,60.6-27.9c15.5,2.9,21.8,14.1,20.2,28.4c-1.7,14.8-22.1,42.3-34.1,57.9
		c3.8,1.1,7.2,3,9.9,5.3c9.4-19.3,16.2-38.9,34.6-54.7c6.4-5.5,30.3,2,35.8,1.5c7.5-0.6,7.4-9.8,12.4-9.2c7.4,1,5.2,3.8,11.1,5.9
		c7,2.5,13.2-7.7,20.8-7.2c19.4,1.4,28,1.4,38.8,4.4c2.2,0.6,16,3.9,19.3,1.6c4.4-3.1-3.5-9.7,9.7-12.3c30.5-5.9,41.8-14,66.1-26
		c4.6-2.3,21,12,21.5,8.7c0.7-4.6,5.5-0.1,5.2-3.6c-0.3-4.7-26.2-7.9-26.6-12.2c-0.4-4.9,9.2-3.4,9-7.7
		c-0.8-15.6,25.7-17.9,26.2-29.1c0.5-12-10.3-12.9-15.3-21.9c-6.7-12.1-21.8-14.5-21.3-24.3c1.1-23.1,46.4-32,73.9-29.6
		c9.1,0.8,9.1,1.3,14.3,0.1c46.2-10.8,105.8-10.3,103-39.1c-0.1-1.4,0.4-1.4-1.1-3.3C2175.5-37.5,2131.9-13.6,2111.6-1.6z"/>
	<path opacity="0.95" clip-path="url(#SVGID_2_)" fill-rule="evenodd" clip-rule="evenodd" fill="#EE5822" d="M713.7,20.2
		c2.1-2.6,20.1-9,32.3-11.8c53.9-12.3,31.5-44.3,94.3-28.2c18.7,4.8,44,4.3,58.2,8.9c16.6,5.4,18.3,15.4,38.2,18.6
		c59.1,9.3,44,74,20.3,102.4c-40.3,48.2-152.6,51.2-215,18.5c-32-16.8-54.5-43.9-34.9-79.7C713.6,37.2,710.1,24.9,713.7,20.2z"/>
	<path opacity="0.95" clip-path="url(#SVGID_2_)" fill-rule="evenodd" clip-rule="evenodd" fill="#F1D719" d="M821.4-51.3
		c11.8,12.2,46.9-8.2,35.3-17.3C844-78.5,815.8-57.1,821.4-51.3z"/>
	<path opacity="0.95" clip-path="url(#SVGID_2_)" fill-rule="evenodd" clip-rule="evenodd" fill="#F1D719" d="M918.8-80.5
		c-1.9,3.6-0.1,8.9,7,11.7c9.6,3.8,19.7-3.9,18.7-9.2C942.8-85.9,922.9-88.2,918.8-80.5z"/>
	<path opacity="0.95" clip-path="url(#SVGID_2_)" fill-rule="evenodd" clip-rule="evenodd" fill="#F1D719" d="M856.9-30.8
		c-22.3,7.9,1.6,11.5,15,9.8C885-22.6,871.9-36.1,856.9-30.8z"/>
	<path opacity="0.95" clip-path="url(#SVGID_2_)" fill-rule="evenodd" clip-rule="evenodd" fill="#F1D719" d="M1101.5-34.7
		c16.1,7.4,33.6-7.8,25.1-14.4C1114-58.9,1079.3-44.9,1101.5-34.7z"/>
	<path opacity="0.95" clip-path="url(#SVGID_2_)" fill-rule="evenodd" clip-rule="evenodd" fill="#F1D719" d="M1283.1,24.6
		c5.9,3.9,29.8-3.1,26.6-8.7C1307.1,11.4,1277.8,21.2,1283.1,24.6z"/>
	<path opacity="0.95" clip-path="url(#SVGID_2_)" fill-rule="evenodd" clip-rule="evenodd" fill="#F1D719" d="M1275.9,38.9
		c-31.3,32.9,18.4,4.5,20-1.2C1298,30,1280,34.6,1275.9,38.9z"/>
	<path opacity="0.95" clip-path="url(#SVGID_2_)" fill-rule="evenodd" clip-rule="evenodd" fill="#F1D719" d="M1533.4,112.9
		c5.1-7.3-7.2-10.9-14.6-9.7C1498.6,106.7,1524.1,126.4,1533.4,112.9z"/>
	<path opacity="0.95" clip-path="url(#SVGID_2_)" fill-rule="evenodd" clip-rule="evenodd" fill="#F1D719" d="M892.1-86
		c11.3,1.7,9.9-4.8,4.9-8.4C883.3-104.1,871.3-89.1,892.1-86z"/>
	<path opacity="0.95" clip-path="url(#SVGID_2_)" fill-rule="evenodd" clip-rule="evenodd" fill="#F1D719" d="M1514.3,28.8
		c16.3,0,17.5-19.4,2.1-22.1C1498.3,3.5,1498,28.7,1514.3,28.8z"/>
	<path opacity="0.95" clip-path="url(#SVGID_2_)" fill-rule="evenodd" clip-rule="evenodd" fill="#F3BD25" d="M1219.7-108.5
		c-12.5,1-17,3.4-19.5,15.3c-1.6,7.2,8.4,12.1,17.3,12.1c13.4,0,28-6.1,19.9-12.1c-4.9-3.6-14,2.3-14.5-1
		C1222.5-97,1237.8-109.8,1219.7-108.5z"/>
	<path opacity="0.95" clip-path="url(#SVGID_2_)" fill-rule="evenodd" clip-rule="evenodd" fill="#F3BD25" d="M1039.7-13.6
		c-8.3,4.3,24.8,14.3,34.1,11C1083.6-6,1048.4-18,1039.7-13.6z"/>
	<path opacity="0.95" clip-path="url(#SVGID_2_)" fill-rule="evenodd" clip-rule="evenodd" fill="#F3BD25" d="M1465.9-17.1
		c7.5,9.7,33.3-3,25.9-8C1484.5-30.1,1459.8-25.1,1465.9-17.1z"/>
	<path opacity="0.95" clip-path="url(#SVGID_2_)" fill-rule="evenodd" clip-rule="evenodd" fill="#F3BD25" d="M1101.5-107.9
		c-21.8,1.2-11.9,33.3,12.9,29.2C1133.1-81.8,1115.1-108.6,1101.5-107.9z"/>
	<path opacity="0.95" clip-path="url(#SVGID_2_)" fill-rule="evenodd" clip-rule="evenodd" fill="#E42526" d="M290,58
		c-0.4-1.6-0.9-2.7-2-4.3c-3.1-4.3-15.9,4.7-14.4,8.2C276,67.2,291.7,64.9,290,58z"/>
	<path opacity="0.95" clip-path="url(#SVGID_2_)" fill-rule="evenodd" clip-rule="evenodd" fill="#E42526" d="M197.6,26.6
		c5-2.3,6.7-6.6,10.5-9.1c3.8-2.5,6.7,4.4,9.7,6.1c8.6,5.2,6.1-23.9-0.1-27.1C207.1-8.9,181.1,34.4,197.6,26.6z"/>
	<path opacity="0.95" clip-path="url(#SVGID_2_)" fill-rule="evenodd" clip-rule="evenodd" fill="#E42526" d="M255.5,11.2
		c2.9-1.2,4.9-4.7,4.1-6.8C258,0.3,248.2,3,248.3,7.6C248.4,9.6,251.7,12.8,255.5,11.2z"/>
	<path opacity="0.95" clip-path="url(#SVGID_2_)" fill-rule="evenodd" clip-rule="evenodd" fill="#E42526" d="M203.4-10.7
		c17-8.8-1.8-23.4-13.2-16.6C174.7-18.1,192.3-5,203.4-10.7z"/>
	<path opacity="0.95" clip-path="url(#SVGID_2_)" fill-rule="evenodd" clip-rule="evenodd" fill="#E42526" d="M731.9,73.2
		c0.3-2.9,0.3-6.2-2-8.2C705.4,44,729.4,102,731.9,73.2z"/>
	<path opacity="0.95" clip-path="url(#SVGID_2_)" fill-rule="evenodd" clip-rule="evenodd" fill="#E42526" d="M793.2,74.1
		c11-5.3,16.2-21.7,5.2-23.9C777.4,46,761.7,89.4,793.2,74.1z"/>
	<path opacity="0.95" clip-path="url(#SVGID_2_)" fill-rule="evenodd" clip-rule="evenodd" fill="#E42526" d="M292-47.7
		c3.9,4.3,8.6,1.5,12.3-1c3-1.9,1.6-5.5,0-7.7C299-63.7,287.7-52.4,292-47.7z"/>
	<path opacity="0.95" clip-path="url(#SVGID_2_)" fill-rule="evenodd" clip-rule="evenodd" fill="#E42526" d="M275.4-90.4
		c7.9-8.2-0.4-16-11.2-16.2C239.5-106.9,260.7-75.3,275.4-90.4z"/>
	<path opacity="0.95" clip-path="url(#SVGID_2_)" fill-rule="evenodd" clip-rule="evenodd" fill="#E42526" d="M362.6-55.8
		c15-10.3-11.1-30.5-24.4-21.2C323.5-66.9,348.7-46.3,362.6-55.8z"/>
	<path opacity="0.95" clip-path="url(#SVGID_2_)" fill-rule="evenodd" clip-rule="evenodd" fill="#E42526" d="M227.5-111.3
		c3.6,3.2,9.8-1.9,10.3-5.3c0.3-2.5-4-5.9-9.2-4.1C221.2-118.2,225.2-113.3,227.5-111.3z"/>
	<path opacity="0.95" clip-path="url(#SVGID_2_)" fill-rule="evenodd" clip-rule="evenodd" fill="#E42526" d="M639.4-43.3
		c5.5-1,11.8-5.1,13.4-10.4C659.1-75.5,605.3-37.2,639.4-43.3z"/>
	<path opacity="0.95" clip-path="url(#SVGID_2_)" fill-rule="evenodd" clip-rule="evenodd" fill="#E42526" d="M450.5-112.9
		c9.7-9.2,1.9-20.5-12.2-18.3c-3.8,0.6-7.1,3.2-10.2,5.3C415.6-117.4,440.6-103.6,450.5-112.9z"/>
	<path opacity="0.95" clip-path="url(#SVGID_2_)" fill-rule="evenodd" clip-rule="evenodd" fill="#E42526" d="M692.7-57.8
		c14.3-11.2-8.6-18.3-15.3-9.4C672.3-60.5,684.6-51.4,692.7-57.8z"/>
	<path opacity="0.95" clip-path="url(#SVGID_2_)" fill-rule="evenodd" clip-rule="evenodd" fill="#E42526" d="M288.4-114
		c8-2.3,7.7-11.9,1.1-13.3C281.5-128.9,276.8-110.6,288.4-114z"/>
	<path opacity="0.95" clip-path="url(#SVGID_2_)" fill-rule="evenodd" clip-rule="evenodd" fill="#9C1F63" d="M593.6-70.3
		c4.1,3.8,8.2,3.2,13.3,1.2c8.5-3.4,5-14.5-6.1-13C596.4-81.6,591.1-72.7,593.6-70.3z"/>
	<path opacity="0.95" clip-path="url(#SVGID_2_)" fill-rule="evenodd" clip-rule="evenodd" fill="#E42526" d="M711.1-115.2
		c10.1,8.5,21.9,3.2,26.6-5.3C751.1-144.8,690.5-132.5,711.1-115.2z"/>
	<path opacity="0.95" clip-path="url(#SVGID_2_)" fill-rule="evenodd" clip-rule="evenodd" fill="#E42526" d="M559-105.8
		c1.9,6.3,12.3-10.7,4.1-6.8C560.4-111.3,558.4-108,559-105.8z"/>
	<path opacity="0.95" clip-path="url(#SVGID_2_)" fill-rule="evenodd" clip-rule="evenodd" fill="#E42526" d="M800.8-100.1
		c-4.1-14.6-34.3-2.5-36.9,6.8C760-79.4,806.3-80.2,800.8-100.1z"/>
	<path opacity="0.95" clip-path="url(#SVGID_2_)" fill-rule="evenodd" clip-rule="evenodd" fill="#E42526" d="M539.4,97.4
		c7.4-0.2,7.1,13-2.1,11.1C537.4,105.1,534.3,102.9,539.4,97.4z"/>
	<path opacity="0.95" clip-path="url(#SVGID_2_)" fill-rule="evenodd" clip-rule="evenodd" fill="#E42526" d="M668.4,85.3
		c28.2-16.5-11-45.1-34.1-31.2C606.9,70.5,648.2,97.2,668.4,85.3z"/>
	<g opacity="0.8" clip-path="url(#SVGID_2_)">
		<path fill="#9B1F60" d="M1579.8,54.4c1.8-1.1,3.4-2.3,4.8-3.7c20.1-20.5-2.3-49.9-38.5-57.6c-10.4-2.2-24.6,1.4-32-4.3
			c-2.8-2.1-0.9-7.6-1.8-10.3c-0.9-2.8-14.8-17.7-19.2-19.9c-30.5-15.2-97.3-18.7-115.5,4.2c-6.1,7.6-5.9,7.5-12.1,16.2
			c-0.5,0.7-2.1,5.9-2.1,11.3c-40.4-4.4-82,8.2-62.1,32c2.3,2.7,12.5,4.8,9.2,7.3c-2.7,2.1-7.2-0.7-9.5,0.6c-3.2,1.9-0.2,3.8-3,7.1
			c-3.8,4.6-13.5,3.9-23.3,6.8c-61.5,18.5-4.4,81.4,62.9,87c19.4,1.6,37.7,0.3,50.1-2.4c3.6-0.8,0.7-2.3,6-3.8
			c12.2-3.4,16.2-1.8,21.6-8.5c1.2-1.4,3.3-8.4,9.8-7.1c17.7,3.5,8.8,22.3,20.7,29.3c23.8,12.2,70.3,8.3,83.9-5
			c4.4-4.2,13.5-6.2,17.7-9c15.4-10.3-1.7-26.1-7.5-32c-1.9-1.9-11.9-3-13.4-7.8c-1.6-5.1,8.7-9.8,12.1-16.2
			c1.7-3.3,14.5,1.2,18.7-1.2c3.5-2,10.6-5.8,11.7-3.2c4.5,10.5,25.9,16.5,32.1,2.1C1603.4,60.6,1596.3,54.6,1579.8,54.4z"/>
	</g>
	<g opacity="0.8" clip-path="url(#SVGID_2_)">
		<path fill-rule="evenodd" clip-rule="evenodd" fill="#0473B8" d="M1980.6-57.4c-2.1,1.8-4.2,3.7-6.3,5.6
			c-12.2,10.9-34.9,18.5-23.5,28.9c1.7,1.5,3.2,3.2,5.5,3.1c7.1-0.3,14.7-7.6,24.6-10.9c15.1-5,27.2-14.7,36.8-26.1L1980.6-57.4z"/>
		<path fill-rule="evenodd" clip-rule="evenodd" fill="#0473B8" d="M1816.3,448.2c-4.8,4-1.5-3-8.4-7.2c-6.5-4,3.4-13.8,1-20.5
			c-0.6-1.7-2.3,2.5-3.9,1c-7.3-6.9-4.5-17.3,3.6-21.2c2.8-1.4,0.4,3.6,0.3,4.7C1808.2,421.8,1825.7,440.4,1816.3,448.2z"/>
		<path fill-rule="evenodd" clip-rule="evenodd" fill="#0473B8" d="M2112.9,369.8c-12.3,3.8-40.7-11.8-29.8-22.4
			c3.6-3.5,3.8-6.3,2.7-9.1c-6-14.9-32-15.7-41.9-30.2c-2.6-3.8-0.8-5.7-2.7-11.3c-0.8-2.5,2.8-1.6,2.7-3.4
			c-0.1-3.8-8.3-7.7-2.7-10.2c8.5-3.9,11,11.5,16.2,18c18,22,66.4,26.8,66.3,57.2C2123.7,363.7,2118.6,368,2112.9,369.8z"/>
		<path fill-rule="evenodd" clip-rule="evenodd" fill="#0473B8" d="M1728.5,354c-3.7,3.3-5.2-9.6-0.5-15.5
			C1733.8,331.1,1733,350.1,1728.5,354z"/>
		<path fill-rule="evenodd" clip-rule="evenodd" fill="#0473B8" d="M1739,296.7c-5.6,3.5-5.5-7.2,0-10.2
			C1743.3,284.2,1742.8,294.3,1739,296.7z"/>
		<path fill-rule="evenodd" clip-rule="evenodd" fill="#0473B8" d="M1743,285.3c-0.6,0.5-2.1,0.6-2.7,0c-0.6-0.5-0.6-1.7,0-2.3
			c0.6-0.5,2.1-0.6,2.7,0C1743.7,283.6,1743.7,284.8,1743,285.3z"/>
		<path fill-rule="evenodd" clip-rule="evenodd" fill="#0473B8" d="M1914.6,314.7c-2.1,1.8-6.7,1.6-9,0.1
			c-7.6-5.1,8.9-12.2,13.5-7.7C1921.5,309.5,1917.8,312,1914.6,314.7z"/>
		<path fill-rule="evenodd" clip-rule="evenodd" fill="#0473B8" d="M1785.8,170.9c2.8,1.8-4.9,4.6-7.2,3.1
			C1775.7,172.3,1783.4,169.4,1785.8,170.9z"/>
		<path fill-rule="evenodd" clip-rule="evenodd" fill="#0473B8" d="M1719.6,61.8c-2.8,1.5-19.4-3-19.4-3s-34.3-14.3-26.9-33.2
			c4.9-12.5,2-31,27.9-31.9c19.1-0.6,46.6-11.6,57.1,6.1c18.1,30.5,37.1,44.4,0.8,55.2C1757.9,55.5,1723,60,1719.6,61.8z"/>
		<path fill-rule="evenodd" clip-rule="evenodd" fill="#0473B8" d="M2006,48.3c-2.5-4.1-2.6-12.1,1.4-17.1
			c11.9-14.8,48.3-27.6,58.2-14.3c8.9,12-21.2,20.8-36.5,28.8C2021.5,49.7,2009.1,53.5,2006,48.3z"/>
		<path fill-rule="evenodd" clip-rule="evenodd" fill="#0473B8" d="M2013.6,60.2c7.8,0.9,7.7,5.1,10.1,10c3.3,6.9,3.1,16.8-4.7,19.8
			c-13.4,5.1-27.5-4.2-26.1-14.9C1993.8,66.9,2001,61,2013.6,60.2z"/>
		<path fill-rule="evenodd" clip-rule="evenodd" fill="#0473B8" d="M2088.4,2.5c-0.4-1.6,2.9-11.2,4.2-12.4
			c4.9-4.4,8.7-10.4,15.5-12.5c10.7-3.3,38.8,13.7,26.9,30.3c-16.3,10.5-26.6-1-35.7-3.1C2097,4.3,2088.6,3.3,2088.4,2.5z"/>
		<path fill-rule="evenodd" clip-rule="evenodd" fill="#0473B8" d="M1805.8,389.4c-3.3,8.5,0.7-6.3-1.6-13.5c-2.9-8.9,11,9,7.7,11.8
			C1809.4,389.8,1807,386.3,1805.8,389.4z"/>
		<path fill-rule="evenodd" clip-rule="evenodd" fill="#0473B8" d="M1713.2,384.5c15.8,5.1,4.8,44.8-13.6,46.7
			c-15,1.6,0.1-22.4,4.1-34.1C1706.6,388.8,1702.1,380.9,1713.2,384.5z"/>
		<path fill-rule="evenodd" clip-rule="evenodd" fill="#0473B8" d="M1816.2,325.1c-2.6-2.6-2.9-9.1-3.8-11.3
			c-2.4-5.6-12.4-18.5-5.8-23.4c18.2-13.4,13.4,10,16.3,17.2c0.3,0.9,5.3,8.3,5.6,11.4c0.3,2.5-2.1,8-4.6,9.2
			C1822,329,1817.5,326.4,1816.2,325.1z"/>
		<path fill-rule="evenodd" clip-rule="evenodd" fill="#0473B8" d="M1752.5,290c7.5,6.1-1.7,19.1-6.8,26.2
			c-4.9,6.8-1.2,15.9-10.8,16c-7.6,0.1,3.5-13.8,5.1-18.2c2-5.4,1-17.7,7.1-21.7C1748.8,291.2,1749.6,287.7,1752.5,290z"/>
		<path fill-rule="evenodd" clip-rule="evenodd" fill="#0473B8" d="M1755.2,284.1c-5.1,1.9,2.6-9.1-2.7-9.1c-1.9,0-0.9,1.7-4.1,3.5
			c-5.6,3-0.6-6.1,2.7-9.1c9.1-8.2,9.3-24.4,17.6-22.9C1776.7,247.8,1768.2,279.1,1755.2,284.1z"/>
		<path fill="#0473B8" d="M1761.2,163c0.7,1.4,2.7,1.2,4,1.1c3.4-0.5,2.2-2.1,0-4.5C1763,157.1,1760.5,161.5,1761.2,163z"/>
		<path fill="#0473B8" d="M1770.6,161.8c1,0.7,3.2,0.9,4,0c4.6-5.5,12-10.5,5.4-10.2C1774.9,151.8,1764.4,157.3,1770.6,161.8z"/>
		<path fill="#0473B8" d="M1766.9-38.3c1.4,20,4,39.5,9.8,56.6c2.4,7.2,15.6,14.8,14,22.3c-2.6,12-23.7,6.5-37.6,16.2
			c-16.4,11.6-14.4,29.8-17.7,41c-2.4,8.1-18.5,24.7,9.4,30.1c1,0.2,4.5-3.5,5.6-3.4c2.1,0.1,1.4,5.2,1.5,7c0,0.1,0,0.2,0,0.3
			c0.1,1,0.1,3.5,1.2,4c1.5,0.6,6-2,6.7,1c0.5,2.2-8.3,3.7-4,4.5c7,1.4,12.6,0.6,12.1,5.5c-0.4,4-11-2.2-9.4,1.2
			c2.8,6-3.7,11.2-1.4,13.5c4.9,4.9,17.2-1.9,17.4-7c0.1-2.7,1.8-0.3,2.8-1.2c0.7-0.6,0.4-4.6,2.5-2.2c0.9,1,0.6,2.4-0.1,3.3
			c-0.6,0.7-1.1,1.4-1.6,2.1c-3.3,4.7-18.5,8.5-14.4,11.7c4.6,3.5,9.6-6.7,16.1-4.7c3.8,1.2,2.2,2.8,1.3,5.6
			c-4.8,16.3-27.2,20.7-25.5,34.1c0.6,4.6-1.7,4.9-4,9.1c-5.1,9.2-15.8,21.2-5.4,22.6c17.7,2.4,10.3-34,21.5-45.3
			c4.3-4.3,17.9-6.9,25.5-9.3c3.5-1.1,1.7,8.4,5.3,5.6c4.8-3.7,2.1-17.5,6.7-11.3c2.1,2.7,1.7,11.1,3.6,13.9
			c14.4,20.4,20.7,0.1,35.3-1.9c4.3-0.6,3.8-7.2,8.6-7.8c0.3,0,0.7-0.1,1,0c6.4,2.9-22.2,23.6-11.4,26.5c7.7,2,12.7-17.1,18.9-16.9
			c4.7,0.1-4,4.8-3.6,9.4c0.2,1.7,2.3,2.4,4,3.3c7.7,4.2,4.6-13.5,10.7-8c5.3,4.7-10.4,12.6-5.4,15.8c6.6,4.3,4.2-9.6,9.4-4.6
			c4.7,4.5-10.7,23.2-5.3,29.3c15.3,17.4-3.1,49.9,14.6,47.1c25.4-4-14.3-66.6,8.1-77.8c11.1-5.5,22.1-6.2,30.9-0.4
			c5.2,3.5,0.8,1.4,5.4,4.4c20.1,13.2,36.2,37.1,53.6,57.9c8.6,10.2,12.8,26.4,20.1,20c34.9-30.5-89.6-58.5-64.3-100.6
			c3.2-5.3,12.6-8.1,20.1-8.1c2,0,0.2,4.2,2.7,4.5c11.9,1.1,20.2,25.8,32.2,21c1.5-0.6,1.6-4,2.7-2.3c3.5,5.9,16.7,9.2,20.1,15.5
			c9.5,17.5,41.6,0.6,57.8,17.5c1,1,7.2,4.5,10.7,3.3c3.8-1.4,4.8-8.4,1.3-11.3c-11.9-9.8-29.9-9.9-45.6-17.5
			c-13.3-6.5-29.6-3.4-44.4-12.1c-15.7-9.1-32.8-20.8-45.6-34.4c-3.8-4-16.6-11.7-14.4-18.3c2.2-6.4,23.5-12.2,20.5-19
			c-2.7-6.1-23.6-0.9-28.7-5.5c-10.6-9.5-6.9-28.1-3-35.5c6.2-11.9,63.4-14.4,41.2-35.1c-12.6-11.7-28.1,44.5-69.2,7.1
			c-14.9-13.6-47.5-8.1-65.7-22.9c-4.6-3.7-6.5-12-5.6-18.2c1.7-12.3,9.4-34.7-7.9-34.5c-10.5,0.1,0.5,23.6-1.1,34.8
			c-0.5,3.5-0.9,7.5-2.8,9.1c-3.2,2.5-5.4,7.8-9.4,4.6c-3.5-2.9-5.6-5.4-7.5-9.1c-7.1-14.1-12.7-36-19.3-49.1
			c-0.6-1.2-3.4-0.9-4-2.2c-0.6-1.4-1.1-2.7-1.3-4C1771.1-37.7,1769-37.9,1766.9-38.3z M1873.7,186c0.7,0.7-0.2,1.6-1.3,2.3
			c-1.4,0.9-4.2-1.9-2.7-3.3C1871.1,183.6,1872.6,184.9,1873.7,186z M1841.7,178.2c1.8,1.7-1,4-2.9,4.9c-2.4,1.1-4.6-4.4-2.2-5.4
			C1838.2,177,1840.6,177.1,1841.7,178.2z M1825,175.4c1.8,2-1.1,6.8-3.7,7.9c-5.7,2.3-5.5-8.2-1.1-9.4
			C1821.9,173.4,1824,174.3,1825,175.4z M1794.5,170.1c-1.4,0.9-4.2-1.8-2.7-3.3C1793.7,164.8,1796.2,169,1794.5,170.1z"/>
		<path fill="#0473B8" d="M1778.9,129.3c-0.1,0,0.1,0.3,0,0.3C1778.8,129.5,1778.9,129.3,1778.9,129.3z"/>
	</g>
	<path opacity="0.8" clip-path="url(#SVGID_2_)" fill-rule="evenodd" clip-rule="evenodd" fill="#229B8F" d="M1162.1,445.1
		c7.6,1.4,5.7,15.9-3.5,16.5C1151.2,462.1,1155.3,443.8,1162.1,445.1z"/>
	<path opacity="0.8" clip-path="url(#SVGID_2_)" fill-rule="evenodd" clip-rule="evenodd" fill="#229B8F" d="M1187.8,430.4
		c-2.2,1.5-4.7,3.3-7.6,5.6c-4.8,3.7-5.3,14.4,5.1,10.3c0.6-0.2,1.2-0.6,2-1.2L1187.8,430.4z"/>
	<path opacity="0.8" clip-path="url(#SVGID_2_)" fill-rule="evenodd" clip-rule="evenodd" fill="#0D72B7" d="M589.1,109
		c32.8,10.5,41.7,20.7,31.7,59.2c-6,23.1-40.5,32.5-64.9,27.2c-36.8-8.1-68.2-35.9-37.1-49.5c18.6-8.2,35.2,15.7,41.2,5.6
		C565.1,142.7,541.6,93.8,589.1,109z"/>
	<path opacity="0.8" clip-path="url(#SVGID_2_)" fill-rule="evenodd" clip-rule="evenodd" fill="#9BB153" d="M1462.2,131.7
		c40.5,8.3-7.9,59.9-37.9,58.8C1399.2,189.5,1440.7,127.3,1462.2,131.7z"/>
	<path opacity="0.8" clip-path="url(#SVGID_2_)" fill-rule="evenodd" clip-rule="evenodd" fill="#0D72B7" d="M1086.5,474.8
		c7.5-4.9,9.9,39.3-6.4,27.2C1065.5,491.2,1074.8,482.4,1086.5,474.8z"/>
	<path opacity="0.8" clip-path="url(#SVGID_2_)" fill-rule="evenodd" clip-rule="evenodd" fill="#0D72B7" d="M1159.3,453.2
		c6.1,6.6-32,10.6-39.5,4.9C1111.8,452.2,1152.9,446.3,1159.3,453.2z"/>
	<path opacity="0.8" clip-path="url(#SVGID_2_)" fill-rule="evenodd" clip-rule="evenodd" fill="#0D72B7" d="M873.7,65.5
		c41.7,12.1-10.8,79.3-55.4,59.4C784.5,109.9,847.8,58,873.7,65.5z"/>
	<path clip-path="url(#SVGID_2_)" fill-rule="evenodd" clip-rule="evenodd" fill="#F7EA23" d="M461.7,17.5
		c145.9-15.1,134.1,117.6-4,101.2C364.7,107.6,360.2,28,461.7,17.5z M516.4,58.1c-6.4,3.3,0.6,9.2,5.8,10.9c3.6,1.2,16,1.4,19.8,2.4
		c9.7,2.7,7.5-9.4,6.8-12.9C546.7,49.3,529.1,51.5,516.4,58.1z"/>
	<path opacity="0.8" clip-path="url(#SVGID_2_)" fill-rule="evenodd" clip-rule="evenodd" fill="#FBBA11" d="M512.2,16.7
		c4.7,0.6,18.8,9.3,26,15.6c31.5,27.6,78,8.2,66,46.8c-3.6,11.5,2.7,25.6-1.6,34.5c-5.1,10.4-20.8,13.6-21.5,25.4
		c-2,35.1-109.2,40.5-159.9,33.3c-86.3-12.3-115.7-74.6-76.7-116.5c20-21.5,58.7-39.9,120.3-36.6C485,20.2,504,15.7,512.2,16.7z"/>
	<path opacity="0.8" clip-path="url(#SVGID_2_)" fill-rule="evenodd" clip-rule="evenodd" fill="#F06F21" d="M1189.5,192.2
		c26,7.7,74.6,8.5,92,18.6c11.1,6.4,27.5,19,35.2,30.1c12,17.2,16.1,36.8-0.1,55.7c-34.3,40-105,12-135.6,34.4
		c-15.3,11.1-17,31.4-31.8,36.9c-15.4,5.8-50.6,8.7-72.7,4.2c-55.7-11.4-62.9-49.2-27.9-71.8c4.9-3.2,13.3-3.5,17.9-6.8
		c6.4-4.6,1.5-11.1-4.3-14.8c-30.4-19.6-102-18.8-124-34.3c-21.2-15-38.1-52.1-20.9-77.2c10.5-15.4,31.8-29.4,47.3-36.2
		c19.1-8.4,62.8-21.3,90.2-17.7c13.4,1.8,36,2.9,56.6,10.9c25,9.7,42.7,23.1,56.6,34.5C1179.7,168.4,1170.2,186.5,1189.5,192.2z
		 M1061.5,134.5c-6.5-1.2-4.3-9.9,2.3-10.9C1070.3,122.7,1112.7,143.7,1061.5,134.5z"/>
	<path opacity="0.8" clip-path="url(#SVGID_2_)" fill-rule="evenodd" clip-rule="evenodd" fill="#9B1F60" d="M-204.2,195.1
		c10.1-5.5,19.9,12.8,12.6,20.9c-3.6,3.9-9,8-17.8,6.5c-6.5-1.1-9.1-8.2-9.3-12.5C-219.1,204.1-212.7,199.7-204.2,195.1z"/>
	<path opacity="0.8" clip-path="url(#SVGID_2_)" fill-rule="evenodd" clip-rule="evenodd" fill="#9B1F60" d="M47.7,131
		c17.8-5.8,25.4,22.3,6.7,23.5c-11.4,0.7-17-4.2-21.2-7.7C25.5,140.3,36.1,134.8,47.7,131z"/>
	<path opacity="0.8" clip-path="url(#SVGID_2_)" fill-rule="evenodd" clip-rule="evenodd" fill="#9B1F60" d="M-60.4,125.3
		c21.2-8.4,24.5,24.9,9.9,31.4c-9.6,4.2-16.2,1.9-24-1.9c-5-2.4-0.4-4.6-6.3-10.4C-87.3,138-71.8,129.9-60.4,125.3z"/>
	<path opacity="0.8" clip-path="url(#SVGID_2_)" fill-rule="evenodd" clip-rule="evenodd" fill="#9B1F60" d="M94.2,191.1
		c6.3-3.3,3.1,14.2-2.6,14.7C82.2,201.9,87.5,194.6,94.2,191.1z"/>
	<path opacity="0.8" clip-path="url(#SVGID_2_)" fill-rule="evenodd" clip-rule="evenodd" fill="#9B1F60" d="M858.3-103.8
		c6.4-0.7,12.5-2.7,18.4-5.4c12.1-15.3,12.7-29.8-4.3-28.4C854.6-136.1,852.1-111.1,858.3-103.8z"/>
	<path opacity="0.8" clip-path="url(#SVGID_2_)" fill-rule="evenodd" clip-rule="evenodd" fill="#9B1F60" d="M138.9,215.9
		c22.5,3.2-11.2,21.1-16.3,11.1C119.6,220.8,127.7,214.3,138.9,215.9z"/>
	<path opacity="0.8" clip-path="url(#SVGID_2_)" fill-rule="evenodd" clip-rule="evenodd" fill="#9B1F60" d="M-63.2,193.1
		c-21.5-8.1-0.9-25,11.1-31.6C-1.2,133.7-21.4,208.9-63.2,193.1z"/>
	<path opacity="0.8" clip-path="url(#SVGID_2_)" fill-rule="evenodd" clip-rule="evenodd" fill="#9B1F60" d="M175.7,355.9
		c1.4-1,4.6-1,6,0c1.5,1,1.6,3.2,0.1,4.2c-1.4,0.9-4.5,1-6,0C174.3,359.1,174.2,356.9,175.7,355.9z"/>
	<path opacity="0.8" clip-path="url(#SVGID_2_)" fill-rule="evenodd" clip-rule="evenodd" fill="#9B1F60" d="M119.9,384.7
		c2.8-1.4,9.1-1.5,12-0.1c3,1.5,3.1,4.8,0.2,6.3c-2.8,1.4-9.1,1.5-12,0.1C117.1,389.5,117,386.2,119.9,384.7z"/>
	<path opacity="0.8" clip-path="url(#SVGID_2_)" fill-rule="evenodd" clip-rule="evenodd" fill="#9B1F60" d="M128.5,441.7
		c1.2-2.7,7.5-5.7,11.8-5.6c4.6,0.1,8.2,3.5,6.9,6.4c-1.2,2.7-7.4,5.7-11.8,5.6C130.9,447.9,127.2,444.6,128.5,441.7z"/>
	<path opacity="0.8" clip-path="url(#SVGID_2_)" fill-rule="evenodd" clip-rule="evenodd" fill="#9B1F60" d="M177.2,370.7
		c13.2,6.5-27.6,27-38.5,17.1C127.6,377.6,161,362.8,177.2,370.7z"/>
	<g clip-path="url(#SVGID_2_)">
		<path opacity="0.8" fill-rule="evenodd" clip-rule="evenodd" fill="#9B1F60" d="M2053.4-69.5c7.7-9.2,22.9-11.2,36.9-12.6
			c79-7.9-59.7,77-43.9,27.2C2048.7-62.4,2049.8-65.2,2053.4-69.5z"/>
		<path opacity="0.8" fill-rule="evenodd" clip-rule="evenodd" fill="#9B1F60" d="M1753-84.4c3.1-3.5-14.1-2.4-15.2-6.2
			c-0.5-2-1.1-5.1,2.8-6.3c4.6-1.4,1,0,5.9-2.1c6.3-2.7,18,1.7,21.1,6.1c4.5,6.3-5.3,7.1-14.6,12.7
			C1750.2-78.6,1751.4-82.7,1753-84.4z"/>
		<path opacity="0.8" fill-rule="evenodd" clip-rule="evenodd" fill="#9B1F60" d="M1912.9-115c8-7.5,21.9,9.1,14.7,15.1
			c-5.5,4.6-5.8-11.3-14.5-9.4C1908.9-108.3,1910-112.2,1912.9-115z"/>
	</g>
	<g opacity="0.8" clip-path="url(#SVGID_2_)">
		<path fill-rule="evenodd" clip-rule="evenodd" fill="#80298B" d="M185.2,98.1c-0.4-0.4-2.5,0-3-0.4c-8.8-8.1-5.5-39.5,10.6-39.9
			c14.8-0.4,12.5,27.5,6.5,36.1c-2,2.9-11.7,9.4-15.8,7.9C182.3,101.4,186,98.9,185.2,98.1z"/>
		<path fill-rule="evenodd" clip-rule="evenodd" fill="#80298B" d="M339.3,195c4.9,0.8,3.7,10.5,0,12.9c-2.7,1.8-13.6,2.7-15.3,0.7
			C321.1,205.2,333.1,194,339.3,195z"/>
		<path fill-rule="evenodd" clip-rule="evenodd" fill="#80298B" d="M438.6,303.2c-4.7,2.9-23.4,2.4-25.4-1.3
			c-2.5-4.7,15.9-16.5,23.5-15C442.9,288.2,443.4,300.2,438.6,303.2z"/>
		<path fill-rule="evenodd" clip-rule="evenodd" fill="#80298B" d="M-17,236.9c0.9,3.3-9.8,10.2-15.2,10.1
			c-5.7-0.1-12.9-7.5-13.1-11.1c-0.1-1.5,2.7-4.9,5-5.4C-34,229.2-18.1,233-17,236.9z"/>
		<path fill-rule="evenodd" clip-rule="evenodd" fill="#80298B" d="M97.1,373.4c6.1-1.7,0.2,6.7,2,10.9
			c7.1,16.8-12.9,36.2-20.4,52.9c-2.8,6.2-2,20.9-9.9,17.3C36.4,439.5,55.8,384.8,97.1,373.4z"/>
		<path fill-rule="evenodd" clip-rule="evenodd" fill="#80298B" d="M-171.3,359.6c-3.5,0-2.8-2.8-3.5-4.7
			c-3.2-9.9,39.9-22.2,46.2-12.3c0.7,1.1,0,1.7,0.3,2.6C-125.9,354.9-155.2,359.4-171.3,359.6z"/>
		<path fill-rule="evenodd" clip-rule="evenodd" fill="#80298B" d="M45,364.8c13.9,0.4-11.7,14.8-17.2,24.5
			c-3.2,5.7-16.7,18.6-21.4,12C-2.7,388.6,16.7,364.1,45,364.8z"/>
		<path fill-rule="evenodd" clip-rule="evenodd" fill="#80298B" d="M57.1,489.2c2.9-0.5,2.1,3.8,0.4,5C55,496,54.6,489.7,57.1,489.2
			z"/>
		<path fill-rule="evenodd" clip-rule="evenodd" fill="#80298B" d="M359.1,383.9c2.1-4,9.5-7.2,16.4-6.6c3.3,0.3,29.6,7.6,33.2-1
			c3.8-9-1.1-17.1-8.3-19.1c-3.2-0.9-11.9,3.2-14.4,1.7c-4.1-2.6,1.2-11.7,4.9-14.9c4.4-3.7,20.4-9.2,22.4-7.9
			c3.6,2.3-8.5,7.3-5.6,9.9c4.6,4.2,27.6,2.6,34.4-0.7c5.2-2.5,8-10.1,6.4-14c-2.2-5.2-15.3-10.7-24.6-10.7
			c-8.4,0-24.8,6.9-30.7,4.7c-5.1-1.8-17.9-6.9-16-10.6c1.2-2.2,13.1-0.3,14.7-2.5c1.8-2.3-6.5-6.2-7.3-8.6
			c-0.7-2.2,18.6-14.8,16.8-16.8c-10.9-11.3-30.9,9.2-34.8,7.7c-1.4-0.5-2.8-2.7-2.5-3.7c3.2-10.2,29.5-29.6,46-31.2
			c3.9-0.4,9,5.5,12.9,5c7.6-1,13.5-12.1,18.9-15.7c7.6-5.1,39.8-12.9,33.6-18.2c-6.2-5.3-26.9,15-37.8,15.1c-3.6,0-8-5.3-11.6-4.9
			c-7.7,0.9-14.2,12.2-20.2,15.5c-12.5,6.8-41.6,24.1-56.8,21.3c-1.6-0.3-3-2.7-2.5-3.7c3.4-7.2,31.1-12.6,39.2-18.4
			c4.3-3,13.1-10,12.7-13.9c-0.5-4.1-9.9-12.4-16.6-12.4c-7.8,0-20.8,9.6-22.5,14.4c-0.6,1.8,4.8,4.8,4.1,6.5
			c-2.7,6.1-22.1,18.3-31.6,16.7c-6.5-1.1-3.2-11.6,0.3-15.4c3.3-3.7,18.2-2.2,18.4-6.3c0.3-5-24.1-8.8-30.5-5.5
			c-3.1,1.6-3.1,6.8-5.7,8.8c-2.3,1.7-3.7,2.4-6.9,1.7c-8.3-1.7-10.5-9-15.9-13.1c-5.8-4.4,11.7-19.8,8.3-25.5
			c-2.8-4.6-44.5-14.8-43.8-16.6c4.3-12.5,24.2-9.5,27.7-20.2c3-9,8.6-14.7,19.1-21.4c9.6-6.1,18.4-12.7,28.2-18.8
			c8.8-5.4,16.6-11.6,25.5-16.8c8.4-4.9,47.8-19.7,57.5-23.4c16.1-6.2-23.4-14.8-31.5-11.6c-9.8,3.8-39.1,28.1-46.3,33.6
			c-7.3,5.6-28.9,8.7-36.7,14.2c-8.3,5.7-2.9,12.9-11.2,18.6c-15.8,10.9-30.1,32.7-50.8,35.2c-16.2,2-27.7-13.1-33.4-22.4
			c-7.6-12.3,7.1-54.1-14.7-52.5c-25,1.9,7.4,48.3-5.7,62c-1.5,1.6-7,3.6-9.8,3.9c-5,0.6-15.3-0.8-19.5-2.4
			c-12.1-4.6-28.1-19.8-34.8-27.5c-5.4-6.2-11.4-19.9-14.6-26.7c-3.3-6.9-8.1-21.1-11.4-28c-1.9-4-9-11.4-8.4-15.6
			c1-7.1-4.9-12.3-3.2-19.4c0.2-0.9-1.9-2.7-1.2-3.6c1.2-1.5,7.9-1.8,9.5-3.1c8.5-7.1,19.4-27.9,10.3-34
			C85.4,4.9,50.7,6.3,32.6,16.2c-12.7,7-23,30.8-16.9,40c3,4.5,22,5.9,27.4,9.4c7.2,4.6,12.2,18.1,19,23c1.6,1.2,6.6,2.4,8.1,3.6
			c13.4,10.9,25,38.6,31.3,52c1,2.2,1.6,6.9,3,9c1.6,2.2,7.7,5.6,8.9,8c0.7,1.4-0.1,4.5,0.2,6c0.7,3.7,6.8,10.7,4.9,14.3
			c-2.3,4.4-15.6,10.2-21.8,12.8c-7.1,3-23.5,10.8-31.1,9c-3.7-0.9-1.6-9-5.6-9.3c-7.3-0.5-21.8,10.9-18.6,14.9
			c2.7,3.4,21.3-4.2,25.1-1.2c4.8,3.8-6.2,14.8-9.6,19.4c-2.4,3.3-6.9,10.6-12,12.3c-6.5,2.1-22.3-4.6-27.9-1.7
			c-1.6,0.8-1.9,4.1-0.8,5.1c3.6,3.1,21.3-0.2,24.7,3.1c3.9,3.7-5.6,13.5-6.3,18.1c-0.9,5.8,6.1,18.2,1,23.3
			c-2.3,2.3-6.2,4.3-11.2,6.1c6.2-1.4,11.4-1.5,15.3,0.5c5.6,2.8-5.6,13.6-8.9,17.8c-1.8,2.3-7.1,6.6-10.3,8.2
			c-8,4-19.9,6.7-29.2,11c-13.5,6.2-32,10.5-32.9,15.8c-37.1,4.6-105.2,26.3-83.7,43.7c23.8,19.3,70.8-27,105.1-42
			c27.3-11.9,60.4-42,80.2-34.8c17,6.2-33.1,39.5-11.6,50.1c11.5,5.7,14.2-20.3,38.6-20.1c5.7,0,9.5-8.3,14.8-5.9
			c12.5,5.6-15.4,28.2-2.3,28.1c7.9-0.1,8.3-24.5,21.3-21.4c8.2,1.9,15,2.1,24.6,6.5c5.6,2.6,11.6,5.2,13.8,9.4
			c0.5,1,0.1,2.6-1.4,3.3c-13.7,6.8-25.9,17.6-6.3,18.1c13.7,0.3,7.1-14.9,21.1-11.1c19.7,5.4,7.4,26.8,39.3,29.8
			c9.9,0.9,4.7,13.9,17,11.5c15.1-3,21.2,1.3,33.7,4.2c10.2,2.3,21.2-1,36.2-1.5c6.9-0.2,8.3-10,14.9-9.3
			c19.6,2.1,10.4-4.5,16.2-9.2c8.9-7.2,53.3,22.9,64.6,18.4C398.8,412.3,357.2,387.5,359.1,383.9z"/>
		<path fill-rule="evenodd" clip-rule="evenodd" fill="#80298B" d="M24.2,293.2c-2.5,0.6-5.2,1.4-8,2.4
			C19.1,294.9,21.8,294.1,24.2,293.2z"/>
		<path fill-rule="evenodd" clip-rule="evenodd" fill="#80298B" d="M452.7,416.2c-11.6-5.9-32.8-8.9-49.9-12.5
			c-14.2-3-46.4-17.8-51-14.7c-0.9,0.6,0.6,1.5,1.3,2.1c22,16.4,18.7,11.3,47.1,17.2c19.8,4.1,38.3,24.4,57.8,14.2
			C462.5,420.2,455.4,417.5,452.7,416.2z"/>
		<path fill-rule="evenodd" clip-rule="evenodd" fill="#80298B" d="M-87.3,328.7c13.7,20.4,68.3-20.7,103.5-33.1
			C-23.1,305.8-101.1,308.1-87.3,328.7z"/>
		<path fill-rule="evenodd" clip-rule="evenodd" fill="#80298B" d="M26.2,199.3c0.9,4.5-3.9,15-10.2,17.6
			c-8.1,3.4-29.7,1.6-37.7-1.2c-8.9-3.1-23.2-14.4-22.6-20.8c1.6-18.8,38.9-20.1,43.4-18.7C9.5,179.4,24.7,192,26.2,199.3z"/>
		<path fill-rule="evenodd" clip-rule="evenodd" fill="#80298B" d="M68.7,455.3C77,455,72,476.2,62,476.8
			C51,477.5,58.1,455.7,68.7,455.3z"/>
		<path fill-rule="evenodd" clip-rule="evenodd" fill="#80298B" d="M254.7,478.8c-14.2,6.5-52.1-13.3-54.4-23.8
			c-1.6-7.7,18.2-27,30.6-26C252,430.6,272.4,470.6,254.7,478.8z"/>
	</g>
	<path opacity="0.8" clip-path="url(#SVGID_2_)" fill-rule="evenodd" clip-rule="evenodd" fill="#D11C5B" d="M1957.8-41.3
		c35.6,40.1-67.8,61.1-78,17.5C1872.9-53.2,1933-69.2,1957.8-41.3z M1935.8-17.8c-3.6-1.3-6.9,1.9-7.4,3.7c-0.3,1.3,1.6,5,1.4,6.3
		c-0.5,3.3,8.4,0.5,11-0.4C1947.5-10.5,1942.9-15.2,1935.8-17.8z"/>
	<path opacity="0.8" clip-path="url(#SVGID_2_)" fill-rule="evenodd" clip-rule="evenodd" fill="#8E1E5C" d="M299.5,71.9
		c2.6,2.7,1.9,15.7-0.6,23.5c-11.2,34.4,44.8,44.4-10.2,64.6c-16.4,6-28.9,18.7-42.8,22.6c-16.2,4.6-31-1.1-45.7,6.5
		c-43.8,22.8-125.4-26.8-152.3-57C2.2,80.9,56.8,24,134.7,15c40-4.7,89.3,2.1,128.5,35C276.1,60.8,294.9,67.1,299.5,71.9z"/>
	<g opacity="0.8" clip-path="url(#SVGID_2_)">
		<path fill-rule="evenodd" clip-rule="evenodd" fill="#CF3891" d="M132.9-154.9c7.8-5.2,2.6,3.9,14.1,9.5
			c10.9,5.3,19.2,10.7,23.5,19.4c1.1,2.2,5,6.9,2,13.2c-5.4,11.4-11.9,15.3-25,20.4c-4.6,1.8-0.7-4.7-0.7-6.1
			C147.4-120.4,117.6-144.6,132.9-154.9z"/>
		<path fill-rule="evenodd" clip-rule="evenodd" fill="#CF3891" d="M-212.1-65.1c36-8.8,120.9,27.6,89.4,52.3
			c-10.3,8.1-11,14.7-7.4,21.3C-111.3,43.3-34.7,45.1-4.2,79c8,8.9,2.7,13.4,8.7,26.5c2.7,5.8-8,3.8-7.8,8
			c0.5,8.9,24.9,17.9,8.7,23.8c-24.9,9.1-33.1-26.9-49.1-42c-54.5-51.4-198-62.7-199.5-133.6C-243.6-51-228.9-61-212.1-65.1z"/>
		<path fill-rule="evenodd" clip-rule="evenodd" fill="#CF3891" d="M402.7-101c6-4.3,8.9,12.6,1.5,20.2
			C394.8-71,395.5-95.8,402.7-101z"/>
		<path fill-rule="evenodd" clip-rule="evenodd" fill="#CF3891" d="M387.6-26.1c9-4.6,9.3,9.5,0.4,13.4
			C381-9.7,381.4-22.9,387.6-26.1z"/>
		<path fill-rule="evenodd" clip-rule="evenodd" fill="#CF3891" d="M381.3-11.2c1-0.7,3.4-0.7,4.5,0c1.1,0.7,1.1,2.3,0.1,3
			c-1,0.7-3.4,0.7-4.5,0C380.3-8.9,380.3-10.5,381.3-11.2z"/>
		<path fill-rule="evenodd" clip-rule="evenodd" fill="#CF3891" d="M96.9-49.7c3.4-2.4,10.9-2.2,14.8-0.1
			c12.8,6.6-14.3,15.9-22,10.1C85.7-42.9,91.7-46.2,96.9-49.7z"/>
		<path fill-rule="evenodd" clip-rule="evenodd" fill="#CF3891" d="M315.1,138.2c-4.7-2.3,8-6,11.9-4.1
			C331.6,136.5,318.9,140.2,315.1,138.2z"/>
		<path fill-rule="evenodd" clip-rule="evenodd" fill="#CF3891" d="M428.4,280.8c4.6-2,32.1,3.9,32.1,3.9s57.2,18.8,45.7,43.4
			c-7.6,16.3-2.2,40.5-44.9,41.6c-31.5,0.8-76.5,15.1-94.5-8.1c-31-39.8,32.1-27.9,52-61.7C419.5,298.8,422.9,283.2,428.4,280.8z"/>
		<path fill-rule="evenodd" clip-rule="evenodd" fill="#CF3891" d="M-44.1,298.3c4.2,5.4,4.8,15.8-1.6,22.3
			c-19,19.3-78.7,36.1-95.6,18.7c-15.1-15.6,34.3-27.2,59.3-37.6C-69.8,296.5-49.4,291.4-44.1,298.3z"/>
		<path fill-rule="evenodd" clip-rule="evenodd" fill="#CF3891" d="M-72.3,234.3c-12.9-1.2-13-6.7-17-13.1c-5.7-9-5.7-21.9,7.1-25.8
			c21.9-6.7,45.5,5.5,43.7,19.5C-39.9,225.6-51.6,233.3-72.3,234.3z"/>
		<path fill-rule="evenodd" clip-rule="evenodd" fill="#CF3891" d="M-196.4,355.1c3.7,0.7,17.6,1.9,18,3c0.8,2.1-4.4,14.6-6.5,16.2"
			/>
		<path fill-rule="evenodd" clip-rule="evenodd" fill="#CF3891" d="M309.5-100.3c8.9-12.2,10.3,4.9,3.2,17.6
			c-6.4,11.3-18.5-11.8-13.1-15.5C303.5-100.9,306.7-96.5,309.5-100.3z"/>
		<path fill-rule="evenodd" clip-rule="evenodd" fill="#25A7DE" d="M371.6-101.1c-26.3-6.7-9.7-58.5,20.6-61.1
			c24.7-2.1,0.7,29.3-5.4,44.6C382.5-106.7,390.2-96.4,371.6-101.1z"/>
		<path fill-rule="evenodd" clip-rule="evenodd" fill="#CF3891" d="M259-63.2c4.4,3.4,5.2,11.9,6.8,14.7
			c4.2,7.3,21.2,24.2,10.4,30.6c-29.6,17.5-22.5-13-27.5-22.5c-0.6-1.1-9-10.8-9.7-14.9c-0.5-3.2,3.1-10.4,7.3-12.1
			C249.2-68.4,256.8-64.9,259-63.2z"/>
		<path fill-rule="evenodd" clip-rule="evenodd" fill="#CF3891" d="M365.5-17.3c-12.7-8,2.1-25,10.2-34.2
			c7.8-8.9,1.5-20.8,17.3-20.9c12.5-0.1-5.3,18-7.8,23.8c-3,7.1-1,23.1-10.9,28.3C371.6-18.9,370.4-14.3,365.5-17.3z"/>
		<path fill-rule="evenodd" clip-rule="evenodd" fill="#CF3891" d="M361.2-9.5c8.4-2.5-4,11.8,4.8,11.8c3.2,0,1.4-2.3,6.6-4.5
			c9.1-3.9,1.3,8-4.1,11.9c-14.7,10.7-14.5,31.8-28.2,29.9C327.2,37.8,340-3.1,361.2-9.5z"/>
		<path fill="#CF3891" d="M355.9,148.6c-1.2-1.9-4.6-1.6-6.7-1.4c-5.7,0.6-3.5,2.7,0.2,5.9C353.2,156.3,357.1,150.5,355.9,148.6z"/>
		<path fill="#CF3891" d="M340.5,150.2c-1.7-1-5.4-1.1-6.6,0.1c-7.5,7.2-19.5,13.7-8.5,13.3C333.7,163.2,350.8,156.1,340.5,150.2z"
			/>
		<path fill="#CF3891" d="M228.9,513.1c6.1,2.1,13.4-0.6,17.6-3.1c3.6-2.1,5.1-5.2,8.6-10.4c13.8-20.8-19-53.2-26.5-74.8
			c-3.6-10.2,5.7-27.9-8.5-27.8C192.5,397.3,175.2,494.2,228.9,513.1z"/>
		<path fill="#CF3891" d="M145,128.1c-1.7-0.3-7.3,4.6-9.1,4.5c-3.5-0.1-2.6-6.8-2.8-9.1c0-0.1,0-0.2,0-0.3
			c-0.2-1.3-0.3-4.6-2.1-5.2c-2.5-0.9-9.9,2.6-11.1-1.4c-0.9-2.8,13.6-4.8,6.5-5.9c-11.7-1.9-20.9-0.8-20.1-7.2
			c0.6-5.2,18.2,2.9,15.5-1.6c-4.9-7.9,5.7-14.6,1.7-17.7c-8.3-6.4-28.3,2.4-28.5,9.1c-0.1,3.5-3,0.4-4.6,1.6
			c-1.1,0.8-0.5,6-4.1,2.9c-1.5-1.3-1.1-3.2,0.1-4.3c0.9-0.9,1.8-1.8,2.6-2.7c5.2-6.1,30.2-11.1,23.3-15.2
			c-7.7-4.5-15.6,8.8-26.4,6.1c-6.3-1.5-3.7-3.6-2.4-7.3c7.3-21.3,44.1-27,40.8-44.5c-1.1-6,2.7-6.4,6.3-11.8c8-12,25.3-27.7,8-29.5
			c-29.3-3.1-15.7,44.4-33.8,59.1c-6.9,5.7-29.4,9-41.7,12.1c-5.7,1.5-3.1-11-9.1-7.3c-7.8,4.8-2.7,22.9-10.7,14.8
			c-3.5-3.6-3.2-14.5-6.5-18.1c-24.6-26.6-34.1-0.2-58.2,2.5c-7.1,0.8-6.1,9.4-13.8,10.2c-0.5,0.1-1.1,0.2-1.6,0
			C-47.5,58-1,30.9-19,27.2c-12.8-2.6-20.4,22.4-30.5,22.1c-7.7-0.2,6.4-6.2,5.5-12.3c-0.3-2.3-3.9-3.1-6.8-4.4
			c-12.9-5.4-7,17.6-17.4,10.5c-9-6.2,16.7-16.4,8.3-20.7c-11.1-5.6-6.5,12.6-15.3,6c-7.9-5.9,16.7-30.3,7.6-38.3
			c-26-22.7,3.3-65.2-25.9-61.6c-41.7,5.2,26.2,87.1-10.4,101.6c-18,7.2-36.2,8.1-50.9,0.4c-8.7-4.5-1.3-1.9-9-5.8
			c-33.7-17.2-61.1-48.5-90.7-75.7c-14.6-13.4-22.2-34.5-34-26.2c-56.5,39.8,150.2,76.5,110,131.5c-5,6.9-20.5,10.5-32.9,10.6
			c-3.4,0-0.5-5.5-4.6-5.8c-19.6-1.5-34.4-33.8-53.9-27.5c-2.4,0.8-2.6,5.3-4.3,3c-6.1-7.7-28-12.1-33.8-20.3
			c-16.2-22.9-68.6-0.8-96.2-22.9c-1.7-1.4-12.1-5.9-17.8-4.3c-6.3,1.8-7.7,11-1.8,14.7c20,12.8,49.8,12.9,75.9,22.9
			c22.2,8.5,49.1,4.5,73.8,15.8c26.3,12,54.9,27.2,76.6,44.9c6.4,5.2,27.8,15.3,24.4,23.9c-3.3,8.4-38.3,16-33.1,24.8
			c4.7,8,39,1.2,47.7,7.2c17.9,12.4,12.4,36.7,6.3,46.4c-9.9,15.6-104.2,18.8-66.7,45.9c21.2,15.3,44.8-58.1,114-9.3
			c25.1,17.7,78.7,10.6,109.4,29.9c7.8,4.9,11.2,15.7,10,23.7c-2.4,16-14.3,45.3,14.4,45.1c17.4-0.2-1.7-30.8,0.4-45.5
			c0.7-4.5,1.1-9.8,4.3-11.8c5.3-3.3,8.7-10.2,15.3-6c5.9,3.8,9.5,7.1,12.7,11.9c12.2,18.4,22.3,47.1,33.8,64.2
			c1.1,1.6,5.6,1.1,6.7,2.9c4.5,7.1,2.7,14,0.6,22.1c-7.5,29.6,1.2,71.4,25.1,94.3c-12.8-57.3-6.3-129.7-31.2-184.2
			c-4.3-9.4-26.3-19.3-23.9-29.1c3.9-15.7,38.9-8.4,61.4-21.1c26.7-15.1,22.7-38.9,27.7-53.5C165.4,156.8,191.3,135,145,128.1z
			 M-63.5,53.4c-2.3,1.8-4.9,0.1-6.7-1.4c-1.1-1,0.3-2.1,2.1-3C-65.7,47.9-61,51.5-63.5,53.4z M-8.6,63c-2.6,0.9-6.6,0.7-8.5-0.7
			c-3.1-2.3,1.6-5.2,4.7-6.3C-8.5,54.4-4.6,61.6-8.6,63z M18.4,67.9c-2.6,0.6-6.1-0.5-7.9-2c-3.1-2.6,1.6-8.9,5.8-10.3
			C25.6,52.6,25.7,66.3,18.4,67.9z M65.7,77.3c-3,2.5-7.3-3-4.6-4.4C63.4,71.7,68.1,75.3,65.7,77.3z"/>
		<path fill="#CF3891" d="M328,192.7c0.1,0-0.1-0.3,0-0.3C328.2,192.3,327.9,192.6,328,192.7z"/>
	</g>
	<path opacity="0.8" clip-path="url(#SVGID_2_)" fill-rule="evenodd" clip-rule="evenodd" fill="#4C3C94" d="M306.6,148.4
		c-5.3,7.1-4.3,15.1-6.5,17.9C208,210.2,58.2,185.1,26.4,119.1c-0.9-3.7,6.7-8.4,12.4-12.9C23,83,41.4,55.6,75.7,26.3
		c19.5-10.3,40.6-12,58.7-30c64.3-19.8,216.7-9,219.4,48.3c4.3,3.3,20.3,5.1,16.6,9.3c13.7,24.4,0,52.1-21.9,80.9
		C335,142.1,313.1,143.8,306.6,148.4z"/>
	<g opacity="0.8" clip-path="url(#SVGID_2_)">
		<path fill-rule="evenodd" clip-rule="evenodd" fill="#F9B016" d="M607.4,225.2c-8.7,0.4-9.5,10.9-18.4,9.9
			c-3.2-0.4-5.8-1.3-9.3-2.8c-31.2-12.9-110.2-42.7-117.3-65.2c-2.8-9,13.6-16,15-22.1c0.5-1.9,38.3-1.2,39,2.5
			c2.6,13.6,17.1,17.1,31.9,29.6c9.4,7.9,18.8,16.6,25.1,20.8c8.5,5.7,14.5,2.8,29,1.8c18.5-1.2,19.2,20.1,35.5,25.2
			c19.7,6.1,34.4,11.9,52,20.3c6.1,2.9,13.2,7.6,11.7,12.6c-0.8,2.4-5,4.7-9.2,4.6C656.2,261.4,650.7,222.9,607.4,225.2z"/>
		<path fill-rule="evenodd" clip-rule="evenodd" fill="#F9B016" d="M-422.3,7.4c-16.8-15.3,17.1-2,45.1-17.6
			c26.6-14.8,69.6,17.8,106.5,15.7c9.3-0.5-11.4-7.8-2.2-11c42.4-14.9,94.3-0.9,107.9,23c4.7,8.3-19.2-1.4-24.8-2.2
			C-277.1,2.5-389.2,37.6-422.3,7.4z"/>
		<path fill-rule="evenodd" clip-rule="evenodd" fill="#F9B016" d="M-187.3,208.8c-2.9-11.1,30.5-31.8,45.1-20.5
			c4.8,3.7,9.4,4.5,14.4,4.1c26.3-2.1,34.6-23.7,61.3-29.2c7-1.4,9.7,0.5,19.5,0c4.3-0.2,2,2.6,5,3c6.3,0.7,14.9-5.4,17.6-0.2
			c4.2,7.9-22,6.9-34.2,10c-41.2,10.7-62.2,50.4-112.5,44.2C-180.2,219.1-185.9,213.9-187.3,208.8z"/>
		<path fill-rule="evenodd" clip-rule="evenodd" fill="#F9B016" d="M-58.1-111.1c-4.4-3.8,17.3-2.4,25.8,2.7
			C-21.5-102-52.7-106.6-58.1-111.1z"/>
		<path fill-rule="evenodd" clip-rule="evenodd" fill="#F9B016" d="M34-90.8c-4.4-5.4,13.5-3.1,16.9,2.1
			C53.7-84.7,37.1-87.1,34-90.8z"/>
		<path fill-rule="evenodd" clip-rule="evenodd" fill="#F9B016" d="M51.9-85.1c-0.7-0.6-0.4-1.8,0.7-2.3c1-0.4,3-0.2,3.8,0.5
			c0.7,0.7,0.4,1.9-0.7,2.3C54.6-84.2,52.6-84.4,51.9-85.1z"/>
		<path fill-rule="evenodd" clip-rule="evenodd" fill="#F9B016" d="M-42.9,53.2c-2.4-2.1-1-5.9,2.2-7.6c10.5-5.4,17.8,10,9.1,12.9
			C-36.1,60-39.2,56.4-42.9,53.2z"/>
		<path fill-rule="evenodd" clip-rule="evenodd" fill="#F9B016" d="M229.9-26.2c-3.7,2-6.3-5.1-3.2-6.7
			C230.4-34.9,233-27.8,229.9-26.2z"/>
		<path fill-rule="evenodd" clip-rule="evenodd" fill="#F9B016" d="M428.4-59.8c-1.8-2.7,10.1-15.7,10.1-15.7s33-25.9,62.2-15.9
			c19.3,6.6,50.8,7.9,45.3,29.9c-4.1,16.2,6.7,41.5-25.5,46.7c-55.3,9.1-30.1-21.1-69.5-36.9C449.6-52.2,430.5-56.6,428.4-59.8z"/>
		<path fill-rule="evenodd" clip-rule="evenodd" fill="#F9B016" d="M373.9,183.6c7.5-1.2,20.7,0.2,27.9,4.6
			c21.3,12.9,32.8,46.2,8.1,51.8c-22.2,5-28.7-22-37.9-36.5C367.4,196.4,364.3,185.2,373.9,183.6z"/>
		<path fill-rule="evenodd" clip-rule="evenodd" fill="#F9B016" d="M304.1,195.2c-4.8,8.5-14.1,7.3-25.8,8.6
			c-16.5,1.9-38.3-1.1-42.1-10.6c-6.5-16.4,19.2-29.7,42.4-25.4C296.4,171.2,306.9,180.9,304.1,195.2z"/>
		<path fill-rule="evenodd" clip-rule="evenodd" fill="#F9B016" d="M427.6,262c2.7,0,17.8,4.7,19.4,6c6,5,14.9,9.4,16.6,15.5
			c2.6,9.6-33.1,29.9-57.4,16.5c-13-15.8,8.8-22.1,14.8-29.4C422.4,268.9,426.2,262,427.6,262z"/>
		<path fill-rule="evenodd" clip-rule="evenodd" fill="#F9B016" d="M-139.8-19.3c-13.2-4.4,27.9-2.6,36,2.5
			c11,6.9-31.2,6.2-34.9,2.9C-141.5-16.3-135-17.7-139.8-19.3z"/>
		<path fill-rule="evenodd" clip-rule="evenodd" fill="#F9B016" d="M11-70.5c-4.3,14.4-72.6,13.8-80.7-1.2c-6.6-12.3,37-4.8,57.4-4
			C2.2-75.1,14.1-80.6,11-70.5z"/>
		<path fill-rule="evenodd" clip-rule="evenodd" fill="#F9B016" d="M1.2-26.4C6.8-26.3,15.4-21.9,19-21c9.3,2.4,34.8,4.8,35.1,12.5
			C55,12.5,29.4-6.8,17.6-9.9C16.2-10.3,2.3-12.3-2-14.2c-3.4-1.5-8.4-6.9-7.7-9.4C-9.2-25.4-1.7-26.5,1.2-26.4z"/>
		<path fill-rule="evenodd" clip-rule="evenodd" fill="#F9B016" d="M41.6-78.1C29.4-73,10.3-83.4,0-89c-10-5.5-26-4.3-23.6-12.3
			c1.9-6.4,21.9,5.7,28.8,8c8.5,2.7,29,4.4,34,10.3C40.5-81.5,46.2-80,41.6-78.1z"/>
		<path fill-rule="evenodd" clip-rule="evenodd" fill="#F9B016" d="M50.7-74.6c-1.9-4.7,14.3,4,15.7-0.4c0.5-1.6-2.7-1.1-4.6-4.1
			c-3.5-5.3,10.3,0.7,14.4,4.1c11.1,9.3,37.9,12.7,33.3,19.4C105-49.3,55.4-62.7,50.7-74.6z"/>
		<path fill="#F9B016" d="M249.6-45.2c-2.6,0.3-2.8,2-2.9,3.2c-0.2,3,2.8,2.3,7.5,0.9C258.9-42.5,252.2-45.5,249.6-45.2z"/>
		<path fill="#F9B016" d="M249.1-37.1c-1.5,0.7-2.3,2.5-1,3.4c7.9,5,14.2,12.2,15.5,6.6C264.5-31.5,258.2-41.4,249.1-37.1z"/>
		<path fill="#F9B016" d="M689.5,80.9c3.7-2.7,1.4-6.9-1.1-9.5c-2.1-2.2-5.7-3.5-11.7-6.1c-24-10.5-70.3,0.7-98.8,0.9
			c-13.5,0.1-34.3-7.6-36.5-0.4C537.3,79.9,656.8,105,689.5,80.9z"/>
		<path fill="#F9B016" d="M812,34.9c-0.7,0.9-5.8-1.9-5.4-2.5c-3.2-1.1-7.2,2.7-10.6,1.7c-0.7-0.2,2.6-2,2.5-2
			c-17.9-5.7-67.1-9.3-72.9-1.8c-0.6,0.8,3.1,1.8,1.2,2.5c-2.5,0.9-5.1,1.7-7.9,2.4c7.6,0.3,15.1,0.5,22.5,0.6
			c50.9,0.3,119.7,30.4,151,5.5c9-7.1-17-13.8-29-12.9c-17.6,1.4-40.4-0.6-51.4,2.5"/>
		<path fill="#F9B016" d="M0.6-7.1C0-6.3,5.2-2.6,4.8-1.7c-0.7,1.8-9,0.2-12-0.1c-0.1,0-0.3-0.1-0.4-0.1c-1.7-0.1-5.9-0.6-7,0.2
			C-16-0.6-12.8,3.7-18,3.7c-3.7,0-3.8-7.8-6.5-4.3c-4.3,5.6-4.4,10.5-12.3,9c-6.5-1.2,6.6-8.8,0.5-8.1c-10.7,1.1-17.5-5.4-22-3.9
			c-9.4,3.1-1.5,14.8,6.8,16.1c4.4,0.7,0,1.6,1.2,2.6c0.8,0.7,7.5,1.3,3,2.6c-1.9,0.6-4.2,0-5.5-0.8c-1-0.6-2-1.2-3-1.8
			c-6.9-3.7-9.2-17.3-15.5-14.4c-7,3.1,8.5,9.4,3.4,14.5c-3,2.9-5.2,1.3-9.7,0c-25.8-7.3-26.9-27-49.6-28.3
			c-7.7-0.4-7.7-2.5-13.9-5.2c-13.9-6.1-30.8-17.5-36-9.1c-8.7,14.4,53.5,15.5,69.3,27.2c6,4.5,6.6,16.5,8.6,23.3
			c0.9,3.2-14.4-0.3-10.7,3.4c4.8,4.8,28.4,5.2,17,7.9c-5.1,1.2-18.9-0.8-23.9,0.2c-37.6,8-5.7,17.3-6.3,30
			c-0.2,3.8,10.9,4.7,10.6,8.8c0,0.3,0,0.6-0.3,0.8c-6.5,4.8-33.2-23.4-40.8-14.9c-5.4,6.1,24.9,14.1,23,19.3
			c-1.5,3.9-6.8-4.3-14.6-4.9c-2.9-0.2-4.6,1.4-6.6,2.7c-8.9,5.7,21.1,6.5,10.4,10.6c-9.3,3.5-18.1-11.3-24.8-7.7
			c-8.9,4.7,14.8,5.5,5.1,8.8c-8.7,3-35.6-13.6-47.2-10.3c-32.9,9.4-81.8-12.7-82,2.8c-0.2,22.1,114.2,1.4,126.7,22.4
			c6.1,10.4,4.3,19.8-7.7,26c-7.1,3.7-2.6,0.4-8.8,3.6c-27.2,14.2-71.2,22.9-110.4,33.4c-19.3,5.2-47.2,5.5-38.6,12.9
			c41.1,35.5,121-63.5,183.9-33.8c7.9,3.7,10,12.2,8,18.5c-0.5,1.7-7.1-0.7-8.1,1.4c-5.1,9.7-48.2,11.8-43.5,22.8
			c0.6,1.4,6.2,2.2,3.1,2.7c-10.7,1.8-19.8,12.2-31.1,13.8c-31.5,4.4-12.1,34.8-44.6,45.1c-2,0.6-9.4,5.1-8.3,8.4
			c1.2,3.5,12.6,5.8,18.3,3.4c19.3-8,24.4-23.2,41.2-34.8c14.3-9.9,13.6-24.2,31.9-34.9c19.4-11.3,43.3-23.4,69.2-31.4
			c7.6-2.4,23.8-11.6,34.2-8.4c10.1,3.1,14,22.2,26,21c10.9-1,7.9-19.7,16.8-23c18.5-7,48.3-0.1,59.6,4.6
			C46,162,34.7,210.5,75.1,196c22.8-8.2-66.1-32.6,6.7-59.6c26.5-9.8,26.2-38.2,55.6-50.6c7.4-3.1,21.6-3,31.6-1.1
			c19.9,3.9,55,14.9,59.3,0.3c2.6-8.9-39.2-4.3-57.4-7.9c-5.6-1.1-12.2-2.2-14.2-4.2c-3.3-3.2-11.5-6.1-5.1-8.8
			c5.7-2.4,10.5-3.6,17.1-4.4c25.2-3.1,63.1-3.4,86.6-6.4c2.2-0.3,2.4-2.7,4.7-2.9c9.8-1.1,18.1,1,28,3.4
			c36.2,8.8,90.4,11.4,123.2,3.1c-74.4-3.2-164.8-18.7-237.7-15.2c-12.5,0.6-28.7,10.1-40.6,7.3c-19.2-4.6-4.3-21.2-16.7-34.8
			C101.3-2,70.6-4,53-9C40.2-12.7,16.9-29.5,0.6-7.1z M-127.5,86.4c1.9,1.5-0.7,2.5-2.9,3.2c-1.4,0.4-2.6-0.5-3.4-1.6
			C-134.8,86.6-129.6,84.8-127.5,86.4z M-106.5,60c0.7,1.4-0.2,3.5-2.3,4.2c-3.4,1.2-6.3-1.7-7.3-3.4
			C-117.3,58.5-107.6,57.8-106.5,60z M-95.9,47.1c0.3,1.4-1.7,3-3.8,3.7c-3.8,1.1-11-2.3-12.1-4.7C-114,40.9-96.7,43.2-95.9,47.1z
			 M-76.4,24.7c2.7,2-4.9,3.2-6.3,1.6C-83.8,24.9-78.5,23.1-76.4,24.7z"/>
		<path fill="#F9B016" d="M300.7-23.6c0-0.1-0.4,0-0.4-0.1C300.4-23.7,300.7-23.5,300.7-23.6z"/>
	</g>
	<path opacity="0.8" clip-path="url(#SVGID_2_)" fill-rule="evenodd" clip-rule="evenodd" fill="#BA1D75" d="M166,93.7
		c11,0.8,17.4,5.8,24.9,5.5c18.6-0.8,21.5-4,35.3-1.1c18,3.9,9.4-6.8,21.4-0.6c6.3,3.3,11.9,3,15.7-0.3c3.6-3.1-15.7-1.2-21.4-6.2
		c-2-1.7-3.7-5.2-0.7-7c5.8-3.5,16.1,2.7,22.5,2.4c3.9-0.2,10.5-4.5,15.7-2.2c24.5,10.8,8-3.6,5-8.2c-1.7-2.5,8.8-0.7,2.6-4
		c-2.6-1.4-2.5-6.4-2.2-7.8c0.8-3.7,6.4-6.6,11.1-8.1c17.7-5.6,31.3,7.1,36.4,19.4c0.9,2.2,4.2-1.5,11.8,1.4
		c9.5,3.6,3.6,23.6,14.5,20c17.2-5.6,26.8-1.2,24.9,9.1c-0.5,2.7-6.1,3.9-5.4,6.5c2.5,9.2-4.9,11.3-2.1,15.7
		c4.2,6.6,12.4,8.9,11.3,16.7c-1.2,8.2,20.3,8.4,29.9,11.8c5.4,1.9,6.1,4.3,9.4,8c2.4,2.7,11.5,4.5,8.1,6.9
		c-4.4,3.1-10.2,0.8-16.2-1.6c-4.6-1.8-3.3,1.4-11.1-0.3c-9.4-2-19.9-10-24.8-12.6c-3.2-1.7-10.2-4.2-22.9,2.8
		c-6.5,3.6,1.1,6.6-1.3,11.9c-1.9,4.2,11.6,5.3,12.8,11.1c0.3,1.5,0.6,3.1-0.2,4.6c-2.4,4.7-11.7,4.4-14.3,1.2
		c-1.5-1.8,0.4-2.7-1.8-3.8c-1.4-0.7-2.2,0.6-4.5,0.5c-4.2-0.1-2.1-4.4-5.5-8.2c-2.5-2.8-4.5-5-9.1-4.8c-3.3,0.1-3.3-5.2-8.1-5.5
		c-17.3-1.3-15.2,8.9-26.7,15.9c-4.1,2.5-17.3-3.9-21.6-1.4c-12.9,7.3-35.7,6-46.2-5.8c-13.8-15.5,4.2-22.6,35.7-19.9
		c2.3,0.2,7.3-0.2,9-2.9c1.5-2.3,7.6-4.7,0.3-8c-3-1.4-10,0.3-12.8-0.3c-6.3-1.3-9.4-5.1-14.3-4.7c-11.4,1-29.9,10.6-27.1,4.9
		c1.5-3.1-1.8-3.4-5-4c-8.7-1.6-10.2,2.7-18.1,1.9c-4.2-0.4-14.2,1.8-16.1-2.5c-1.6-3.7,14.1-9.7,20.4-7.9c7.1,2,11.7,2.5,21.7,1.5
		c13-1.3,21.8-1.7,27.6-7.2c3.8-3.7-9.1-8.3-23.3-6.7c-7.9,0.9,0.2-3.5-7.2-3.6c-2.6,0-3.2,3.3-9,1.6c-1.5-0.5-4.4-1.5-5.3-1.8
		c-6.8-2.6-12.1-0.1-22.2,0.8c-2.7,0.2-5.2-0.2-7.6-0.9c-4.5-1.8-7.5-4.3-11.6-5.8c-8.2-3.1-14.2,5.3-19.8,0.3
		c-2.8-2.5,8-7.4,4.5-9.9C146.2,95.8,155.1,92.9,166,93.7z M365.7,122.7c2,0.7,2.7-1.9,1.7-2.5C366,119.3,364.4,122.3,365.7,122.7z
		 M404.3,161c0.6-0.5-0.8-1.3-1.7-1.4C399.8,159.2,401.8,163,404.3,161z"/>
	<path opacity="0.8" clip-path="url(#SVGID_2_)" fill-rule="evenodd" clip-rule="evenodd" fill="#EE5A26" d="M875.3,234
		c5.9-4.3,9.8,0.4,12.8,3.9c5.1,6-21.9,20-28.2,12.3C854,243.2,867.4,239.8,875.3,234z"/>
	<path opacity="0.8" clip-path="url(#SVGID_2_)" fill-rule="evenodd" clip-rule="evenodd" fill="#EE5A26" d="M513.6,249.3
		c10.2-4.4,7.3,17.9-6.1,10.1C499.8,255,508.5,251.5,513.6,249.3z"/>
	<path opacity="0.8" clip-path="url(#SVGID_2_)" fill-rule="evenodd" clip-rule="evenodd" fill="#EE5A26" d="M469.8,271.9
		c-2.3,3.5-16.8,3.7-19.1,0.2c-1.6-2.5-2.4-5.7-0.2-8.1C456.4,257.7,475.4,263.4,469.8,271.9z"/>
	<path opacity="0.8" clip-path="url(#SVGID_2_)" fill-rule="evenodd" clip-rule="evenodd" fill="#EE5A26" d="M537.6,311.6
		c4.2-2.4,11.9,4.9,6.6,8c-3.1,1.8-9.3,1.7-12.7,0.1C524.3,316.3,532.9,314.3,537.6,311.6z"/>
	<path opacity="0.8" clip-path="url(#SVGID_2_)" fill-rule="evenodd" clip-rule="evenodd" fill="#EE5A26" d="M582.9,341.4
		c-1.8,1.6-3.4,2.7-6.2,4.1c-7.7,3.8-18-8.6-13-12C571.1,328.5,590.7,334.6,582.9,341.4z"/>
	<path opacity="0.8" clip-path="url(#SVGID_2_)" fill-rule="evenodd" clip-rule="evenodd" fill="#EE5A26" d="M431.6,352.9
		c4.9,3.6,3.9,8.5,7.1,12c3.2,3.6,12.7-3,18.1-4.2c15.9-3.4-10.9,26.6-21.8,28.4C416.2,392.3,415.3,340.8,431.6,352.9z"/>
	<path opacity="0.8" clip-path="url(#SVGID_2_)" fill-rule="evenodd" clip-rule="evenodd" fill="#EE5A26" d="M498.3,382.5
		c3,1.9,3,6,0.2,8.1c-5.5,4-16.6-1.2-12.9-5.9C487.4,382.5,494.4,380,498.3,382.5z"/>
	<path opacity="0.8" clip-path="url(#SVGID_2_)" fill-rule="evenodd" clip-rule="evenodd" fill="#EE5A26" d="M409.7,393.4
		c16.2,13.2-21.3,24.2-31.4,14.4C364.6,394.4,399.1,384.8,409.7,393.4z"/>
	<path opacity="0.8" clip-path="url(#SVGID_2_)" fill-rule="evenodd" clip-rule="evenodd" fill="#EE5A26" d="M1198.4,428.8
		c-2,3.1-4.6,6.6-9.3,8.1C1138.9,453.2,1218,397.9,1198.4,428.8z"/>
	<path opacity="0.8" clip-path="url(#SVGID_2_)" fill-rule="evenodd" clip-rule="evenodd" fill="#EE5A26" d="M2009.4-66.6
		c12.3,14.3-39.5,29.4-50.3,16.6C1947.2-64.1,1998-79.8,2009.4-66.6z"/>
	<path opacity="0.8" clip-path="url(#SVGID_2_)" fill-rule="evenodd" clip-rule="evenodd" fill="#EE5A26" d="M2135.1-1.2
		c5.9,12-13.7,22-31.3,16.4c-4.7-1.5-7.2-5-9.8-8C2083.8-4.6,2129.1-13.3,2135.1-1.2z"/>
	<g clip-path="url(#SVGID_2_)">
		<path opacity="0.8" fill-rule="evenodd" clip-rule="evenodd" fill="#EE5A26" d="M-11.8,11.8c-18.4-3.3-21.9-9.8-22-19
			C-34-22.3,8-25.4,18-7.7C22-0.6-0.3,13.9-11.8,11.8z"/>
		<path opacity="0.8" fill-rule="evenodd" clip-rule="evenodd" fill="#EE5A26" d="M-106.8-24.3c-19.9-4.2-19.2-14.4-8.7-20.8
			C-85.6-63.2-66.1-15.8-106.8-24.3z"/>
		<path opacity="0.8" fill-rule="evenodd" clip-rule="evenodd" fill="#EE5A26" d="M48.6,19.9c-23.8,1.8,19.1-26.4,17-11.2
			C64.9,13.9,56.7,19.3,48.6,19.9z"/>
		<path opacity="0.8" fill-rule="evenodd" clip-rule="evenodd" fill="#EE5A26" d="M64.9-24.2c3.6-6.6,9.9-7.4,21.4-8.5
			c14.2-1.3,19.5,10.8,17.6,16.3C98.9-2.1,58.4-12.2,64.9-24.2z"/>
		<path opacity="0.8" fill-rule="evenodd" clip-rule="evenodd" fill="#EE5A26" d="M81.2-62.8c18-29.3,70.5-2.4,52.2,15.9
			C116.4-30,72-47.7,81.2-62.8z"/>
		<path opacity="0.8" fill-rule="evenodd" clip-rule="evenodd" fill="#EE5A26" d="M195.6-81.3c8.7,4.3,8.2,10.6,4.2,14.5
			C179.2-46.7,164.5-96.7,195.6-81.3z"/>
	</g>
	<path opacity="0.8" clip-path="url(#SVGID_2_)" fill-rule="evenodd" clip-rule="evenodd" fill="#EC476A" d="M992.3,134
		c-6.1,6,9.2,25,9.6,31.7c0.5,9.6-16.2,9.7-15.4,18.3c1.2,12.2,12.1,3.6,29.6,7.4c14.1,3,21.9,8,23.3,9.4
		c13.5,13-14.7,12.7-32.1,15.4c-19.7,3-1.9,18.4-5.4,32.3c-3.7,14.4-5.3,24.6,9.4,25.1c17.4,0.6,30.2,0.2,39.2,10.7
		c14.2,16.5-8.3,29.3-31,28.5c-11.8-0.4-37.2,12.9-56.4,11c-10.7-1-14.7-15.2-29.4-17.9c-19.5-3.6-7.8,27.1-44.2,41.5
		c-6.6,2.6-10.7,15.2-24.3,10.8c-19.7-6.4-18.9,9.5-31.2,8.8c-15.7-0.8-5.8,14.5-19,14.1c-31.4-1.1-48.8-24-92.9-27.4
		c-67.5-5.3-108.4-46.1-151.5-79.3c-5.2-4-23.2-3.1-26.8-7.8c-8.6-11.3,4.3-18.4,3.5-30.3c-0.4-5.9-19.3-3-22.5-7.9
		c-7.7-11.7,6-17.5,11.8-30.4c2.9-6.5,23.7-4.3,28.3-10.3c8.3-10.9-10.7-16.9,2.5-24.2c12-6.6,21.5-12.5,31.1-25.2
		c16.2-21.4,78.6-10.9,92-34.3c3-5.3-3.5-12.8,0.6-20.2c6.6-12,28.9-20,40.6-12.2c4.8,3.2,11.9,9.7,15.8,14.2
		c12.9,14.6,34.1,2.2,34.3-9.4c0.4-19.6,9.8-25,30.3-22.7c26.1,2.9,32.2,32,10.6,36.2c-8.1,1.6-12.2,9.4-7.6,13.9
		c9.3,9,52.4,14.2,64.7-3.6c5.6-8.1-2.8-8.2-6.4-14.1c-7.4-11.9,21.3-27.6,28.9-18.6c3.8,4.4,21.8-3.7,31,7
		c3.8,4.5,4.2,12.7,11.6,15.7C966.3,99,1004.4,121.8,992.3,134z"/>
	<path opacity="0.8" clip-path="url(#SVGID_2_)" fill-rule="evenodd" clip-rule="evenodd" fill="#EE5A26" d="M955,358.3
		c9.9,2,20.1-11.9,6-12.2C958.3,349.8,952.3,351.4,955,358.3z"/>
	<path opacity="0.8" clip-path="url(#SVGID_2_)" fill-rule="evenodd" clip-rule="evenodd" fill="#EE5A26" d="M305.4,301.5
		c5.9,15.8-57.8,17.1-60.2,4.6C242.6,292.7,300.5,288.1,305.4,301.5z"/>
	<path opacity="0.8" clip-path="url(#SVGID_2_)" fill-rule="evenodd" clip-rule="evenodd" fill="#EE5A26" d="M1121.4,401.2
		c25.3,24-51.1,44.7-71.5,24.8C1025.6,402.3,1103.3,384,1121.4,401.2z"/>
	<path opacity="0.8" clip-path="url(#SVGID_2_)" fill-rule="evenodd" clip-rule="evenodd" fill="#EE5A26" d="M678.3-16.4
		c31.8,27.8-39.5,64.1-77.1,50.5C564.5,20.8,646.3-44.4,678.3-16.4z"/>
	<g opacity="0.8" clip-path="url(#SVGID_2_)">
		<path fill-rule="evenodd" clip-rule="evenodd" fill="#EE584B" d="M1817.3,357.4c1.1,0.2,2.7-1.6,3.9-1.5
			c23.7,2.5,75.5,35.5,58.6,45.9c-15.5,9.5-61.9-19.4-70.6-31.6c-2.9-4-3.8-16.5,3.4-17.5C1814.6,352.5,1815,357.1,1817.3,357.4z"/>
		<path fill-rule="evenodd" clip-rule="evenodd" fill="#EE584B" d="M1479.4,357c-6.8,2.3-22.4-8-22.7-12.7c-0.2-3.4,10-11,15.4-10.1
			C1481.5,335.7,1487.9,354.1,1479.4,357z"/>
		<path fill-rule="evenodd" clip-rule="evenodd" fill="#EE584B" d="M1181.4,311.6c0-5.7,21.2-16.8,29.8-14.4
			c11,3.1,11.7,26,0.8,29.3C1203.1,329.1,1181.3,317.5,1181.4,311.6z"/>
		<path fill-rule="evenodd" clip-rule="evenodd" fill="#EE584B" d="M1793.3,96.1c-6.7-2.7-7.3-16.1-1.3-19.4
			c6.3-3.4,27.2-0.5,33.6,2.8c2.7,1.4,5.7,6.4,4,8.4C1825.3,93.1,1801.3,99.3,1793.3,96.1z"/>
		<path fill-rule="evenodd" clip-rule="evenodd" fill="#EE584B" d="M1429.3,31.9c-3.7,5.4-12-6.4-21.4-9.5
			c-37.2-12.2-49.6-43.6-70.7-64.7c-7.9-7.9-34.6-21.8-19.6-23.1C1379.2-70.7,1454.3-4.8,1429.3,31.9z"/>
		<path fill-rule="evenodd" clip-rule="evenodd" fill="#EE584B" d="M1745.5-119.9c3.7-2.2,8,1,12.1,2.5c20.8,7.8-4.4,46.4-28.5,40.6
			c-2.6-0.6-2.9-1.6-4.9-2.4C1704.4-87.3,1728.3-109.8,1745.5-119.9z"/>
		<path fill-rule="evenodd" clip-rule="evenodd" fill="#EE584B" d="M1501.1,8.2c-15.8,8.2-13.3-21.8-24.4-34.7
			c-6.5-7.5-14.4-28.6,2.3-25C1511.1-44.6,1533.2-8.4,1501.1,8.2z"/>
		<path fill-rule="evenodd" clip-rule="evenodd" fill="#EE584B" d="M1269.4-106.9c-2.2,2.3-9-2.5-9.3-4.7
			C1259.7-114.8,1271.3-108.8,1269.4-106.9z"/>
		<path fill-rule="evenodd" clip-rule="evenodd" fill="#EE584B" d="M1168.9-100c-12.5,5.7-41.5-22.9-29.1-26.1
			C1161.1-131.5,1182.9-106.4,1168.9-100z"/>
		<path fill-rule="evenodd" clip-rule="evenodd" fill="#EE584B" d="M1126,183.1c4.6,5.2,2.3,12.9-6.3,16.6
			c-4.2,1.7-45.5,10.8-34.3,21.5c11.8,11.2,31.2,16.2,42.6,13.7c5-1.1,7.3-10.5,12.7-10.5c9,0,19.3,12.3,20.8,17.7
			c1.7,6.3-6.1,21.6-10.6,21.6c-8-0.1-3.5-12.4-11.4-13.2c-12.4-1.3-34.6,14.4-36.2,22c-1.2,5.7,9.1,14.9,17.6,17.7
			c11.6,3.8,35.5,1.2,45.6-4.6c9.1-5.2,14.9-22,25-23.6c8.7-1.3,31.7-4.2,36,0.5c2.6,2.9-13.6,8.4-11.6,11.5c2.2,3.4,18,2.1,23.1,4
			c4.7,1.8,5.8,26.1,11.2,26.8c31.7,4.4,17.3-28.1,24.3-29c2.5-0.3,7.9,0.9,9.3,2.1c14.4,12,19.9,47.4,4.9,59.1
			c-3.6,2.8-19.5,0.1-22.8,3c-6.5,5.7,6.5,20.3,7,27.1c0.7,9.7-20.5,37.2-4.6,38.6c16,1.4,2.8-31.4,14.6-38.2
			c3.9-2.2,18,0.3,21.2-2.4c6.9-5.6-6.1-20.8-5.3-27.8c1.7-14.4,2.9-49.4,24.3-56c2.2-0.7,8.1,0.8,9.3,2.1
			c8.9,9.2-11.6,31.6-10.3,42.2c0.7,5.6,3.4,18,10.6,21.5c7.7,3.8,32.5,6.1,39.8,1.9c8.5-4.8,5.7-22.3-0.9-28
			c-2.4-2.1-13.6-1.7-15.9-3.9c-7.8-7.7-8.2-31.7,5-36c9.1-2.9,23.8,9.5,26.7,15.4c2.8,5.7-15.9,13.4-8.9,17.6
			c8.5,5.1,41.6-6.2,42.7-13.4c0.5-3.5-8.6-8.6-9.2-12.1c-0.5-3.1-0.2-4.6,4.5-6c11.9-3.5,27.3,2.4,40.4,3.1
			c14,0.7,22.1,26.8,35.8,30.3c11.2,2.9,74.3-12.9,76.8-10.7c17.2,14.9-9.6,24.3,5.4,37c12.6,10.7,16.4,19.8,16.7,32.8
			c0.3,12,2.3,23.9,2.3,35.9c0,10.8,2.4,21.7,1.8,32.3c-0.6,10-17.3,48.9-21.3,58.5c-6.6,16.1,51.4,0.1,54.7-8
			c3.9-9.8-6.8-51.8-8.6-61.6c-1.9-10.1,16.1-26.4,15-36.6c-1.1-10.7-19.5-14.5-20.5-25.3c-1.9-20.5-24.7-50.8-6.6-66
			c14.1-12,53.1-4.1,75.6,1.5c29.9,7.5,87.4,57.7,108.2,42.7c23.8-17.3-92.9-43-102.7-64.6c-1.1-2.5,1.3-7.9,3.8-9.9
			c4.3-3.7,18.1-8.6,25.4-9.6c21.1-2.9,65.3,2.2,86.1,5.6c16.7,2.8,47.5,12.6,62.9,17.3c15.7,4.8,45.9,15.8,61.6,20.6
			c9,2.8,29.9,5.7,36.6,10.2c11.3,7.6,27,9.1,37.6,17.1c1.4,1,6.8,1.5,7.6,2.8c1.3,2.2-5.5,6.6-4.9,8.9c3.2,12.2,28,39.5,48.5,39.8
			c34.7,0.5,70-22.3,72.3-43.1c1.6-14.7-29.1-44.5-51.9-49.8c-11.2-2.6-34.3,7.7-46.3,7.6c-15.9-0.1-45.1-10.3-61-10.9
			c-3.8-0.2-11.3,1.7-15,1.4c-33.8-2.5-95-22.6-125.3-31.9c-5-1.5-13.8-5.8-19.1-7c-5.6-1.3-18.3-0.8-23.7-2.4
			c-3.3-0.9-7.9-4.5-10.8-5.8c-7.2-3.2-26.2-6.4-30.5-11.1c-5.1-5.7-0.9-19.6,1.2-26c2.5-7.4,6.5-25.1,18-28.1
			c5.6-1.4,17.6,7.9,22.5,5.7c8.7-4,4.5-24.2-5.9-26.1c-8.9-1.6-15.9,17.2-25.2,16.6c-11.9-0.8-19.2-18.4-23.7-25.1
			c-3.2-4.7-11.2-14.7-8.5-19.5c3.4-6,32.4-9.2,33.4-15.5c0.3-1.8-5-5.2-8-5.5c-9.4-0.8-22.9,13.3-32.2,12.2
			c-10.8-1.3-17.7-16.8-25-21.7c-9.3-6.3-38.7-14.1-42.1-22.3c-1.6-3.7-0.8-8.1,1.6-12.9c-4.2,5.2-9.8,8.5-17.5,9
			c-10.9,0.7-17.7-16.8-21.6-23c-2.1-3.4-3.8-10.8-3.2-14.4c1.6-8.9,9.9-18.9,12.5-28.8c3.8-14.5,16.4-30.1,8.1-35.8
			c32.3-27.4,68.2-90.8,14.3-94.7c-59.9-4.3-29.5,70.2-40.6,106.2c-8.7,28.5,8.2,78.6-26.2,83.7c-29.3,4.4-33.3-59.3-75.4-56.5
			c-22.5,1.5,20.1,28.7-6.5,43.6c-6.2,3.5,4.3,14-5.7,14.9c-23.4,2.2-32.8-37.3-46.8-29.1c-8.5,5,34.1,29.3,14.4,34.3
			c-12.3,3.1-19.9,7.2-38.1,8.8c-10.7,0.9-21.7,2-31.5-0.8c-2.4-0.7-4.5-2.5-4.2-4.1c2.9-15.2-2.8-33.4-25-21.7
			c-15.5,8.1,18.5,19.1-3.4,24c-30.8,6.8-55-21.8-95-5.1c-12.4,5.2-29.6-10.8-38.7-0.9c-11.2,12.2-25.4,11.8-44,16.7
			c-15.1,4-21.2,14.1-36.6,23.8c-7.1,4.5,8.6,15,0.2,18.4c-25,10-3.4,10.8-1.5,19c3,12.6-98.2,10.3-102.6,21.7
			C1033,179.6,1121.9,178.4,1126,183.1z"/>
		<path fill-rule="evenodd" clip-rule="evenodd" fill="#EE584B" d="M1649.5,65.9c1.7-2.1,3.2-4.6,4.5-7.3
			C1652.1,61.2,1650.6,63.6,1649.5,65.9z"/>
		<path fill-rule="evenodd" clip-rule="evenodd" fill="#EE584B" d="M967.6,209.1c23-1.3,51.3-11.4,76.2-18.5
			c20.6-5.8,81.7-11.1,81.2-17c-0.1-1.2-3.3-1.1-5.1-1.2c-52.9-2.6-40.3,0.4-81.4,12.1c-28.7,8.2-84.4-0.4-87.9,21.6
			C949.9,211.1,962.3,209.4,967.6,209.1z"/>
		<path fill-rule="evenodd" clip-rule="evenodd" fill="#EE584B" d="M1708.3-37.7c-50.8-11.6-38,62.5-54.3,96.4
			C1678.8,24.4,1759.5-26,1708.3-37.7z"/>
		<path fill-rule="evenodd" clip-rule="evenodd" fill="#F8D105" d="M1650.8,219c-21.9-9.4-54.1-41.9-48.7-57.9
			c6.9-20.4,72.2-48.5,105.6-53.9c36.7-6,123.3-0.3,149.6,16.1c76.6,47.9-17.3,107.1-35.1,110.5C1780.9,241.8,1686,234.2,1650.8,219
			z"/>
		<path fill-rule="evenodd" clip-rule="evenodd" fill="#EE584B" d="M1316.4-66.3c-8.6,5.4-40.4-18.5-30.6-25.3
			C1296.6-99.1,1327.3-73.2,1316.4-66.3z"/>
		<path fill-rule="evenodd" clip-rule="evenodd" fill="#EE584B" d="M1072.8,25.3c3.9-15.2,80.1-19,100.9-10.1
			c15.2,6.5,27.6,37.8,12.4,44.5C1160.5,71.1,1068,44.2,1072.8,25.3z"/>
	</g>
	<g opacity="0.8" clip-path="url(#SVGID_2_)">
		<path fill-rule="evenodd" clip-rule="evenodd" fill="#F5931D" d="M1008.8,39.8c1.7,0.1,2.9,1.1,3.1,2.3c0.5,4.2-2.3,5.2-6.1,7.2
			c-5,2.6-12.3-0.4-13.2-2.9C990.7,41.3,1001.9,39.2,1008.8,39.8z"/>
		<path fill-rule="evenodd" clip-rule="evenodd" fill="#F5931D" d="M900.9,183.6c4.8,0.2,11.1,1.2,12.9,5.1c1,2.1-3-1.3,1.4,2.2
			c8,6.5-32.5,4.1-26.9-2.6C890.6,185.6,896.1,183.4,900.9,183.6z"/>
		<path fill-rule="evenodd" clip-rule="evenodd" fill="#F5931D" d="M1438.1,194.1c6.6-5,16.6,5.4,10.8,8.1c-4.1,1.9-3.4,2.1-6.4,3.4
			C1436.6,208,1433.6,197.5,1438.1,194.1z"/>
		<path fill-rule="evenodd" clip-rule="evenodd" fill="#F5931D" d="M1023.6,320c1.1,4.2-23.2,0.7-18.3-3.2
			C1010.1,313,1022.3,315.5,1023.6,320z"/>
		<path fill-rule="evenodd" clip-rule="evenodd" fill="#F5931D" d="M942.9,338.1c8.1-4.1,25.7,6.4,17.4,9.6
			c-4.4,1.7-8.7,0.5-13.5-0.8C942.6,345.9,938,340.6,942.9,338.1z"/>
		<path fill-rule="evenodd" clip-rule="evenodd" fill="#F5931D" d="M1423.8,477.8c11.7-1.6,7.4,8.5,11.5,15.8
			c3.8,6.9-2.8,21.1-20.6,13.9C1400.5,501.7,1412.1,479.3,1423.8,477.8z M1422.5,500.3c-1-0.6-4.7,0.2-3.5,0.9
			C1420,501.8,1423.7,501,1422.5,500.3z"/>
		<path fill-rule="evenodd" clip-rule="evenodd" fill="#F5931D" d="M930.6,140c3.6-0.2-1.6,5.1-4.3,6.2c-4,1.8-7.1,1.7-10.4,1.6
			C909.2,147.5,925,140.3,930.6,140z"/>
		<path fill-rule="evenodd" clip-rule="evenodd" fill="#F5931D" d="M1240.4,501.8c-6.9,4.8-25.9,3.7-26.9-2.6
			c-1.3-8.8,0.5-18.3,11.8-24.1C1234.9,470.1,1248.9,495.8,1240.4,501.8z"/>
		<path fill="#F5931D" d="M1259.4,95.3c0.5,0.9,0.8,1.6,1.2,2.4c-1-16.4-9.7-32.5-19.6-48.9C1242.3,65.7,1252.3,82.1,1259.4,95.3z"
			/>
		<path fill="#F5931D" d="M1242.1,35c0.7-2.8,5.5-3.9,6.1-7.2c2.8-16.5,6-39.6-7.1-49c-1.8-1.3-7-3.8-7.6-5.7
			c-1.1-3.2,13.8-13.7,0.9-19.2c-3.5-1.5-3.4,7.7-7.6,5.9c-10.7-4.7-17.2,9.8-16.4,20.6c1.7,24.1,17.2,46.5,30.6,68.5
			C1240.6,44.2,1240.9,39.6,1242.1,35z"/>
		<path fill="#F5931D" d="M1018.7,366.3c-3.4,3.8-2.4,7,3.6,11c6.6,4.4,18.9-0.8,27.7-3.8c7.5-2.5,10.7-7.9,16.9-12
			c11.7-7.6,10.7-13.8,21.6-21.4c4.5-3.2,9.3-5.8,14.1-8.2C1071.1,341.3,1033.1,350.2,1018.7,366.3z"/>
		<path fill="#F5931D" d="M1161,381c6.1-3.5,11.7-7.1,16.4-10.8C1170,372.5,1165.1,376.5,1161,381z"/>
		<path fill="#F5931D" d="M1493.9,335.2c-3.1-5-11.1-0.6-14.9-3c-6-3.9,8.4,1.9,5.5-2.9c-1.1-1.9,1.4-2.3,0.6-4.3
			c-0.8-1.8-5,1.4-5.1-0.3c-0.3-14.7-39.9-15-65.9-28.6c-11.2-5.8,4.7-11-6.3-17.6c-6.6-4-11.6,7.1-14.3,6.7
			c-1.6-0.2-5.4,0.1-6.9,0.6c-2.6,1-0.5,3.2-4.1,5.2c-2.1,1.1-8.9,1.6-9.2,2.4c-0.3,1.2,6.2,2.9,6.5,5c0.9,9.6-15.2,20.7-30.2,22
			c-15.8,1.4,15.8-29.3,15.7-30.1c1.2-1,2.5-2,4.2-3c0.2-0.1,0.3-0.2,0.5-0.3c8.2-3.2,17.2-5.8,14.2-8.9c-4.1-4.1,9.5-5.3,8.6-12.5
			c-0.1-0.8-1.6-6-0.8-6.9c1.8-1.9,11.6,4.8,12.8,4.4c3.8-1.3,1.6-4.3,1.6-5.5c-0.2-3.9,9.9-7.8,6.2-13.4c-1.8-2.8-6,0.8-6.6-1.4
			c-2.8-10.3,15.5-17.9,17.6-29.2c0.4-2-1.7-3.5-4.3-5.6c-5.2-4.2-12,4.2-18.9,1.1c-16.2-7.2-0.3-23.2-9-34c-7.2-8.9-29-9.3-31.6-18
			c-6.8-23,49.5-34.4,58-51.7c2.2-4.4,6.6-10.8,1.4-10.7c-21.7,0.5-19.9,28.7-40.2,33.3c-2.1,0.5-5-1.3-6.7-0.4
			c-33.8,16.3-56.2,26.4-63.9,7.1c-8.2-20.5,5.2-44.4,20.8-65.7c3.1-4.2,2.2-9-0.1-11.9c-5.6-7-10.3-8-17.5-8.6
			c-12.8-1-4.7,17.7-7,26.6c-3.6,13.8,4.2,47.6-17.5,54c-15.5,4.6-24.8-4.3-25.7-11.2c-1.2-9,2.4-12.5-0.9-20.4
			c0.7,11.4-2.3,22.9-11.3,34.8c-18.8,24.9-85.7,10.2-114.4-21.6c-16.9-18.7-34.5-52-65.4-44.7c-1.9,0.4-3,0.2-5.2,0.8
			c-34.4,9.3,13,35.3,37.9,46.4c30.2,13.5,72.6,27.4,76.4,50.8c6.2,37.7-86.3-1.9-117.5-11c-32.4-9.5-62.2-21.2-81-42.4
			c-7.5-8.4-28.9-10.9-33-20.2c-0.8-1.7-1.6-7.7-3.8-8.8c-13.5-6.8-72.2,1.2-30.1,21c2,1,7.9,1.2,11.4,3.8
			c17.8,13.2,30.8,17.8,59.2,27.1c10.3,3.4,20.8,7.2,34.3,10.6c42.7,10.6,83.6,23.9,116.4,44.4c6.1,3.8,12,8.1,13.4,13.7
			c3.9,15.2-18.8,22-13.7,38.1c1.5,4.7,10.4,6.7,10.2,12.5c-0.3,7.9-17.6,3.8-17.1,13c0.5,8.2,32.4,2,25.7,11.2
			c-16.8,22.9-116.1,21-100.9,41.7c14.8,20,85.3-45.2,96.6-22.5c2.3,4.6,2.2,8.7,0.3,12.3c13.2-10.9,26.5-26.4,42.6-15.2
			c1.7,1.1,2.8,1.9,2.9,3.4c3.4,30.6-84.8,41.4-57.8,62.5c11.5,8.9,46.4-30.1,52.8-13.2c3.2,8.4-2.5,16.5-12.4,24.3
			c0.2-0.1,0.4-0.1,0.6-0.2c5.3-1.6,5.4-3.1,9-3.8c3.7-0.7,13.1-2,13.3,1.9c0.4,6-14.9,21.8-2.6,19.3c15.1-3.1,13.9-31.4,28.5-22.1
			c1.7,1.1,2.9,1.9,2.9,3.4c0.5,9.8-1.3,26.3-1.6,36.6c-0.3,9.8-18.5,15.1-18.7,24.8c-0.1,7.5,8.6,25.8,18.3,28
			c38.4,8.9,25.9-43.7,31.1-66.2c3-12.9,20.7-34.5,6.4-47.1c-3-2.7-5.8-3.7-4.3-5.6c3.4-4.5,1.1-9.8,11.3-8
			c20.7,3.6,16.5,25.5,25.6,37.1c7.2,9.2,13.1,19,18,29.1c1.3-14.6,1.6-22.9-8.3-38.2c-1.9-3-12.1-12.2-9.5-17.8
			c0.6-1.2,5.3,2.3,5.1,0.3c-0.7-6.8,5.5-31.3,16.8-23.8c6.7,4.4,10.3,3.5,10.8,8.2c2.8,28.7,27,51.5,33.7,77.4
			c3,11.6,8.3,19.1,18.6,25.9c3.6,2.4,2.6,8.8,9.1,8.1c10-1.1-2.7-12.4,7.4-16.8c6-2.7,14.7-0.7,14.2-4.6c-0.5-4.1-2.5-6.3-5.6-8.9
			c-5.9-5.1-11.4,6.2-17.7,5.5c-20.6-2.4-32.7-31.1-18.8-36.7c29.9-12,80,15.8,100.1,1.4c8.9-6.4,17.8-14.9,22-24.6
			C1495.9,346.4,1497.8,341.7,1493.9,335.2z"/>
		<path fill="#F5931D" d="M1102.6,331.9c22.3-6.6,41.3-13.6,46.6-23.5c-2.6,2.1-5.2,4.1-7.8,5.6
			C1129.5,321,1115.8,325.4,1102.6,331.9z"/>
		<path fill="#F5931D" d="M1324.5,467.5c-6.3,24-13.6,53.9,8.7,73.9c3.8,3.3,9,9.1,14.3,7.3c2.6-0.9-0.2-1.6,0.4-3.2
			c2.4-5.7,8.4-15,7.7-19c-1.7-8.8-2.3-20.9-10.9-20c-2.5,0.2-0.6,5.2-2.3,4.2c-3.3-2,3.3-5.4,2.7-7.4c-2-6.9-0.2-7.5-5-13.2
			c-3.7-4.4-7.7-10-6.7-11.7c-0.9,0-1.7-0.1-1.8-0.7c-0.8-4.3,1.9-6.9,0.2-14c-1.1-4.5-3.6-11.8-4.6-16.4c-1.5-7-4-7.4-6.7-11.7
			c0.9,9.4,1.3,18.7,1.2,27.6C1321.6,465.2,1325.2,464.5,1324.5,467.5z"/>
		<path fill="#F5931D" d="M1315.2,398c-0.4-0.5-1-0.6-1.6-0.5c1.5,5.5,2.8,10.9,3.8,16.4C1317.8,407.7,1318,401.9,1315.2,398z"/>
		<path fill="#F5931D" d="M1099.1,437.8c19.2,10,29.6-25.1,46-38.4c6.4-5.2,10.4-12.3,15.9-18.4
			C1123.7,402.6,1067.9,421.5,1099.1,437.8z"/>
		<path fill="#F5931D" d="M1320.5,435.5c-0.7-7.1-1.7-14.4-3.1-21.6c-0.4,6.4-1,13.3,1.6,18.8C1319.5,433.8,1320,434.7,1320.5,435.5
			z"/>
	</g>
	<path opacity="0.8" clip-path="url(#SVGID_2_)" fill-rule="evenodd" clip-rule="evenodd" fill="#B2D034" d="M1395.9,280.1
		c1.5-1.2,2.8-2.3,3.9-3.5c-3.1,1.3-6.4,2.3-9.8,3.1C1392.4,280.5,1394.7,281,1395.9,280.1z"/>
	<path opacity="0.8" clip-path="url(#SVGID_2_)" fill-rule="evenodd" clip-rule="evenodd" fill="#B2D034" d="M459,141.1
		c-20.6-35.1-27.9-10.5-26.3,8.8c2.2,26.2,86.6,69.9,164.4,49.7c13.2-3.4,14.7-7,9.3-10.6C535.4,185.6,474.7,163.2,459,141.1z"/>
	<g opacity="0.8" clip-path="url(#SVGID_2_)">
		<path fill-rule="evenodd" clip-rule="evenodd" fill="#EEC320" d="M1187.3,214.1c0.4,0.3,1.8-0.2,2.2,0.1c8,5,13,26.5,1.7,27.7
			c-10.3,1.1-15.1-18-12.9-24.2c0.7-2.1,6.1-7.1,9.3-6.3C1188.6,211.7,1186.6,213.6,1187.3,214.1z"/>
		<path fill-rule="evenodd" clip-rule="evenodd" fill="#EEC320" d="M1057,157.3c-3.7-0.2-5-6.9-3-8.8c1.5-1.4,8.9-2.6,10.6-1.4
			C1067.5,149.3,1061.6,157.6,1057,157.3z"/>
		<path fill-rule="evenodd" clip-rule="evenodd" fill="#EEC320" d="M962.6,89.6c2.6-2.2,15.9-3,18.1-0.6c2.8,3.1-7.3,12.1-13,11.6
			C963,100.1,959.9,91.9,962.6,89.6z"/>
		<path fill-rule="evenodd" clip-rule="evenodd" fill="#EEC320" d="M1297.3,108c-1.4-2.2,4.5-7.5,8.3-7.8c4-0.3,10.8,4.4,11.7,6.8
			c0.4,1-0.7,3.5-2.3,4C1310.9,112.2,1298.9,110.6,1297.3,108z"/>
		<path fill-rule="evenodd" clip-rule="evenodd" fill="#EEC320" d="M1185.9,21.9c-3.9,1.5-1.7-4.5-3.9-7.3
			c-8.8-11,0.7-25.3,2.2-37.1c0.6-4.4-3.4-14.3,3-12.3C1213.3-26.5,1212.3,11.8,1185.9,21.9z"/>
		<path fill-rule="evenodd" clip-rule="evenodd" fill="#EEC320" d="M1377.3,15.6c2.4-0.2,2.6,1.7,3.5,3c4.5,6.5-22.9,17.4-29.5,11.1
			c-0.7-0.7-0.4-1.1-0.8-1.8C1346.5,21.5,1366,16.7,1377.3,15.6z"/>
		<path fill-rule="evenodd" clip-rule="evenodd" fill="#EEC320" d="M1224.4,24.7c-9.8,0.6,4.8-10.8,6.4-17.7
			c0.9-4,7.5-13.6,12.3-9.4C1252.4,5.8,1244.4,23.6,1224.4,24.7z"/>
		<path fill-rule="evenodd" clip-rule="evenodd" fill="#EEC320" d="M1187.4-59.1c-1.9,0.5-2.3-2.5-1.4-3.4
			C1187.3-63.8,1189-59.5,1187.4-59.1z"/>
		<path fill-rule="evenodd" clip-rule="evenodd" fill="#EEC320" d="M1186.8-63.1c-7.4,0.1-5.6-15.9,0.6-15.1
			C1198.1-76.7,1195.1-63.2,1186.8-63.1z"/>
		<path fill-rule="evenodd" clip-rule="evenodd" fill="#EEC320" d="M999.8,30.1c-0.6,2.8-5,5.4-10,5.4c-2.4,0-22.5-3.4-23,2.7
			c-0.6,6.4,4.7,11.6,10.2,12.5c2.5,0.4,7.6-2.9,9.7-2c3.5,1.5,1.8,8,0,10.4c-2.2,2.8-12.2,7.4-13.9,6.6c-3-1.4,4.3-5.4,1.6-7.1
			c-4.2-2.6-19.9-0.2-24,2.5c-3,2-3.3,7.4-1.3,9.9c2.8,3.4,13.2,6.4,19.7,5.8c5.9-0.5,15.8-6.1,20.4-5c4,0.9,14.2,3.7,13.6,6.2
			c-0.3,1.6-9.1,1-9.7,2.5c-0.7,1.7,6,3.8,7.1,5.4c1,1.5-9.7,11.2-7.9,12.4c10.2,7,19.5-8.1,22.6-7.2c1.1,0.3,2.6,1.7,2.6,2.4
			c0.1,7.1-13.9,21.8-25.1,23.9c-2.7,0.5-7.6-3.2-10.2-2.7c-5.1,1.1-6.7,9-9.7,11.8c-4.2,3.9-24.9,11.1-19.4,14.3
			c5.6,3.2,15.4-11.8,23-12.5c2.5-0.2,6.8,3.1,9.2,2.6c5.2-1,7.1-9.2,10.6-11.7c7.2-5.3,23.6-18.8,34.9-17.8
			c1.2,0.1,2.7,1.7,2.6,2.4c-0.8,5.1-18.9,10.4-23.2,14.8c-2.3,2.3-6.9,7.6-5.7,10.2c1.3,2.8,9.8,7.8,14.5,7.4
			c5.5-0.5,12.4-7.7,12.5-11.1c0-1.2-4.5-3-4.3-4.2c0.5-4.3,11.3-13.7,18.4-13.2c4.8,0.4,4.9,7.7,3.3,10.5
			c-1.5,2.7-12.3,2.6-11.5,5.4c0.9,3.4,18.9,4.6,22.6,1.9c1.8-1.3,0.6-4.8,2-6.3c1.2-1.3,2-1.8,4.5-1.6c6.2,0.6,9.4,5.5,14.2,8
			c5.1,2.6-3.7,14.2,0,17.8c3,3,34.6,7.4,34.5,8.7c-0.2,8.7-14.8,7.9-14.8,15.4c0,6.3-2.7,10.5-8.5,15.6c-5.3,4.7-10,9.7-15.5,14.4
			c-4.9,4.2-9,8.9-14,12.9c-4.8,3.8-29,16.2-34.9,19.3c-9.9,5.2,19.8,8.7,24.8,6.1c6-3.2,21-21.4,24.7-25.5
			c3.8-4.2,18.3-7.6,22.5-11.8c4.5-4.4-0.9-8.9,3.6-13.3c8.6-8.3,13.6-24,27.5-26.9c10.9-2.3,22.4,7.3,28.5,13.3
			c8.1,7.9,7.5,37.2,22.3,34.8c17.1-2.7-16.3-32.4-10.2-42.5c0.7-1.1,4.1-2.8,6-3.2c3.4-0.7,10.9-0.3,14.2,0.5
			c9.5,2.4,24.2,11.8,30.7,16.6c5.2,3.9,12.6,12.9,16.4,17.3c3.9,4.5,10.5,13.9,14.4,18.4c2.2,2.6,9,7.2,9.5,10.1
			c0.9,4.9,6.3,8.1,6.7,13c0.1,0.6,2,1.7,1.7,2.4c-0.5,1.1-5.1,1.7-6,2.7c-4.3,5.3-7.2,20.1,0.6,23.7c13.2,6,37.2,3,47.6-4.7
			c7.3-5.5,9-22.3,2.7-28.2c-3.1-2.9-16.8-2.7-21.4-4.8c-6.1-2.7-12.7-11.6-18.6-14.5c-1.4-0.7-5.1-1.2-6.5-2
			c-11.9-6.6-26.4-24.8-33.9-33.5c-1.2-1.4-2.7-4.6-4.2-5.9c-1.6-1.4-6.7-3.4-8.1-4.9c-0.8-0.9-1-3.1-1.5-4.1
			c-1.3-2.4-7.2-6.9-6.7-9.5c0.6-3.1,8.6-7.8,12.3-9.9c4.3-2.5,14-8.7,19.8-8c2.8,0.4,3.2,6,6.1,6c5.2-0.1,12.8-8.7,9.6-11.2
			c-2.7-2.1-14,4.1-17.3,2.3c-4.3-2.3,1-10.4,2.3-13.8c0.9-2.3,2.4-7.6,5.6-9c4.1-1.8,16.7,1.8,20-0.4c0.9-0.7,0.4-2.9-0.6-3.5
			c-3.3-1.9-14.9,1.4-18-0.6c-3.6-2.3,0.8-9.5,0.2-12.7c-0.7-4-8.5-12-6.1-15.8c1.1-1.7,3.4-3.3,6.5-4.8c-4,1.3-7.7,1.7-10.9,0.6
			c-4.5-1.6,0.8-9.5,2.2-12.6c0.7-1.7,3.5-4.9,5.3-6.2c4.7-3.2,12.4-5.7,18-9.2c8.1-5,20.1-9,19.4-12.6c25-5.3,67.7-24,48.7-34.6
			c-21.2-11.7-43.4,22.5-64.1,34.7c-16.4,9.7-32.7,32.1-48.3,28.3c-13.3-3.2,14.2-28.7-3.3-34.7c-9.3-3.2-5.3,14.6-22.4,15.9
			c-4,0.3-4.7,6.2-9,4.9c-10-3.1,4.3-20.1-4.8-19.2c-5.5,0.5-0.2,17.1-10,15.8c-6.2-0.8-11-0.5-18.7-3c-4.5-1.4-9.3-2.8-11.8-5.6
			c-0.6-0.7-0.6-1.7,0.2-2.3c8-5.4,14.1-13.5,0.3-12.7c-9.7,0.6-1.6,10.6-12.2,8.8c-15-2.5-11.3-17.7-34.4-17.9
			c-7.1-0.1-6.5-9.2-14.5-6.9c-9.9,2.9-15.2,0.4-24.6-0.9c-7.7-1-14.6,1.9-25,3.2c-4.8,0.6-3.5,7.3-8.3,7.2
			c-14.2-0.3-6.3,3.7-9.2,7.2c-4.6,5.4-42.6-12.4-49.5-8.7C965.4,13.2,1000.3,27.6,999.8,30.1z"/>
		<path fill-rule="evenodd" clip-rule="evenodd" fill="#EEC320" d="M1255.4,72.1c1.6-0.5,3.3-1.2,5-2.1
			C1258.6,70.7,1256.9,71.4,1255.4,72.1z"/>
		<path fill-rule="evenodd" clip-rule="evenodd" fill="#EEC320" d="M926.7,13.7c9.5,3.3,25,4.1,37.9,5.6c10.6,1.2,36.6,9.4,39.1,7
			c0.5-0.5-0.8-1-1.4-1.3c-19.2-9.9-15.7-6.6-37-8.9c-14.8-1.6-32.4-14.3-43.8-6.3C919,11.5,924.5,12.9,926.7,13.7z"/>
		<path fill-rule="evenodd" clip-rule="evenodd" fill="#EEC320" d="M1325.4,41.5c-14.3-13.1-43.1,18-64.9,28.5
			C1285.7,60.8,1339.9,54.7,1325.4,41.5z"/>
		<path fill-rule="evenodd" clip-rule="evenodd" fill="#EEC320" d="M1275.6,136.1c-1.7-3-0.7-10.4,3.1-12.6
			c4.9-2.8,20.4-2.8,26.7-1.4c6.9,1.6,19.5,8.4,20.6,12.8c3.2,12.9-22.7,15.9-26.1,15.2C1291.9,148.6,1278.3,140.9,1275.6,136.1z"/>
		<path fill-rule="evenodd" clip-rule="evenodd" fill="#EEC320" d="M1187-35.3c-5.8,0.7-7.2-14-0.3-15
			C1194.3-51.5,1194.4-36.2,1187-35.3z"/>
		<path fill-rule="evenodd" clip-rule="evenodd" fill="#EEC320" d="M1051.2-40.4c8.5-5.3,39.6,6,43.6,13c2.9,5.1-6.6,19.4-15.5,19.5
			C1064.2-7.8,1040.7-33.8,1051.2-40.4z"/>
	</g>
	<path opacity="0.8" clip-path="url(#SVGID_2_)" fill-rule="evenodd" clip-rule="evenodd" fill="#D11C5B" d="M298.3,192.9
		c107.4-27.2,138.7,81.5,27.7,82.3C251.2,275.7,223.5,211.8,298.3,192.9z M352.6,220.2c-3.9,3.3,3.3,7.4,7.8,8.3
		c3.1,0.6,12.7-0.5,15.9,0c8.2,1.2,2.9-8.4,1.3-11.1C373.3,209.9,360.4,213.6,352.6,220.2z"/>
	<path opacity="0.8" clip-path="url(#SVGID_2_)" fill-rule="evenodd" clip-rule="evenodd" fill="#EEAA22" d="M1512.1,147.3
		c43.6,0.5,67.4,13.6,55.7,22.2C1541,189.3,1431.2,146.3,1512.1,147.3z"/>
	<path opacity="0.8" clip-path="url(#SVGID_2_)" fill-rule="evenodd" clip-rule="evenodd" fill="#D33B6A" d="M106,184.3
		c12.8-6.1,44.5-20.5,59.6-16.5c3.3,0.9,1.1,7.2,4.3,8.3c10.1,3.3,33.8-9.5,44.5-6.9c19.8,4.6,27.2,36.1,45.3,42.7
		c11.2,4.1,39.8,5.2,52.4,3c4.6-0.8,10.3-6.4,15-6.9c11.8-1.2,35.3,5.3,45.7,8.9c8.2,2.8,21.8,10.9,28,15.2c7,4.9,16.4,15,18.4,23.2
		c1.8,7.2,8,14,2.8,23.5c-5.8,10.4-6.5,15.8-15.7,23.2c-9.9,8-22.8,14.2-36.7,19.6c-9.7,3.8-16.4,2.6-29.7,5.5
		c-11.1,2.4-18.9,3.2-38.8,2.7c-10.8-0.3-15.2,2.5-31.2-2.1c-20-5.7-28.4-11.4-36.3-14.2c-6.4-2.3,4.8-5,2.2-8.7
		c-3.4-4.8-9.8-5.9-15.5-5.2c-30.3,3.8-52.5,13.4-70.5,11.5c-4.5-0.5-9.9-6.5-14.5-6.8c-4.1-0.3-11.1,5.1-14.9,4.1
		c-3.3-0.9-2.6-6.3-4.3-8.3c-11.9-13-62-31-63.6-45.7c-0.4-4,14.2-9.4,14.3-13.4c0.1-3.7-12.5-9.1-12.4-12.7
		c0.1-5.5,14-14.3,19.2-18.8C81.2,202.9,95.6,189.3,106,184.3z"/>
	<path opacity="0.8" clip-path="url(#SVGID_2_)" fill-rule="evenodd" clip-rule="evenodd" fill="#F9AE3A" d="M1300.9,116.2
		c-4,2.7-12.7,4.5-17,8.6c-13.1,12.7-57.6,16.4-80.3,4.6c-25.5-15.2-29.1-52.1,5.4-56.3c11.1-1.3,20.3-5.2,32.4-5.2
		c20.9-0.1,47.4,12.6,52.4,17.5C1299.5,91.1,1315.7,106.3,1300.9,116.2z"/>
	<path opacity="0.8" clip-path="url(#SVGID_2_)" fill-rule="evenodd" clip-rule="evenodd" fill="#F9B016" d="M642,154.2
		c2.2-1.3,6.5,1.4,9.1-0.6c3.1-2.4-6.6-4.5-8.7-7.1c-20.1-24.3,26.3-36.4,67-29.5c2.5,0.4,16-2.3,22.7,0.5c9,3.7,10.8,8.4,13.3,11
		c3,3,4.6,4,3.5,8.5c-0.3,1.2,2.4,1,3.8,2c4.7,3.6-5.5,4.6-1.6,6.4c13.4,6.5,16.9,5.6,11.4,14.3c-2.4,3.9-20.5,1.1-18.6,6.1
		c1,2.5,2.7,2.5,6.1,3.3c6.1,1.4,0.5,4.6,4.8,7c17.3,9.2,22.5,32.1,18.9,42.5c-1.9,5.5-20.4,15.4-23.1,18.7c-5.2,6.4-9,4.9-20.7,8.1
		c-5,1.4-2.3,2.9-5.7,3.6c-11.9,2.6-29.4,3.8-47.9,2.2c-64.2-5.6-118.4-66.2-59.5-83.8c9.4-2.8,18.6-2.1,22.3-6.5
		C641.8,157.8,638.9,156,642,154.2z"/>
	<path opacity="0.8" clip-path="url(#SVGID_2_)" fill="#F9E120" d="M1034.6,84.8c-15.3,10.5-30.4,10-36,27.6
		c-24.3-16.7-74.3-10.5-86.6,7.3c-7.4-0.6-12.3,2.9-12,5.4c0.2,1.8,4.9,4.2,4.9,4.2s-11.1,30.8,53.3,38.9c4.5,0.6-0.6,6.8,2.9,8.5
		c3,1.5,8.5,4.5,5.1,5.2c-13.6,2.8-19.9,13.1-0.4,15c7.7,0.7,15.3-3,14.3-10.6c1.6,0.8,3.3,1.4,5.3,2c28.6,7.9,65.8-4.5,73.5-21.7
		c2.2-4.9-3.6-11.3,3.3-15.1c2.6-1.4,10-0.9,13.5-1.5c3.7-0.6,22.3-8.1,24.9-10.2c17.9-15.1,17.7-46.2-14-53.1
		c-10.5-2.3-10.3-2.2-22.4-4.5C1062.5,81.8,1040.3,80.9,1034.6,84.8z"/>
	<g opacity="0.85" clip-path="url(#SVGID_2_)">
		<path fill-rule="evenodd" clip-rule="evenodd" fill="#F8D105" d="M1060.2-156.4c-1.7-0.3-3.4-0.4-5.4-1.3c1.7-1.1-0.9-1.4,0.7-2.5
			c0.9-0.1,1.7-0.4,2.4-0.8c2.7,0,1.1,3,3.1,1.1C1062.3-159,1061.2-157.7,1060.2-156.4z"/>
		<path fill-rule="evenodd" clip-rule="evenodd" fill="#F8D105" d="M1752.9,1.4c-0.8,0.7-2.3,1-3.8,0.7c-4.9-1.1-5.1-2.7-5.9-5.1
			c-1.1-3.2,5-5.5,8.1-5.2C1757.8-7.5,1756.1-1.6,1752.9,1.4z"/>
		<path fill-rule="evenodd" clip-rule="evenodd" fill="#F8D105" d="M1630.3-94.2c-2,2.2-5.4,4.8-10.5,4.4c-2.7-0.2,2.6-1-3-0.1
			c-10.3,1.7,7.3-16.4,12.8-11.6C1631.8-99.6,1632.2-96.3,1630.3-94.2z"/>
		<path fill-rule="evenodd" clip-rule="evenodd" fill="#F8D105" d="M1420.5,151.6c3.2,4.6-12.2,6-13.2,2.4c-0.7-2.5-1.2-2.2-1.5-4
			C1405.2,146.5,1418.3,148.4,1420.5,151.6z"/>
		<path fill-rule="evenodd" clip-rule="evenodd" fill="#F8D105" d="M1430.9-80.6c-5.2-0.8,7.8-11,10.3-7.5
			C1443.8-84.6,1436.5-79.7,1430.9-80.6z"/>
		<path fill-rule="evenodd" clip-rule="evenodd" fill="#F8D105" d="M1440.3-123.7c1.6,5-16.7,9.9-17.3,5c-0.3-2.6,2.7-4.2,5.8-6
			C1431.6-126.3,1439.3-126.7,1440.3-123.7z"/>
		<path fill-rule="evenodd" clip-rule="evenodd" fill="#F8D105" d="M1383.2-144.7c-0.6,4.4-15.1,7.9-17,3.1
			c-0.7-1.9,2.2-4.3,5.1-5.3C1375.5-148.2,1383.7-147.8,1383.2-144.7z"/>
		<path fill-rule="evenodd" clip-rule="evenodd" fill="#F8D105" d="M1387.4-155.4c1.6,3.5-11,5-10.2,2.5
			C1378.1-155.6,1385.9-158.4,1387.4-155.4z M1382.9-153.9C1377.5-152.8,1388.4-154.8,1382.9-153.9L1382.9-153.9z"/>
		<path fill-rule="evenodd" clip-rule="evenodd" fill="#F8D105" d="M1105.3,55.1c-2.5,5.9-12.3,0.7-22,0.3c-9.2-0.4-22.8-8-8.1-14
			C1086.9,36.6,1107.9,49.1,1105.3,55.1z M1080.3,47.3c1-0.3,1.6-2.2,0.3-1.9C1079.6,45.7,1079.1,47.6,1080.3,47.3z"/>
		<path fill-rule="evenodd" clip-rule="evenodd" fill="#F8D105" d="M1668.5-66.6c-1.1,1.8-5.1-2.4-5.5-3.9c-0.5-2.4,0.7-3.8,2.1-5.3
			C1667.9-78.9,1670.2-69.3,1668.5-66.6z"/>
		<path fill-rule="evenodd" clip-rule="evenodd" fill="#F8D105" d="M1145.8-37.6c-2.9-4.7,5.4-13.2,12.8-11.6
			c10.4,2.2,20.5,6,22.9,13.1C1183.6-30.1,1149.4-31.8,1145.8-37.6z"/>
		<path fill="#F8D105" d="M1597.9,100c-1.1-0.1-2.2-0.1-3.2-0.2c18.9,4.7,40.3,5.8,62.4,6.4C1637.6,101.5,1615.4,100.9,1597.9,100z"
			/>
		<path fill="#F8D105" d="M1672.4,111.1c2.9,1.2,2.4,3.8,5.9,5.1c17.6,6.5,42.5,15.3,58,12.3c2.2-0.4,6.9-2,9.3-1.7
			c4,0.5,10.4,10.7,21.4,6.5c3-1.2-7.5-4-3.8-5.4c9.2-3.5-4.7-11-17.3-14.1c-27.8-6.8-58.9-6.8-88.7-7.5
			C1662.5,107.5,1667.6,109.1,1672.4,111.1z"/>
		<path fill="#F8D105" d="M1380.4-97.5c-3-2.8-7-3.3-13.7-1.8c-7.4,1.7-6,9-5.9,14.1c0.1,4.3,5,7.5,7.3,11.6
			c4.3,7.8,11.6,9.3,16.2,16.8c1.9,3.1,3.2,6.1,4.1,9.1C1389.4-65.2,1393.4-85.7,1380.4-97.5z"/>
		<path fill="#F8D105" d="M1311.4-36.1c1.7,4,3.7,7.7,6.1,11C1317.7-29.3,1315-32.8,1311.4-36.1z"/>
		<path fill="#F8D105" d="M1240.5,132.7c6.8,0.2,4.7-5,8.9-5.9c6.6-1.6-5.3,3.3,1.3,3.5c2.5,0.1,2.1,1.4,4.6,1.6
			c2.3,0.2,0.3-2.8,2.2-2.3c16.7,4.5,31.7-13.7,56.5-21.5c10.7-3.3,10.7,5.6,22.2,2.7c6.9-1.8-3.7-7.6-2.3-8.8
			c0.8-0.7,1.9-2.5,1.8-3.4c-0.2-1.5-3.4-1.2-4.4-3.6c-0.5-1.3,1.5-4.6,0.6-5c-1.2-0.5-5.6,2-8,1.4c-11.2-2.6-17.8-13.6-13.7-21
			c4.2-7.8,27.3,16.6,28.3,16.8c0.7,0.9,1.4,1.8,1.8,2.9c0,0.1,0.1,0.2,0.1,0.3c0.6,4.8,0.2,9.8,4.8,9.4c6.2-0.6,2.4,6.1,11,7.9
			c0.9,0.2,7.4,1.1,8.1,1.8c1.5,1.4-9.7,3.9-9.7,4.6c0.1,2.2,4.2,2.1,5.6,2.5c4.5,1.2,5.1,7.1,12.9,7.1c3.8,0,1.3-3,4.1-2.6
			c12.6,1.9,14.4,12.9,26.5,17.4c2.2,0.8,4.5,0.3,8-0.2c6.7-1.1-0.3-6.9,5.7-9.1c14.1-5.2,26.3,7.2,41.7,6.6
			c12.7-0.5,21.1-10.5,31.9-8.9c28.5,4.1,20.7,33.9,37,43.3c4.2,2.4,9.8,6.5,11.5,4.1c7.4-10.2-25.2-18.3-22.8-29.2
			c0.2-1.1,3.2-1.9,2.9-3c-5.9-20.8-9.2-34.4,15.5-31.9c26.1,2.7,48.2,16.5,66.5,30.5c3.6,2.8,9.3,3.9,13.4,3.7
			c10-0.4,12.8-2.2,16.1-5.4c5.8-5.6-18.2-7.8-27.4-11.7c-14.3-6-55.3-13.2-54.6-25.2c0.6-8.6,14-10.1,22.1-8.4
			c10.6,2.3,13.3,5.1,23.3,6c-13.1-3.3-25-8.3-35.1-16.3c-21.2-16.6,20.1-43,66.6-46.2c27.4-1.9,71.4,0.5,74.6-16.1
			c0.2-1,0.9-1.4,1-2.7c2.2-18.9-44.6-5.1-66.4,2.9c-26.4,9.7-57.7,25-85.5,19.4c-44.9-9.1,33.9-39.4,55.8-51
			c22.7-12,46.8-22.1,77.7-24.1c12.3-0.8,23-10,35-8.9c2.2,0.2,9.2,1.7,11.3,1c12.7-4.1,25.2-33.8-12.6-20.6
			c-1.8,0.6-4.3,3.3-8.5,4.1c-21.5,4.1-31.4,8.6-52.5,18.9c-7.6,3.7-15.9,7.4-24.6,12.5c-27.6,16.4-57.8,31.2-93,39.9
			c-6.5,1.6-13.6,3-20.4,1.9c-18.6-3-18-15.7-38-18.4c-5.8-0.8-11.4,2.7-17.8,0.8c-8.8-2.6,2.2-9.4-8.5-12.1
			c-9.4-2.4-14.2,14.4-22.1,8.4c-19.7-15,19-60.5-9.9-60c-28.1,0.5,19.6,53.9-10.1,51.9c-6-0.4-10.6-1.7-14-3.8
			c7.4,9.6,20.1,20.7,1.5,24.6c-1.9,0.4-3.2,0.7-4.9,0.3c-35.9-8.1-15.5-52.5-49.3-46.6c-14.3,2.5,16.9,31.1-4.6,28.7
			c-10.7-1.2-17.8-6.4-22.9-13.5c0,0.1,0,0.2,0,0.3c-0.2,2.9,1.6,3.5,1,5.4c-0.6,1.9-2.6,6.7-7,5.6c-7-1.8-19.1-13.8-20.8-7.3
			c-2.1,8,30.3,16.4,14.5,20.2c-1.9,0.5-3.3,0.7-4.9,0.3c-11.3-2.9-29.3-8.9-40.8-12.3c-11-3.3-10.2-13.4-21.1-16.5
			c-8.5-2.4-32.3-4.2-38.4-0.4c-24.3,15,39.9,25.9,63.3,35.4c13.5,5.5,31.4,20.5,50.8,17.9c4.1-0.6,6.3-1.5,8-0.2
			c3.8,3,10.6,3.6,4.9,7.8c-11.7,8.5-34.9-0.4-51.3,0.1c-13,0.4-26.3,0.1-39.5-0.9c16.1,5.2,25.3,8,46.2,8.3
			c4,0.1,18.2-1.7,23.6,1.2c1.2,0.6-4.6,1.7-2.2,2.2c8,1.9,33.3,12.5,20.7,15.4c-7.4,1.7-7.8,3.7-13.2,2.4
			c-33.5-7.8-68.1-3.8-99.9-8.9c-14.2-2.3-24.6-2.2-36.1,0.4c-4.1,0.9-10.9-1.6-12.5,1.7c-2.4,5,15,2.7,16.3,8.8
			c0.8,3.6-4.6,7-0.1,8c4.8,1.1,8,0.8,12.2,0.2c8-1.1-2.8-7.3,0.4-10c10.3-8.8,47.2-5.3,48.4,2.9c2.5,17.6-47.4,32.1-38.5,46
			c3.9,6.1,10.3,13,19.7,18C1227.1,130.1,1231.7,132.5,1240.5,132.7z"/>
		<path fill="#F8D105" d="M1388.4-47.6c-0.7,12.4,0.1,23.4,9.4,29c-1.4-1.9-2.7-3.7-3.5-5.4C1390.8-31.7,1390.9-39.5,1388.4-47.6z"
			/>
		<path fill="#F8D105" d="M1153.5,12.2c-24.8-10.5-55.8-23.4-86.6-19.4c-5.2,0.7-13.6,1.3-13.5,4.3c0.1,1.5,1.9,0.4,3.5,1.2
			c5.6,2.9,13.9,8.7,18.6,9.6c10.6,2,24.4,5.5,26.6,1.3c0.7-1.2-5.7-1.9-3.9-2.4c3.4-0.9,4.9,3.2,7.4,3.6c8.5,1.2,8.5,2.3,16.8,1.9
			c6.4-0.3,14.1-0.4,15.6,0.6c0.3-0.4,0.8-0.8,1.5-0.6c5.2,1,7.1,3.1,15.7,4.5c5.5,0.9,14.6,2.1,20.3,3.1c8.4,1.5,9.8,0.5,15.7,0.6
			c-11-2.6-21.5-5.3-31.6-8.2C1157.2,11.7,1156.6,13.5,1153.5,12.2z"/>
		<path fill="#F8D105" d="M1235.5,30c0.7,0,1-0.3,1.2-0.6c-6.7-1-13.4-2.2-20-3.4C1223.5,28.1,1230,30,1235.5,30z"/>
		<path fill="#F8D105" d="M1270.1-82.8c-18.4,5.7,17.4,21.7,26.4,33.5c3.5,4.6,10.1,8.7,15,13.2
			C1300.8-60.3,1299.9-92.1,1270.1-82.8z"/>
		<path fill="#F8D105" d="M1191.2,20.5c8.3,2,16.8,3.8,25.5,5.4c-7.1-2.2-14.6-4.7-21.8-5.2C1193.4,20.6,1192.2,20.6,1191.2,20.5z"
			/>
	</g>
	<path opacity="0.8" clip-path="url(#SVGID_2_)" fill-rule="evenodd" clip-rule="evenodd" fill="#229B8F" d="M1700,146.7
		c-2.6-27.8,86.5-32.5,101.3-6.5C1818.7,170.9,1702.6,174.6,1700,146.7z"/>
	<g opacity="0.8" clip-path="url(#SVGID_2_)">
		<path fill-rule="evenodd" clip-rule="evenodd" fill="#0473B8" d="M907.5-33.4c2.9,1.3,5.9,2.7,8.8,4c17.3,7.7,29.2,22.1,45.6,14.9
			c2.4-1,5.1-2,4.9-3.5c-0.4-4.5-12-9.3-17.2-15.6c-7.9-9.5-23.2-17.2-41.1-23.3L907.5-33.4z"/>
		<path fill-rule="evenodd" clip-rule="evenodd" fill="#0473B8" d="M1706.1,70.7c6.3,3-4.8,0.9-11.4,5.3c-6.4,4.1-21.8-2.2-32.4-0.6
			c-2.6,0.4,4,1.5,1.7,2.5c-10.9,4.6-27.3,2.8-33.4-2.3c-2.2-1.8,5.7-0.2,7.4-0.2C1664.5,75.8,1693.7,64.7,1706.1,70.7z"/>
		<path fill-rule="evenodd" clip-rule="evenodd" fill="#0473B8" d="M1582.2-117.1c5.9,7.8-18.6,25.7-35.3,18.8
			c-5.5-2.2-9.9-2.4-14.4-1.7c-23.5,3.8-24.8,20.2-47.7,26.6c-6,1.7-9.1,0.5-17.9,1.7c-3.9,0.5-2.6-1.7-5.4-1.7
			c-6,0.1-12.1,5.2-16.1,1.7c-6.1-5.4,18.2-6.9,28.4-10.3c34.7-11.4,42.3-42.1,90.3-42C1572.7-124,1579.4-120.7,1582.2-117.1z"/>
		<path fill-rule="evenodd" clip-rule="evenodd" fill="#0473B8" d="M1557.4,126.3c5.2,2.3-15.2,3.3-24.5,0.3
			C1521.2,122.9,1551.1,123.4,1557.4,126.3z"/>
		<path fill-rule="evenodd" clip-rule="evenodd" fill="#0473B8" d="M1466.9,119.6c5.6,3.5-11.4,3.5-16.2,0
			C1447,116.9,1463,117.2,1466.9,119.6z"/>
		<path fill-rule="evenodd" clip-rule="evenodd" fill="#0473B8" d="M1448.9,117.1c0.9,0.4,0.9,1.3,0.1,1.7c-0.8,0.4-2.7,0.4-3.6,0
			c-0.9-0.4-0.9-1.3,0-1.7C1446.1,116.6,1448,116.6,1448.9,117.1z"/>
		<path fill-rule="evenodd" clip-rule="evenodd" fill="#0473B8" d="M1495.3,8.5c2.9,1.3,2.6,4.2,0.2,5.7c-8,4.8-19.2-5.6-12.2-8.5
			C1487,4.1,1491,6.4,1495.3,8.5z"/>
		<path fill-rule="evenodd" clip-rule="evenodd" fill="#0473B8" d="M1268.2,90c2.8-1.8,7.3,3.1,4.9,4.6
			C1270.3,96.4,1265.8,91.5,1268.2,90z"/>
		<path fill-rule="evenodd" clip-rule="evenodd" fill="#0473B8" d="M1095.8,131.9c2.4,1.8-4.7,12.3-4.7,12.3s-22.7,21.7-52.4,17
			c-19.7-3.1-48.9-1.3-50.3-17.7c-1-12.1-18.3-29.5,9.7-36.1c48.2-11.4,33.8,12.6,74.6,20.6C1074.1,128.2,1093,129.7,1095.8,131.9z"
			/>
		<path fill-rule="evenodd" clip-rule="evenodd" fill="#0473B8" d="M1074.5-49.4c-6.5,1.6-19.1,1.7-26.9-0.9
			c-23.4-7.5-43.6-30.6-22.6-36.8c18.9-5.6,32.8,13.4,45.5,23.1C1076.7-59.3,1082.8-51.4,1074.5-49.4z"/>
		<path fill-rule="evenodd" clip-rule="evenodd" fill="#0473B8" d="M1151.9-59.6c1.4-4.9,8.1-4.9,15.8-6.4c10.9-2.1,26.5-1.9,31.2,3
			c8.1,8.5-6.7,17.4-23.5,16.5C1162.4-47,1153.1-51.6,1151.9-59.6z"/>
		<path fill-rule="evenodd" clip-rule="evenodd" fill="#0473B8" d="M1002.2-101.6c-2.5,0.3-17.7-1.8-19.6-2.7
			c-7-3.1-16.4-5.5-19.8-9.8c-5.3-6.7,21.6-24.6,47.9-17c16.5,10.3-1.6,16.8-4.9,22.6C1005-107.1,1003.4-101.7,1002.2-101.6z"/>
		<path fill-rule="evenodd" clip-rule="evenodd" fill="#0473B8" d="M1613.2,77.3c13.4,2.1-10-0.4-21.3,1c-14,1.8,14.3-7,18.7-4.9
			C1613.9,75,1608.3,76.6,1613.2,77.3z"/>
		<path fill-rule="evenodd" clip-rule="evenodd" fill="#0473B8" d="M1605.5,135.9c8.1-10,70.7-3.1,73.8,8.6c2.6,9.5-35.4,0-53.9-2.6
			C1612.3,140.1,1599.8,143,1605.5,135.9z"/>
		<path fill-rule="evenodd" clip-rule="evenodd" fill="#0473B8" d="M1511.6,70.8c-4.1,1.6-14.4,1.9-17.8,2.4
			c-8.9,1.5-29.2,7.9-37,3.7c-21.1-11.5,15.7-8.5,27.1-10.3c1.4-0.2,13.1-3.3,18-3.6c3.9-0.2,12.6,1.3,14.6,2.9
			C1517.9,67,1513.7,69.9,1511.6,70.8z"/>
		<path fill-rule="evenodd" clip-rule="evenodd" fill="#0473B8" d="M1456.3,111.1c9.7-4.8,30.2,1.1,41.4,4.3
			c10.8,3.1,25.1,0.8,25.3,6.9c0.1,4.8-21.8-2.2-28.8-3.2c-8.6-1.3-27.9-0.7-34.2-4.5C1458.2,113.4,1452.6,112.9,1456.3,111.1z"/>
		<path fill-rule="evenodd" clip-rule="evenodd" fill="#0473B8" d="M1446.8,109.3c3.1,3.2-14.3-1.7-14.3,1.7c0,1.2,2.7,0.6,5.5,2.6
			c4.7,3.5-9.7,0.4-14.4-1.7c-12.9-5.7-38.5-5.9-36.2-11.1C1389.5,95.8,1439,101.1,1446.8,109.3z"/>
		<path fill="#0473B8" d="M1255.7,105.6c2.3-0.4,2-1.7,1.7-2.6c-0.7-2.2-3.3-1.4-7.1,0C1246.4,104.4,1253.4,106,1255.7,105.6z"/>
		<path fill="#0473B8" d="M1253.8,99.6c1.2-0.6,1.4-2.1-0.1-2.6c-8.7-2.9-16.6-7.6-16.1-3.4C1237.9,96.9,1246.6,103.5,1253.8,99.6z"
			/>
		<path fill="#0473B8" d="M933,84.9c31.6-0.9,62.4-2.5,89.5-6.2c11.3-1.5,23.3-9.9,35.2-8.8c19,1.7,10.2,15,25.6,23.8
			c18.3,10.4,47.1,9.1,64.7,11.2c12.8,1.5,39.1,11.7,47.5-6c0.3-0.6-5.5-2.9-5.4-3.5c0.1-1.3,8.2-0.9,11-1c0.1,0,0.3,0,0.4,0
			c1.6-0.1,5.6-0.1,6.3-0.7c1-1-3.2-3.8,1.7-4.2c3.4-0.3,5.8,5.3,7.2,2.6c2.3-4.5,1-8,8.7-7.6c6.3,0.3-3.5,7,2,5.9
			c9.5-1.8,17.7,2.3,21.4,0.9c7.7-3.1-3-10.9-11-11c-4.3-0.1-0.4-1.2-1.9-1.8c-1-0.4-7.3-0.3-3.5-1.6c1.6-0.6,3.8-0.4,5.2,0.1
			c1.1,0.4,2.1,0.7,3.3,1c7.4,2.1,13.5,11.7,18.4,9.1c5.5-2.9-10.6-6.1-7.4-10.2c1.9-2.4,4.4-1.4,8.9-0.9
			c25.8,3.1,32.7,17.2,53.8,16.1c7.2-0.4,7.8,1.1,14.3,2.6c14.5,3.2,33.5,10,35.7,3.4c3.8-11.2-53.6-6.5-71.5-13.6
			c-6.9-2.7-10.9-11.4-14.7-16.1c-1.8-2.2,13.3-1.1,8.8-3.4c-5.8-3.1-27.6-1.3-17.9-4.3c4.3-1.3,17.6-1.1,21.9-2.3
			c32.2-9.1,0.2-13.1-3-22.3c-1-2.7-11.4-2.4-12.3-5.4c-0.1-0.2-0.2-0.4,0-0.6c4.6-4.1,37.3,14.1,41.8,7.2c3.2-4.9-27-8.1-26.7-11.9
			c0.2-3,7.5,2.5,14.8,2.3c2.7-0.1,3.8-1.4,5.3-2.5c6.6-4.9-21.3-2.9-12.6-6.8c7.5-3.4,19.9,6.6,25,3.4c6.8-4.2-15.2-2.7-7.3-5.9
			c7.1-3,36.7,6.8,46.3,3.3c27.5-9.7,78.8,2,74.4-9.3c-6.3-16.1-105.2,9.1-122.8-5.1c-8.7-7-9.8-14-0.6-19.5c5.5-3.3,2.3-0.5,7-3.4
			c20.8-12.7,58.6-22.9,91.5-33.9c16.2-5.4,41.7-8.1,31.6-12.7c-48.2-22.1-92.4,56.7-158.9,40.7c-8.3-2-12.7-8-12.8-12.7
			c0-1.3,6.7-0.1,7.1-1.7c1.8-7.5,40.8-12.8,33.2-20.4c-0.9-0.9-6.4-1-3.6-1.7c9.3-2.2,14.6-10.6,24.5-12.7
			c27.7-6,0.9-26.3,27.7-36.6c1.6-0.6,7.1-4.6,5.1-6.8c-2.1-2.4-13.2-3.1-17.8-0.8c-15.4,7.5-15.6,19-27.6,28.9
			c-10.2,8.4-5.4,18.8-19,28.1c-14.4,9.9-32.9,20.8-54.3,28.9c-6.3,2.4-18.5,10.5-28.9,9.1c-10.2-1.4-19.3-14.8-30-13
			c-9.7,1.7-1.5,15-8.7,18.2c-15,6.7-44.3,4.4-56.1,1.9c-18.8-4-22.7-40.2-55.5-26.1c-18.5,7.9,70.2,17.8,11.3,43.8
			c-21.4,9.4-12.8,30-36.2,41.6c-5.9,2.9-18.9,4.1-28.7,3.6c-19.4-1.1-54.8-6-54.5,5c0.2,6.7,37.2-0.3,55,0.7
			c5.4,0.3,11.8,0.5,14.3,1.8c4,2,12.4,3.4,7.3,5.9c-4.5,2.2-8.6,3.5-14.4,4.7c-22.2,4.5-56.9,8-77.6,12.2c-1.9,0.4-1.4,2.1-3.5,2.5
			c-2.1,0.4-4.3,0.7-6.4,0.8C934,82.2,933.6,83.5,933,84.9z M1287.3,17.3c1.2-0.4,2.5,0.1,3.6,0.8c1.4,0.9-2.9,2.7-5.3,1.7
			C1283.4,18.9,1285.5,17.9,1287.3,17.3z M1274.9,37.5c2.8-1.2,6.3,0.7,7.7,1.9c1.8,1.5-6.9,2.9-8.5,1.4
			C1273,39.7,1273.2,38.2,1274.9,37.5z M1270.5,48c3.2-1.2,10.8,0.7,12.4,2.3c3.7,3.6-12.9,3.5-14.9,0.7
			C1267.4,50,1268.7,48.7,1270.5,48z M1262.1,67.3c1.4,0.9-2.9,2.6-5.3,1.7C1253.8,67.9,1260.4,66.3,1262.1,67.3z"/>
		<path fill="#0473B8" d="M1202.4,94.4c0,0,0.4,0,0.4,0C1202.8,94.4,1202.4,94.3,1202.4,94.4z"/>
	</g>
	<path opacity="0.8" clip-path="url(#SVGID_2_)" fill-rule="evenodd" clip-rule="evenodd" fill="#229B8F" d="M1216.9,19.8
		c-44,1.6-51.3-54.8-10.2-64.1C1255.2-55.4,1261,18.2,1216.9,19.8z"/>
	<path opacity="0.8" clip-path="url(#SVGID_2_)" fill-rule="evenodd" clip-rule="evenodd" fill="#E42526" d="M687.3,130.2
		c-2.3,2,2.7,8.4,2.7,10.6c0,3.2-6,3.1-5.9,5.9c0.1,4.1,4.2,1.3,10.4,2.7c5,1.1,7.6,2.8,8.1,3.3c4.5,4.4-5.5,4.1-11.9,4.8
		c-7.1,0.8-1.1,6.1-2.7,10.7c-1.6,4.8-2.5,8.1,2.8,8.4c6.2,0.3,10.8,0.3,13.8,3.9c4.7,5.6-3.6,9.7-11.7,9.2
		c-4.2-0.2-13.6,4-20.4,3.2c-3.8-0.4-4.9-5.2-10.1-6.2c-6.9-1.4-3.4,8.9-16.8,13.4c-2.4,0.8-4.2,5-8.9,3.4c-6.9-2.3-7,3-11.3,2.7
		c-5.6-0.4-2.4,4.8-7.1,4.5c-11.2-0.6-16.9-8.4-32.6-9.9c-24-2.3-37.7-16.2-52.4-27.6c-1.8-1.4-8.2-1.2-9.4-2.8
		c-2.8-3.8,1.9-6.1,2-10c0-2-6.8-1.2-7.9-2.8c-2.5-4,2.6-5.8,4.9-10c1.2-2.1,8.6-1.2,10.4-3.2c3.2-3.5-3.4-5.7,1.5-8
		c4.4-2.1,8-4,11.7-8.1c6.3-7,28.4-2.9,33.7-10.6c1.2-1.8-0.9-4.3,0.7-6.7c2.7-3.9,10.8-6.4,14.8-3.7c1.7,1.1,4,3.3,5.3,4.9
		c4.3,4.9,12.1,1,12.5-2.8c0.6-6.5,4.1-8.2,11.4-7.3c9.3,1.2,10.8,10.9,2.9,12.1c-2.9,0.4-4.6,3-3,4.5c3.1,3.1,18.4,5.2,23.2-0.6
		c2.2-2.7-0.8-2.8-2-4.7c-2.4-4,8.3-9,10.8-5.9c1.2,1.5,7.9-1,10.9,2.6c1.3,1.5,1.2,4.2,3.8,5.3C678.9,118.4,692,126.3,687.3,130.2z
		"/>
</g>
</svg>
