<?xml version="1.0" encoding="utf-8"?>
<!-- Generator: Adobe Illustrator 18.0.0, SVG Export Plug-In . SVG Version: 6.00 Build 0)  -->
<!DOCTYPE svg PUBLIC "-//W3C//DTD SVG 1.1//EN" "http://www.w3.org/Graphics/SVG/1.1/DTD/svg11.dtd">
<svg version="1.1" id="Layer_1" xmlns="http://www.w3.org/2000/svg" xmlns:xlink="http://www.w3.org/1999/xlink" x="0px" y="0px"
	 width="1920px" height="200px" viewBox="0 0 1920 200" enable-background="new 0 0 1920 200" xml:space="preserve">
<g>
	<g>
		<path fill="#DCF1FF" d="M855,116.2c0-6.6,0.6-13.1,1.8-19.4c-11.1-2.3-22.2-4.5-33.3-6.8c-64.3-13-129.1-25.6-194.8-28.5
			c-65.8-2.9-131.3,5.6-195.4,19.7c-63.2,13.9-125,32.9-187.2,50.4c-60.4,17-122.1,34.4-185.1,36.6c-16,0.6-58.9-1.8-58.9-1.8
			s0,18.3,0,20.1c63,7.1,114-6.2,174.3-21.9c63.2-16.5,125.5-36.2,188.7-52.4c63.1-16.1,127.4-28.8,192.7-31
			c65.6-2.3,130.9,7,195.2,19.2c33.7,6.4,67.9,13.8,102.2,20.6C855,119.5,855,117.8,855,116.2z"/>
		<path fill="#DCF1FF" d="M1067.2,139.2l-6.4,0.6c1.7-7.4,2.8-16,2.8-23.7c0-56.7-46.1-102.8-102.8-102.8
			C904.1,13.4,858,59.5,858,116.2c0,1.7,0.1,4.2,0.2,6l-6.1-1.2c-0.1-1.8-0.1-2.9-0.1-4.8c0-60,48.8-108.8,108.8-108.8
			s108.8,48.8,108.8,108.8C1069.6,124.3,1068.9,131.4,1067.2,139.2z"/>
	</g>
	<path fill="#DCF1FF" d="M1754.4,86.3c-62.3-18.4-122.8-43.1-186.2-57.9c-62.5-14.6-125.4-16.9-187.9-1.5
		c-61,15-117.7,42.5-176.3,64.4c-29.5,11-59.7,20.4-90.9,25.2c-15.4,2.4-31,3.8-46.5,4.5c-0.3,6.3-1.1,12.5-2.5,18.5l-2.9-0.2
		c0,0.2-0.4,0.4-0.4,0.6c25.3-2,50.8-6.2,75.9-13.4c60.5-17.3,116.9-46,176.4-66.2c61.1-20.7,123.4-29.5,187.6-20.4
		c63.2,9,123.5,31.1,183.8,51.3c58.4,19.6,120.4,39.9,182.9,34.4c14.8-1.3,52.7-8.7,52.7-8.7s0-16.6,0-20.1
		C1860.9,115.2,1812.3,103.4,1754.4,86.3z"/>
	<g>
		<defs>
			<path id="SVGID_1_" d="M981.6,64.5c3.9,0.9,7.5,2.2,10.7,3.8c3.2,1.6,5.8,3.7,7.7,6.1c2,2.4,3,5.1,3,8.2c0,2.3-0.6,4.4-1.8,6.3
				c-1.2,2-2.6,3.7-4.4,5.1c-1.7,1.5-3.6,2.6-5.6,3.5c-2,0.9-3.9,1.3-5.7,1.3c-1.6,0-3.1-0.2-4.6-0.6c-1.5-0.4-2.8-0.8-4.2-1.3
				c-1.3-0.5-2.7-0.9-4-1.3c-1.4-0.4-2.8-0.6-4.3-0.6c-2.6,0-5,0.6-7.2,1.8c-2.2,1.2-4,2.7-5.6,4.7c-1.5,2-2.8,4.2-3.7,6.8
				c-0.9,2.5-1.3,5.2-1.3,8c0,3.1,0.5,5.9,1.6,8.5c1.1,2.6,2.5,4.8,4.2,6.6c1.7,1.8,3.5,3.2,5.5,4.2c2,1,3.9,1.5,5.6,1.5
				c1.7,0,3.4-0.3,5-0.9c1.6-0.6,3.3-1.3,4.9-2c1.6-0.7,3.2-1.4,4.8-2c1.5-0.6,3.1-0.9,4.7-0.9c1.7,0,3.6,0.4,5.6,1.3
				c2.1,0.8,4,2,5.8,3.5c1.8,1.5,3.3,3.2,4.5,5.1c1.2,2,1.8,4.1,1.8,6.3c0,2.8-1,5.5-3,8.1c-2,2.6-4.6,4.9-7.7,6.8
				c-3.2,2-6.8,3.5-10.9,4.7c-4.1,1.1-8.2,1.7-12.5,1.7c-7,0-13.8-1.2-20.4-3.5c-6.5-2.3-12.3-5.7-17.3-10.2c-5-4.5-9-9.9-12-16.4
				c-3-6.5-4.4-13.9-4.4-22.1c0-8.5,1.5-16.2,4.4-22.8c2.9-6.7,6.8-12.3,11.8-16.8c4.9-4.6,10.6-8,17-10.4c6.4-2.4,13.1-3.6,20-3.6
				C973.7,63.2,977.7,63.7,981.6,64.5z"/>
		</defs>
		<clipPath id="SVGID_2_">
			<use xlink:href="#SVGID_1_"  overflow="visible"/>
		</clipPath>
		<g clip-path="url(#SVGID_2_)">
			<path opacity="0.8" fill-rule="evenodd" clip-rule="evenodd" fill="#239B8F" d="M983.9,124.8c11.2-3.6,18.6,13.9,11.7,19.9
				C988.9,150.7,972.6,128.4,983.9,124.8z"/>
			<path opacity="0.85" fill-rule="evenodd" clip-rule="evenodd" fill="#F4BD2B" d="M981.8,75.2c-0.4,0.2-1.4-0.1-1.6,0.5
				c-0.6,1.9,2.8,1.6,3.4,3.4c0.7,1.8-2.6,3.2-1.7,4.6c0.2,0.3,0.9,0.3,0.9,0.7c0,0.7-1.1,0.2-1.6,0.9c-0.4,0.5,0.9,0.3,0.3,1.2
				c-1.2,2.1-5.1,1.1-5,3.6c0,0.6,0.9,1.6,0.1,2c-0.7,0.4-1.1-0.9-1.5-1.2c-1.5-1.2-1.5,1.5-3.4,1.4c-1.6-0.1-1.9-0.4-2.9-0.7
				c-1.3-0.4-1.9-1.6-3.1-1.3c-0.4,0.1-0.4,0.8-1,0.8c-0.9,0,0.5-1.4-0.2-1.7c-0.8-0.4-2.2,0.3-2.4-0.7c-0.1-0.3,0.2-1.2,0.1-1.7
				c-0.3-1.2-2,0.2-3.5-0.9c-1.6-1.1-3.8-1.4-3.8-2.9c0-0.6,0.1-1.8-0.9-2.4c-1.6-1.1-1-3.4-0.1-4.7c0.7-1,0.4-2.6,1.4-3.5
				c1-0.8,2.4-0.7,3.8-1.6c1-0.7,1.5,1.1,3.7,0.2c1-0.4,1.9,1.2,3.1,0.8c1.4-0.9-2-3.7-0.4-3.7c1.7,0,1.5,3.9,3,3.3
				c0.5-0.2,0.5-0.9,1-1.2c0.5-0.3,0.9,0.8,1.4,0.5c1.1-0.8-0.2-3.3,1.5-3.5c0.8-0.1,0.5,1,1.5,1.5c1.2,0.6,0.9,4.2,2.4,2.9
				c0.5-0.4,0.4-2.5,1.4-2.1c1,0.4-0.6,2.3-0.4,3.1c0.6,1.8,2.1,0.8,4,0.9C982.1,73.8,982.5,74.8,981.8,75.2z M977.3,80.9
				c-1.1,0-1.2,0.8-1.1,1.4c0.1,0.6,1.1,0.6,1.7,0.5C978.8,82.7,978.2,80.9,977.3,80.9z"/>
			<path opacity="0.8" fill-rule="evenodd" clip-rule="evenodd" fill="#772367" d="M948.2,84.4c-0.9-0.3-1.1-0.7-2-1
				c-0.8-0.3-1.9,1-1.3,1.9c0.3,0.5,1.5,0.6,1.1,1.1c-0.3,0.3-1-0.1-1.5,0.1c-2.3,1,2.1,2.1,2.1,3.4c0,0.3-1,0.8-1.9,0.3
				c-1.2-0.6-0.7-1.7-1.8-2c-1.4-0.5-1.3,2-0.8,3.6c0.5,1.4,0.8,1.1,1,2.5c0.1,0.6-0.2,1.1-0.4,1.2c-1,0.4-0.7-2.4-1.8-3.3
				c-0.6,0-0.9,0.4-1.4,0.5c-0.6,0-0.3-0.6-0.9-0.6c-0.3,0.1-0.2,0.4-0.1,0.8c0.1,0.6,0.9,1.8-0.2,2.1c-2,0.6-4.6-4.4-4.8-1.6
				c0,0.3-0.2,0.6-0.5,0.7c-1,0.2-0.6-1.3-1.3-1.5c-2.2-0.7-4.8-0.5-5.7-1.8c-0.6-0.9-1.1-2.6-3.5-3.4c-0.6-0.2,0.7-1.5,0.3-1.7
				c-1.5-1.1-0.9-2.9-2.1-4.5c-1.6-2,3.3-1.3,2.8-3.3c-0.1-0.6-1.1-1-0.8-1.6c0.3-0.6,0.7,0,1.6-0.1c1-0.1,1.7-0.2,1.7-1.2
				c0-0.5-0.8-1.7-0.2-2.2c0.7-0.5,2.7,0.6,2.6-0.4c-0.1-0.7,0-1.4,0.5-1.7c0.8,0.2,0.9,1.8,1.4,1.1c0.3-0.5-0.7-1.3,0.1-1.7
				c0.7-0.4,1,0.5,1.7,0.5c1.3-0.1,1,0.8,2.1,0.6c1.4-0.2,2.9-0.6,3.8,0.1c0.5,0.3,0.2,1.1,0.9,1.3c0.5-0.1,1.2-0.7,1.5-0.5
				c0.6,0.2-0.2,0.8,0.3,0.8c0.7,0,0.6-2.3,1.6-2.9c1.2-0.7,1.8-0.5,3-0.2c1,0.3,0.8-0.9,1.4-0.6c0.9,0.4,1.3,0.3,2.2,0.2
				c0.5-0.1,0.1,0.9,0.6,1.1c0.6,0.2,1.4-0.4,1.7-0.1c0.2,0.2-0.6,0.2-0.9,0.5c-0.4,0.3,0.9,0.5,1.5,0.5c1,0,2.6,1.2,1.9,2
				c-0.1,0.1-0.8,0.3-0.7,0.5c0,0.3,0.7,0.2,0.9,0.4c0.1,0.5-0.6,0.5-0.2,1c0.3,0.3,0.9,0.1,0.7,0.6c-0.2,0.3-0.7,0.1-0.7,0.6
				c0.1,0.6,2.1,1.3,1.5,1.8c-0.4,0.3-1-0.5-1.3-0.5c-1.2,0.3,0.5,1.6,0,2c-0.7,0.5,0.5,0.7-1,1.1C951.8,81.3,951.1,85.2,948.2,84.4
				z M938.4,93.2c-0.3-0.3-0.8,1.2-0.2,0.9C938.6,93.8,938.7,93.5,938.4,93.2z M941.4,84.2c0.3-0.8-1.1-1.1-1.3-0.6
				C939.7,84.2,940.9,85,941.4,84.2z"/>
			<path opacity="0.8" fill-rule="evenodd" clip-rule="evenodd" fill="#086E75" d="M949.9,148.1c0.5,0.2,0.6-0.4,1-0.5
				c0.1,0,0.1,0.2,0.3,0.5c0.2,0.3,0.6-0.2,1-0.2c1.8,0,0.4-2.1,1.5-2.4c0.9-0.2,1.2,1.4,1.9,2c1,0.8,2.4-0.5,3.7-0.9
				c0.9-0.3,2.3-0.1,3.1,0.3c0.6,0.4,0.9,1.2,2,1.7c0.4,0.1,0.4-0.5,0.8-0.3c0.5,0.2,0.2,1.1,1,1.1c1.6,0.1,2.9,0.1,3.5,1.7
				c0.2,0.5-0.4,1.1-0.1,1.5c0.2,0.3,0.8,0.5,0.8,1c-0.3,0.9-1.3,0.6-1.6,1.4c0.1,0.8,1.8,0.4,2.3,1.4c0.5,0.8-0.7,1.6,0,2.3
				c0.3,0.3,0.6,0,1,0.3c1.7,0.9-0.3,2.2-1.5,0.5c-0.2-0.3-0.8,0.2-1.1,0.4c-1.2,1-0.7,1.6-1.4,2.5c-0.1,0.2,0.3,0.7,0.2,0.9
				c-0.2,0.4-1.4,0.2-1.4,0.4c-0.2,0.9-0.6,0.6-1.2,0.9c-0.4,0.3,0.5,0.5,0.8,0.8c0.6,0.9-1.7,1.3-1.6,0.8c0-0.4,0.3-0.9-0.1-0.9
				c-2.2,0.2-1.2,2.5-2.9,2.7c-1,0.1-3.9-2-4.6-1.5c-0.8,0.6-1,1.6-1.8,1.1c-0.6-0.4,0.1-1.5-0.3-1.5c-0.6,0.1-0.3,2.4-1.2,2.1
				c-0.7-0.2,0.5-1.5,0.1-2c-0.1-0.2-0.5-0.2-0.5,0c-0.2,0.9-1,1.3-1.1,0.6c-0.5-2.2-0.3-1-1.6-1c-0.3,0-0.6-0.4-0.5-0.7
				c0.1-0.3,0.2-0.4,0.3-0.7c0.1-0.8-0.3-0.6-0.7,0c-0.2,0.3,0.2,1.5-0.2,1.7c-0.7,0.3-0.6-1-1.4-1.1c-0.6-0.1-0.1-0.3-0.2-0.7
				c-0.1-0.3-0.4,0.2-0.5-0.1c0-0.1-0.1-0.2-0.1-0.3c-0.1-0.4,0.8,0,0.8-0.3c0.1-0.5-1-0.6-0.7-1.1c0.1-0.2,0.7,0.2,1.1,0
				c0.4-0.2,0.6-1.2-0.7-0.7c-0.2,0.1-0.9,0.2-1-0.1c-0.2-0.5,0.4-1.3,0.9-1.5c0.8-0.4-0.5-1.5-0.3-2.3c0.1-0.4,0.5-0.8,0.6-1.2
				c0.2-0.5,0.2-0.9,0.4-1.5c0.1-0.5,0.5-0.6,0-1c-0.2-0.2-0.7,0.2-0.9-0.1c-0.4-0.7-0.8-1.7,0.3-2.3c0.9-0.5,1.4-0.2,1.9,0.2
				c0.7,0.6,1,0.1,0.3-0.5c-0.3-0.2-0.4,0.1-1-0.3c-0.3-0.2,0.4-0.6,0.2-0.9c-0.3-0.5-1.6,0.4-1.8-0.2c-0.2-0.5-1.1-0.2-1.4-1
				C945.6,148.1,949.5,147.9,949.9,148.1z"/>
			<path opacity="0.8" fill-rule="evenodd" clip-rule="evenodd" fill="#404195" d="M933.6,153c0.2-0.4,1.7-1.3,2.8-1.7
				c4.6-1.8,2.6-6.1,8.1-4.1c1.6,0.6,3.8,0.5,5.1,1.1c1.5,0.7,1.6,2.1,3.4,2.5c5.2,1.1,4.1,10,2.1,14c-3.3,6.7-13.1,7.3-18.6,3
				c-2.8-2.2-4.9-5.9-3.3-10.8C933.6,155.3,933.3,153.6,933.6,153z"/>
			<path opacity="0.8" fill-rule="evenodd" clip-rule="evenodd" fill="#76BE4F" d="M993.3,169.2c-0.6-0.6-1-0.1-1.1-0.8
				c-0.1-0.6,0-0.2,0.1-0.7c0.3-2.3-3.1-5.5-3.7-7.4c-0.2-0.6,0.3-1.1,0.5-1.5c1.1-1.5,3.3,1.9,5.3,1.4c0.8-0.2,2.1,0,2.8,0.3
				c0.1-0.1,0.2-0.2,0.2-0.2h0c-1.6-1.8-5-1.6-5.7-3.6c-0.4-1.2,0.4-2.2,1.7-3.4c1-1,3.3,0.3,4.8,0.5c2.4,0.3,7,2.4,7.6-0.1
				c0.1-0.5-0.6-0.8-1.7-0.9c-3-0.5-8,1.4-10-1.4c-1.2-1.7,0-3.8,0.6-5.2c0.2-0.4,0.5-2.2-0.5-2.3c-0.8,0-0.9,0.4-1.6,0.5
				c-1.3,0.1-0.8-0.9-1.6-2.1c-0.9-1.3,3.1-3.9,1.5-4.2c-1.1-0.2-1.6,2.8-2.5,2.4c-1.1-0.5,0.1-2.2,0.7-3.7c1-2.6,3.2-6.2,1.1-8.2
				c-0.6-0.6-0.8-1.2-1.2-0.8c-0.4,0.4-0.4,1-0.5,1.7c-0.1,0.4,0,0.6,0.1,1c0.4,2,1.1,4.2-0.4,5.2c-0.3,0.2-0.4-1-0.7-0.5
				c-0.7,1.1-0.8,6.1-2.5,5c-1.3-0.8,1-2.9,0.7-4.9c-0.1-0.5,0.3-2-0.3-1.6c-0.6,0.5-0.1,1.7-0.8,1.6c-0.4,0-0.4-1-0.6-0.5
				c-0.5,1.2-0.5,5.5-1.6,4.1c-0.8-1,0.9-3.5-0.3-3.5c-0.9,0,0.3,3-0.8,2.8c-1-0.2-2.1-2-1.4-2.7c-0.5-0.1-1-0.4-1.4-0.9
				c0.3,2,2.4,3.7,1,5.4c-0.6,0.7-1.3,0-3.1-0.1c-0.9,0-1.7,0.8-2.4,0.5c-1.7-0.8-2.6-2.4-4.1-3.9c-0.5-0.5-0.4-2.6-1.6-2.2
				c-0.9,0.3,0.5,1.8,0.8,2.3c1.2,1.8,4.2,2.7,3.6,4.7c-0.3,1.2-1.7,1.8-3.5,1.7c-1.9-0.1-5.3-1.6-7.3-2.5c-0.1,0.3-0.4,0.6-0.6,0.8
				c2.4,0.7,4.9,1.2,6.9,2.6c0.7,0.5-0.2,2.4-0.1,2.8c0.1,0.6,1.2,0.6,1.2,0.9c-0.1,0.6-0.5,0.4-0.7,0.9c-0.3,0.6,1,1,0.9,1.6
				c-0.1,1.5-0.1,2.2-0.5,3.1c-0.1,0.2-0.5,1.3-0.2,1.5c0.4,0.3,1.2-0.3,1.5,0.7c0.8,2.4,1.8,3.3,3.4,5.1c0.3,0.4-1.4,1.7-1,1.7
				c0.6,0,0,0.4,0.5,0.4c0.6,0,0.9-2.1,1.5-2.1c0.6,0,0.4,0.7,1,0.7c1.9-0.1,2.3,2,3.7,2c1.5,0,1.6-0.9,2.7-1.3
				c1.5-0.6,1.8-1.8,3-1.8c2.9,0,4.1,3.6,3.8,5.7c-0.1,0.7-0.1,0.7,0,1.1c1.4,3.6,1.5,8.3,5.1,8c0.2,0,0.2,0,0.4-0.1
				C997.9,174.1,994.8,170.7,993.3,169.2z"/>
			<path opacity="0.8" fill-rule="evenodd" clip-rule="evenodd" fill="#CE1E4A" d="M939.2,161.3c1.2-2.6,3.6-3.8,2.1-5.3
				c-1.7-1.6,0.6-3.1-1.8-5.3c-0.3-0.3,0.8-0.7,0.4-1.2c-0.4-0.6-1.1,0.1-1.6-0.3c-0.5-0.4,0.6-1.4,0.3-1.9c-0.4-0.8-1.7,0.5-2.2,0
				c-0.3-0.3-0.2-0.8-0.4-1.2c-0.7-1-0.8-1.2-2.3-0.6c-0.6,0.2-1.6,0.6-1.7,0.2c-0.1-0.7-0.2-1-0.8-1c-1.5,0-2.3,0.1-3.5-0.2
				c-1-0.3-2.7,1.8-3.9,3.5c-0.6,0.6-2.6,0.3-2.7,1c-0.2,0.9,0.5,1.3,0.3,1.9c-0.3,0.8-2.2,0.2-2.3,0.9c-0.1,2-1.5,3.8-0.9,4.3
				c1,0.7,0.2,1.7,0.4,3.5c0.2,1.6,1.3,0.8,2.2,2.1c1.1,1.6,1,2.5,1.6,3c0.5,0.4,1.4-1,2-0.7c0.4,0.3,0,0.9,0.4,1.2
				c0.5,0.2,1-0.3,1.6-0.3c0.6,0,0.2,1,0.8,1.3c1.2,0.6,2.5-1.7,3.6-1.2c0.5,0.2,0.5,1.6,1.3,1.4c0.7-0.2,0.7-1.3,0.9-1.8
				c0.1-0.2,0.4-0.4,0.8-0.5c0.8-0.1,1,1.3,1.4,0.7C936.5,163,938.3,163.5,939.2,161.3z"/>
			<path opacity="0.95" fill-rule="evenodd" clip-rule="evenodd" fill="#EE5A24" d="M949,81c0.2-0.3,1.6-1.2,2.5-1.5
				c4.2-1.6,2.3-5.6,7.4-3.7c1.5,0.6,3.5,0.4,4.6,1c1.3,0.6,1.5,1.9,3.1,2.2c4.7,1,3.7,9.1,1.9,12.7c-3,6.1-11.9,6.7-16.9,2.7
				c-2.6-2-4.4-5.4-3-9.9C949.1,83.1,948.7,81.5,949,81z"/>
			<path opacity="0.95" fill-rule="evenodd" clip-rule="evenodd" fill="#F1D616" d="M957.3,71.8c1,1.5,3.7-1.1,2.7-2.2
				C959,68.4,956.8,71.1,957.3,71.8z"/>
			<path opacity="0.95" fill-rule="evenodd" clip-rule="evenodd" fill="#F1D616" d="M964.9,68c-0.1,0.5,0,1.1,0.6,1.4
				c0.8,0.5,1.5-0.5,1.4-1.2C966.8,67.3,965.2,67,964.9,68z"/>
			<path opacity="0.95" fill-rule="evenodd" clip-rule="evenodd" fill="#F1D616" d="M960.2,74.3c-1.7,1,0.2,1.4,1.2,1.2
				C962.4,75.3,961.3,73.6,960.2,74.3z"/>
			<path opacity="0.95" fill-rule="evenodd" clip-rule="evenodd" fill="#F1D616" d="M979.5,73.3c1.3,0.9,2.6-1,1.9-1.9
				C980.4,70.3,977.7,72.1,979.5,73.3z"/>
			<path opacity="0.95" fill-rule="evenodd" clip-rule="evenodd" fill="#F1D616" d="M994,80.4c0.5,0.5,2.3-0.4,2.1-1.1
				C995.9,78.7,993.6,80,994,80.4z"/>
			<path opacity="0.95" fill-rule="evenodd" clip-rule="evenodd" fill="#F1D616" d="M993.5,82.2c-2.4,4.2,1.5,0.5,1.6-0.2
				C995.2,81,993.8,81.6,993.5,82.2z"/>
			<path opacity="0.95" fill-rule="evenodd" clip-rule="evenodd" fill="#F1D616" d="M1014,90.9c0.4-0.9-0.6-1.3-1.2-1.2
				C1011.3,90.2,1013.3,92.6,1014,90.9z"/>
			<path opacity="0.95" fill-rule="evenodd" clip-rule="evenodd" fill="#F1D616" d="M962.8,67.4c0.9,0.2,0.8-0.6,0.4-1.1
				C962,65.1,961.1,67,962.8,67.4z"/>
			<path opacity="0.95" fill-rule="evenodd" clip-rule="evenodd" fill="#F1D616" d="M1012.3,80.5c1.3,0,1.3-2.5,0.1-2.8
				C1010.9,77.3,1011,80.5,1012.3,80.5z"/>
			<path opacity="0.95" fill-rule="evenodd" clip-rule="evenodd" fill="#F1BB23" d="M987.5,58.5c-1.4,0.2-1.9,0.6-2.1,2.7
				c-0.1,1.3,1,2.1,2,2.1c1.5,0,3.1-1.1,2.1-2.2c-0.6-0.6-1.5,0.4-1.6-0.1C987.8,60.5,989.4,58.3,987.5,58.5z"/>
			<path opacity="0.95" fill-rule="evenodd" clip-rule="evenodd" fill="#F1BB23" d="M974.7,76.1c-0.6,0.5,2,1.7,2.7,1.3
				C978.1,77,975.3,75.5,974.7,76.1z"/>
			<path opacity="0.95" fill-rule="evenodd" clip-rule="evenodd" fill="#F1BB23" d="M1008.3,74.8c0.6,1.2,2.6-0.4,2-1.1
				C1009.7,73.2,1007.8,73.8,1008.3,74.8z"/>
			<path opacity="0.95" fill-rule="evenodd" clip-rule="evenodd" fill="#F1BB23" d="M980.1,61.9c-1.7,0.2-0.8,4.2,1.1,3.6
				C982.6,65.1,981.1,61.8,980.1,61.9z"/>
			<path opacity="0.95" fill-rule="evenodd" clip-rule="evenodd" fill="#E32728" d="M915.7,86.5c0-0.2-0.1-0.3-0.2-0.5
				c-0.3-0.5-1.2,0.6-1.1,1.1C914.6,87.7,915.8,87.4,915.7,86.5z"/>
			<path opacity="0.95" fill-rule="evenodd" clip-rule="evenodd" fill="#E32728" d="M908.3,82.8c0.4-0.3,0.5-0.8,0.8-1.2
				c0.3-0.3,0.5,0.5,0.8,0.7c0.7,0.6,0.4-3-0.1-3.4C908.9,78.3,907,83.8,908.3,82.8z"/>
			<path opacity="0.95" fill-rule="evenodd" clip-rule="evenodd" fill="#E32728" d="M912.8,80.7c0.2-0.2,0.4-0.6,0.3-0.9
				c-0.1-0.5-0.9-0.2-0.9,0.4C912.2,80.5,912.5,80.9,912.8,80.7z"/>
			<path opacity="0.95" fill-rule="evenodd" clip-rule="evenodd" fill="#E32728" d="M908.6,78.1c1.3-1.1-0.2-2.9-1.1-2
				C906.3,77.2,907.7,78.8,908.6,78.1z"/>
			<path opacity="0.95" fill-rule="evenodd" clip-rule="evenodd" fill="#E32728" d="M950.6,87.5c0-0.4,0-0.8-0.2-1
				C948.4,83.9,950.5,91.1,950.6,87.5z"/>
			<path opacity="0.95" fill-rule="evenodd" clip-rule="evenodd" fill="#E32728" d="M955.5,87.5c0.8-0.7,1.2-2.7,0.3-3
				C954.1,84.1,953,89.5,955.5,87.5z"/>
			<path opacity="0.95" fill-rule="evenodd" clip-rule="evenodd" fill="#E32728" d="M913.5,70.7c0.3,0.5,0.7,0.2,1-0.1
				c0.2-0.2,0.1-0.7,0-1C914,68.7,913.1,70.1,913.5,70.7z"/>
			<path opacity="0.95" fill-rule="evenodd" clip-rule="evenodd" fill="#E32728" d="M914,68c0.6-1-0.1-2-0.9-2
				C911.2,66,912.9,69.9,914,68z"/>
			<path opacity="0.95" fill-rule="evenodd" clip-rule="evenodd" fill="#E32728" d="M918.9,69.7c1.2-1.3-1-3.8-2-2.6
				C915.8,68.4,917.9,70.9,918.9,69.7z"/>
			<path opacity="0.95" fill-rule="evenodd" clip-rule="evenodd" fill="#E32728" d="M910.2,65.5c0.3,0.4,0.8-0.3,0.8-0.7
				c0-0.3-0.3-0.7-0.7-0.5C909.7,64.6,910,65.3,910.2,65.5z"/>
			<path opacity="0.95" fill-rule="evenodd" clip-rule="evenodd" fill="#E32728" d="M942.9,73.2c0.4-0.1,0.9-0.7,1-1.3
				C944.4,69.1,940.3,74,942.9,73.2z"/>
			<path opacity="0.95" fill-rule="evenodd" clip-rule="evenodd" fill="#E32728" d="M927.8,64.9c0.7-1.2,0.1-2.6-1-2.3
				c-0.3,0.1-0.6,0.4-0.8,0.7C925,64.4,927.1,66,927.8,64.9z"/>
			<path opacity="0.95" fill-rule="evenodd" clip-rule="evenodd" fill="#E32728" d="M947.1,71.3c1.1-1.4-0.7-2.3-1.2-1.1
				C945.5,71,946.5,72.1,947.1,71.3z"/>
			<path opacity="0.95" fill-rule="evenodd" clip-rule="evenodd" fill="#E32728" d="M912.9,59c0.6-0.3,0.6-1.5,0-1.7
				C912.3,57.2,912,59.5,912.9,59z"/>
			<path opacity="0.95" fill-rule="evenodd" clip-rule="evenodd" fill="#E32728" d="M937.7,66.4c0.3,0.5,0.7,0.4,1.1,0.1
				c0.7-0.4,0.4-1.8-0.5-1.6C937.9,65,937.5,66.1,937.7,66.4z"/>
			<path opacity="0.95" fill-rule="evenodd" clip-rule="evenodd" fill="#E32728" d="M948.4,64.1c0.8,1,1.7,0.4,2.1-0.7
				C951.5,60.3,946.7,61.9,948.4,64.1z"/>
			<path opacity="0.95" fill-rule="evenodd" clip-rule="evenodd" fill="#E32728" d="M936.7,63.6c0.2,0.8,0.9-1.4,0.3-0.9
				C936.8,62.9,936.6,63.3,936.7,63.6z"/>
			<path opacity="0.95" fill-rule="evenodd" clip-rule="evenodd" fill="#E32728" d="M955.5,65.8c-0.4-1.8-2.7-0.2-2.9,0.9
				C952.4,68.4,956,68.2,955.5,65.8z"/>
			<path opacity="0.95" fill-rule="evenodd" clip-rule="evenodd" fill="#E32728" d="M935.5,90.9c0.6,0,0.6,1.6-0.1,1.4
				C935.3,91.9,935.1,91.6,935.5,90.9z"/>
			<path opacity="0.95" fill-rule="evenodd" clip-rule="evenodd" fill="#E32728" d="M945.6,89.2c2.2-2.1-1-5.6-2.8-3.8
				C940.7,87.4,944.1,90.7,945.6,89.2z"/>
			<g opacity="0.8">
				<path fill="#9A1F61" d="M935.6,148.3c0.1-0.1,0.3-0.3,0.4-0.5c1.5-2.6-0.3-6.2-3.2-7.1c-0.8-0.3-1.9,0.2-2.5-0.5
					c-0.2-0.3-0.1-0.9-0.2-1.3c-0.1-0.3-1.2-2.2-1.6-2.4c-2.5-1.8-7.7-2.1-9.1,0.7c-0.5,1-0.4,0.9-0.9,2c0,0.1-0.1,0.7-0.1,1.4
					c-3.2-0.5-6.4,1.2-4.8,4.1c0.2,0.3,1,0.6,0.7,0.9c-0.2,0.3-0.6-0.1-0.7,0.1c-0.2,0.2,0,0.5-0.2,0.9c-0.3,0.6-1.1,0.5-1.8,0.9
					c-4.8,2.4-0.1,10.2,5.2,10.7c1.5,0.2,3,0,4-0.4c0.3-0.1,0.1-0.3,0.5-0.5c1-0.4,1.3-0.3,1.7-1.1c0.1-0.2,0.2-1.1,0.7-0.9
					c1.4,0.4,0.8,2.8,1.7,3.6c1.9,1.5,5.6,0.9,6.6-0.8c0.3-0.5,1-0.8,1.4-1.2c1.2-1.3-0.2-3.3-0.7-4c-0.2-0.2-0.9-0.3-1.1-0.9
					c-0.1-0.6,0.7-1.2,0.9-2c0.1-0.4,1.2,0.1,1.5-0.2c0.3-0.3,0.8-0.7,0.9-0.4c0.4,1.3,2.1,2,2.5,0.2
					C937.5,149,936.9,148.3,935.6,148.3z"/>
			</g>
			<path opacity="0.95" fill-rule="evenodd" clip-rule="evenodd" fill="#532260" d="M912.3,135.7c1.1-2.6,3.5-3.8,2-5.3
				c-1.7-1.7,0.5-3.2-1.9-5.4c-0.4-0.3,0.8-0.7,0.4-1.2c-0.4-0.6-1.1,0.1-1.6-0.3c-0.5-0.4,0.6-1.4,0.3-1.9c-0.4-0.8-1.7,0.5-2.2,0
				c-0.3-0.3-0.2-0.8-0.4-1.2c-0.7-1-0.9-1.2-2.3-0.7c-0.6,0.2-1.6,0.6-1.7,0.1c-0.2-0.7-0.2-1-0.9-1c-1.6,0-2.4,0.1-3.5-0.3
				c-1.1-0.3-2.7,1.8-3.9,3.5c-0.6,0.6-2.6,0.3-2.7,1c-0.2,0.9,0.5,1.4,0.3,1.9c-0.3,0.8-2.3,0.1-2.3,0.9c-0.1,2.1-1.5,3.8-0.8,4.4
				c1,0.8,0.2,1.7,0.5,3.6c0.2,1.6,1.4,0.9,2.3,2.2c1.1,1.6,1,2.6,1.7,3.1c0.5,0.4,1.4-1,2-0.7c0.4,0.3,0,1,0.4,1.2
				c0.5,0.2,1-0.3,1.6-0.2c0.6,0,0.2,1,0.9,1.3c1.2,0.6,2.5-1.6,3.6-1.2c0.5,0.2,0.5,1.6,1.3,1.4c0.7-0.2,0.6-1.4,0.9-1.8
				c0.1-0.2,0.4-0.4,0.9-0.4c0.8-0.1,1.1,1.4,1.5,0.7C909.6,137.4,911.4,137.9,912.3,135.7z"/>
			<g opacity="0.8">
				<path fill-rule="evenodd" clip-rule="evenodd" fill="#0473B8" d="M994.3,163.6c-0.2-0.2-0.5-0.3-0.7-0.5
					c-1.4-0.9-2.4-2.7-3.6-1.8c-0.2,0.1-0.4,0.3-0.4,0.4c0,0.6,1,1.1,1.4,1.9c0.7,1.2,1.9,2.1,3.3,2.8V163.6z"/>
				<path fill-rule="evenodd" clip-rule="evenodd" fill="#0473B8" d="M930.9,152.2c-0.5-0.4,0.4-0.1,0.9-0.7c0.5-0.5,1.7,0.2,2.6,0
					c0.2-0.1-0.3-0.2-0.1-0.3c0.8-0.6,2.1-0.4,2.6,0.2c0.2,0.2-0.4,0-0.6,0C934.1,151.4,931.9,152.9,930.9,152.2z"/>
				<path fill-rule="evenodd" clip-rule="evenodd" fill="#0473B8" d="M941.2,175.4c-0.5-1,1.4-3.2,2.7-2.4c0.4,0.3,0.8,0.3,1.1,0.2
					c1.8-0.5,1.9-2.6,3.7-3.4c0.5-0.2,0.7-0.1,1.4-0.2c0.3-0.1,0.2,0.2,0.4,0.2c0.5,0,0.9-0.7,1.3-0.2c0.5,0.7-1.4,0.9-2.2,1.3
					c-2.7,1.5-3.2,5.3-7,5.4C942,176.2,941.5,175.8,941.2,175.4z"/>
				<path fill-rule="evenodd" clip-rule="evenodd" fill="#0473B8" d="M942.5,144.9c-0.4-0.3,1.2-0.4,1.9-0.1
					C945.3,145.3,943,145.3,942.5,144.9z"/>
				<path fill-rule="evenodd" clip-rule="evenodd" fill="#0473B8" d="M949.6,145.6c-0.5-0.4,0.9-0.5,1.3,0
					C951.2,145.9,949.9,145.9,949.6,145.6z"/>
				<path fill-rule="evenodd" clip-rule="evenodd" fill="#0473B8" d="M951.1,145.9c-0.1,0-0.1-0.2,0-0.2c0.1-0.1,0.2-0.1,0.3,0
					c0.1,0,0.1,0.2,0,0.2C951.3,145.9,951.1,145.9,951.1,145.9z"/>
				<path fill-rule="evenodd" clip-rule="evenodd" fill="#0473B8" d="M947.7,159.5c-0.2-0.2-0.2-0.5,0-0.7c0.6-0.6,1.5,0.7,1,1
					C948.4,160,948.1,159.8,947.7,159.5z"/>
				<path fill-rule="evenodd" clip-rule="evenodd" fill="#0473B8" d="M965.4,148.9c-0.2,0.2-0.6-0.4-0.4-0.6
					C965.2,148.1,965.6,148.7,965.4,148.9z"/>
				<path fill-rule="evenodd" clip-rule="evenodd" fill="#0473B8" d="M978.9,143.3c-0.2-0.2,0.3-1.5,0.3-1.5s1.7-2.8,4.1-2.2
					c1.6,0.3,3.9,0.1,4,2.1c0.1,1.5,1.5,3.6-0.7,4.5c-3.8,1.5-2.7-1.5-6-2.4C980.6,143.7,979.1,143.6,978.9,143.3z"/>
				<path fill-rule="evenodd" clip-rule="evenodd" fill="#0473B8" d="M981.1,165.9c0.5-0.2,1.5-0.2,2.1,0.1c1.9,0.9,3.5,3.7,1.9,4.6
					c-1.5,0.7-2.6-1.6-3.7-2.8C981,167.1,980.5,166.2,981.1,165.9z"/>
				<path fill-rule="evenodd" clip-rule="evenodd" fill="#0473B8" d="M975.1,167.3c-0.1,0.6-0.6,0.6-1.2,0.8
					c-0.9,0.3-2.1,0.3-2.5-0.3c-0.7-1,0.5-2.2,1.8-2.1C974.2,165.8,974.9,166.3,975.1,167.3z"/>
				<path fill-rule="evenodd" clip-rule="evenodd" fill="#0473B8" d="M987,172.3c0.2,0,1.4,0.2,1.6,0.3c0.6,0.4,1.3,0.7,1.6,1.2
					c0.4,0.8-1.6,3.1-3.7,2.2c-1.3-1.3,0.1-2.1,0.3-2.8C986.8,173,986.9,172.3,987,172.3z"/>
				<path fill-rule="evenodd" clip-rule="evenodd" fill="#0473B8" d="M938.2,151.2c-1.1-0.2,0.8,0,1.7-0.2c1.1-0.3-1.1,0.9-1.5,0.6
					C938.1,151.4,938.6,151.2,938.2,151.2z"/>
				<path fill-rule="evenodd" clip-rule="evenodd" fill="#0473B8" d="M938.6,143.8c-0.6,1.3-5.6,0.5-5.9-0.9
					c-0.2-1.2,2.8-0.1,4.3,0.2C938.1,143.3,939,142.9,938.6,143.8z"/>
				<path fill-rule="evenodd" clip-rule="evenodd" fill="#0473B8" d="M946.2,151.8c0.3-0.2,1.1-0.3,1.4-0.3c0.7-0.2,2.3-1,2.9-0.5
					c1.7,1.4-1.2,1.1-2.1,1.3c-0.1,0-1,0.4-1.4,0.5c-0.3,0-1-0.1-1.2-0.3C945.8,152.3,946.1,151.9,946.2,151.8z"/>
				<path fill-rule="evenodd" clip-rule="evenodd" fill="#0473B8" d="M950.5,146.6c-0.7,0.6-2.4-0.1-3.3-0.5c-0.9-0.4-2,0-2-0.8
					c0-0.6,1.7,0.2,2.3,0.3c0.7,0.1,2.2,0,2.7,0.5C950.3,146.3,950.8,146.4,950.5,146.6z"/>
				<path fill-rule="evenodd" clip-rule="evenodd" fill="#0473B8" d="M951.2,146.8c-0.3-0.4,1.1,0.2,1.1-0.2c0-0.2-0.2-0.1-0.4-0.3
					c-0.4-0.4,0.8-0.1,1.1,0.2c1,0.7,3.1,0.7,2.9,1.3C955.8,148.4,951.9,147.8,951.2,146.8z"/>
				<path fill="#0473B8" d="M966.3,146.9c-0.2,0.1-0.2,0.2-0.1,0.3c0.1,0.3,0.3,0.2,0.6,0C967.1,147.1,966.5,146.9,966.3,146.9z"/>
				<path fill="#0473B8" d="M966.5,147.7c-0.1,0.1-0.1,0.3,0,0.3c0.7,0.3,1.3,0.9,1.3,0.4C967.8,148,967.1,147.2,966.5,147.7z"/>
				<path fill="#0473B8" d="M991.9,148.9c-2.5,0.2-4.9,0.4-7,0.9c-0.9,0.2-1.8,1.3-2.7,1.2c-1.5-0.2-0.9-1.9-2.1-2.9
					c-1.5-1.3-3.7-1.1-5.1-1.3c-1-0.2-3.1-1.4-3.7,0.8c0,0.1,0.4,0.3,0.4,0.4c0,0.2-0.6,0.1-0.9,0.1c0,0,0,0,0,0
					c-0.1,0-0.4,0-0.5,0.1c-0.1,0.1,0.3,0.5-0.1,0.5c-0.3,0-0.5-0.6-0.6-0.3c-0.2,0.6-0.1,1-0.7,1c-0.5,0,0.3-0.9-0.2-0.7
					c-0.7,0.2-1.4-0.3-1.7-0.1c-0.6,0.4,0.3,1.4,0.9,1.4c0.3,0,0,0.1,0.2,0.2c0.1,0.1,0.6,0,0.3,0.2c-0.1,0.1-0.3,0.1-0.4,0
					c-0.1,0-0.2-0.1-0.3-0.1c-0.6-0.2-1.1-1.4-1.5-1.1c-0.4,0.4,0.9,0.7,0.6,1.3c-0.1,0.3-0.3,0.2-0.7,0.1c-2-0.3-2.6-2.1-4.3-1.9
					c-0.6,0.1-0.6-0.1-1.1-0.3c-1.2-0.4-2.7-1.2-2.8-0.4c-0.3,1.4,4.3,0.7,5.7,1.6c0.6,0.3,0.9,1.4,1.2,2c0.1,0.3-1,0.2-0.7,0.4
					c0.5,0.4,2.2,0.1,1.4,0.5c-0.3,0.2-1.4,0.2-1.7,0.3c-2.5,1.2,0,1.6,0.3,2.8c0.1,0.3,0.9,0.3,1,0.7c0,0,0,0.1,0,0.1
					c-0.4,0.5-3-1.7-3.3-0.8c-0.2,0.6,2.2,1,2.1,1.4c0,0.4-0.6-0.3-1.2-0.3c-0.2,0-0.3,0.2-0.4,0.3c-0.5,0.6,1.7,0.3,1,0.8
					c-0.6,0.4-1.6-0.8-2-0.4c-0.5,0.5,1.2,0.3,0.6,0.7c-0.6,0.4-2.9-0.8-3.7-0.3c-2.1,1.3-6.2-0.1-5.8,1.3c0.5,2,8.3-1.3,9.7,0.4
					c0.7,0.9,0.8,1.7,0.1,2.4c-0.4,0.4-0.2,0.1-0.5,0.4c-1.6,1.6-4.6,3-7.1,4.4c-1.3,0.7-3.3,1.1-2.5,1.7c3.9,2.7,7.1-7.3,12.4-5.4
					c0.7,0.2,1,1,1.1,1.6c0,0.2-0.5,0-0.6,0.2c-0.1,0.9-3.2,1.7-2.6,2.6c0.1,0.1,0.5,0.1,0.3,0.2c-0.7,0.3-1.1,1.3-1.9,1.6
					c-2.2,0.8,0,3.3-2.1,4.6c-0.1,0.1-0.5,0.6-0.4,0.9c0.2,0.3,1.1,0.4,1.4,0.1c1.2-1,1.2-2.4,2.1-3.7c0.8-1.1,0.4-2.4,1.4-3.5
					c1.1-1.3,2.5-2.7,4.2-3.7c0.5-0.3,1.4-1.3,2.3-1.2c0.8,0.2,1.6,1.8,2.4,1.6c0.8-0.2,0.1-1.9,0.6-2.3c1.2-0.9,3.5-0.6,4.4-0.3
					c1.5,0.5,1.9,5,4.5,3.1c1.4-1-5.6-2.1-1-5.4c1.7-1.2,0.9-3.8,2.7-5.3c0.5-0.4,1.5-0.5,2.3-0.5c1.5,0.1,4.4,0.6,4.3-0.7
					c0-0.8-2.9,0.1-4.3,0c-0.4,0-0.9,0-1.1-0.2c-0.3-0.2-1-0.4-0.6-0.7c0.4-0.3,0.7-0.5,1.1-0.6c1.7-0.6,4.5-1.1,6.1-1.7
					c0.2-0.1,0.1-0.3,0.3-0.3c0.2-0.1,0.3-0.1,0.5-0.1C991.8,149.2,991.9,149,991.9,148.9z M964.1,158c-0.1,0.1-0.2,0-0.3-0.1
					c-0.1-0.1,0.2-0.3,0.4-0.2C964.4,157.8,964.3,157.9,964.1,158z M965,155.5c-0.2,0.1-0.5-0.1-0.6-0.2c-0.1-0.2,0.5-0.4,0.7-0.2
					C965.2,155.2,965.2,155.4,965,155.5z M965.4,154.1c-0.2,0.2-0.9-0.1-1-0.3c-0.3-0.4,1-0.5,1.2-0.1
					C965.6,153.9,965.5,154.1,965.4,154.1z M966,151.7c-0.1-0.1,0.2-0.3,0.4-0.2C966.6,151.6,966.1,151.8,966,151.7z"/>
				<path fill="#0473B8" d="M970.6,148.2C970.6,148.2,970.6,148.2,970.6,148.2C970.6,148.2,970.6,148.2,970.6,148.2z"/>
			</g>
			<path opacity="0.8" fill-rule="evenodd" clip-rule="evenodd" fill="#239B8F" d="M985.7,133.1c0.6,0.2,0.5,2-0.2,2.1
				C984.9,135.2,985.2,132.9,985.7,133.1z"/>
			<path opacity="0.8" fill-rule="evenodd" clip-rule="evenodd" fill="#239B8F" d="M987.7,131.2c-0.2,0.2-0.4,0.4-0.6,0.7
				c-0.4,0.5-0.4,1.8,0.4,1.3c0,0,0.1-0.1,0.2-0.2V131.2z"/>
			<path opacity="0.8" fill-rule="evenodd" clip-rule="evenodd" fill="#0973B7" d="M998.3,135.2c2.6,1.2,3.4,2.5,2.7,7.3
				c-0.4,2.9-3.1,4.1-5,3.5c-2.9-0.9-5.5-4.3-3.1-6.1c1.4-1.1,2.8,1.9,3.3,0.6C996.6,139.4,994.5,133.4,998.3,135.2z"/>
			<path opacity="0.8" fill-rule="evenodd" clip-rule="evenodd" fill="#9BB154" d="M1015.3,131.8c3.2,0.9-0.4,7.5-2.8,7.4
				C1010.5,139.1,1013.6,131.3,1015.3,131.8z"/>
			<path opacity="0.8" fill-rule="evenodd" clip-rule="evenodd" fill="#0973B7" d="M979.9,136.9c0.6-0.6,0.9,4.9-0.4,3.4
				C978.2,139,979,137.9,979.9,136.9z"/>
			<path opacity="0.8" fill-rule="evenodd" clip-rule="evenodd" fill="#0973B7" d="M985.5,134.1c0.5,0.8-2.5,1.4-3.1,0.7
				C981.8,134.1,985,133.3,985.5,134.1z"/>
			<path opacity="0.8" fill-rule="evenodd" clip-rule="evenodd" fill="#0973B7" d="M970.8,149.2c-0.9-0.9,1.4-1.5,2.8-0.7
				C975.7,149.8,971.7,150,970.8,149.2z"/>
			<path opacity="0.8" fill-rule="evenodd" clip-rule="evenodd" fill="#0973B7" d="M1011.3,147.1c3.3,1.4-0.6,9.9-4.2,7.5
				C1004.4,152.8,1009.2,146.2,1011.3,147.1z"/>
			<path fill-rule="evenodd" clip-rule="evenodd" fill="#F5E920" d="M980.4,120c11.5-2.2,11,14.4,0,12.6
				C973,131.5,972.4,121.6,980.4,120z M984.8,125c-0.5,0.4,0.1,1.1,0.5,1.4c0.3,0.1,1.3,0.1,1.6,0.3c0.8,0.3,0.6-1.2,0.5-1.6
				C987.2,123.8,985.8,124.2,984.8,125z"/>
			<path opacity="0.8" fill-rule="evenodd" clip-rule="evenodd" fill="#F8B818" d="M990.8,134.1c0.4,0.1,1.5,1.1,2.1,1.9
				c2.6,3.4,6.2,0.9,5.4,5.7c-0.2,1.4,0.3,3.2,0,4.3c-0.4,1.3-1.6,1.7-1.6,3.2c-0.1,4.4-8.5,5.3-12.5,4.5c-6.9-1.4-9.4-9.1-6.4-14.4
				c1.5-2.7,4.5-5.1,9.4-4.8C988.6,134.6,990.1,133.9,990.8,134.1z"/>
			<path opacity="0.8" fill-rule="evenodd" clip-rule="evenodd" fill="#F07023" d="M987.1,101.5c2.1,0.9,5.9,0.9,7.3,2.1
				c0.9,0.8,2.2,2.3,2.9,3.7c1,2.1,1.4,4.6,0.2,7c-2.6,5.1-8.3,1.7-10.6,4.6c-1.2,1.4-1.2,3.9-2.4,4.7c-1.2,0.8-4,1.2-5.7,0.7
				c-4.4-1.3-5.1-6-2.4-8.9c0.4-0.4,1-0.5,1.4-0.9c0.5-0.6,0.1-1.4-0.4-1.8c-2.5-2.4-8.1-2.1-9.9-4c-1.7-1.8-3.2-6.4-1.9-9.6
				c0.8-1.9,2.4-3.7,3.6-4.6c1.5-1.1,4.9-2.8,7.1-2.4c1.1,0.2,2.9,0.3,4.5,1.3c2,1.2,3.4,2.8,4.6,4.2
				C986.3,98.5,985.6,100.8,987.1,101.5z M976.8,94.5c-0.5-0.1-0.4-1.2,0.1-1.4C977.5,93,980.9,95.6,976.8,94.5z"/>
			<path opacity="0.8" fill-rule="evenodd" clip-rule="evenodd" fill="#9A1F61" d="M877,104.6c0.8-0.7,1.6,1.6,1.1,2.6
				c-0.3,0.5-0.7,1-1.4,0.8c-0.5-0.1-0.7-1-0.8-1.5C875.9,105.7,876.4,105.2,877,104.6z"/>
			<path opacity="0.8" fill-rule="evenodd" clip-rule="evenodd" fill="#9A1F61" d="M896.7,96.1c1.4-0.8,2.1,2.7,0.6,2.9
				c-0.9,0.1-1.4-0.5-1.7-0.9C895,97.3,895.8,96.6,896.7,96.1z"/>
			<path opacity="0.8" fill-rule="evenodd" clip-rule="evenodd" fill="#9A1F61" d="M888.2,95.6c1.6-1.1,2,3.1,0.9,3.9
				c-0.7,0.5-1.3,0.3-1.9-0.2c-0.4-0.3,0-0.6-0.5-1.3C886.1,97.2,887.3,96.2,888.2,95.6z"/>
			<path opacity="0.8" fill-rule="evenodd" clip-rule="evenodd" fill="#9A1F61" d="M900.6,103.5c0.5-0.4,0.3,1.8-0.2,1.8
				C899.7,104.9,900.1,103.9,900.6,103.5z"/>
			<path opacity="0.8" fill-rule="evenodd" clip-rule="evenodd" fill="#9A1F61" d="M960.8,65.4c0.9-0.2,1.8-0.7,2.7-1.3
				c1.7-3.6,1.7-7-0.8-6.6C960.1,58,959.9,63.8,960.8,65.4z"/>
			<path opacity="0.8" fill-rule="evenodd" clip-rule="evenodd" fill="#9A1F61" d="M904.2,106.5c1.8,0.4-0.8,2.7-1.3,1.4
				C902.7,107.1,903.3,106.3,904.2,106.5z"/>
			<path opacity="0.8" fill-rule="evenodd" clip-rule="evenodd" fill="#9A1F61" d="M888.2,104c-1.7-1-0.1-3.1,0.8-4
				C892.9,96.5,891.5,105.9,888.2,104z"/>
			<path opacity="0.8" fill-rule="evenodd" clip-rule="evenodd" fill="#9A1F61" d="M907.5,123.9c0.1-0.1,0.4-0.1,0.5,0
				c0.1,0.1,0.1,0.4,0,0.5c-0.1,0.1-0.4,0.1-0.5,0C907.4,124.3,907.4,124,907.5,123.9z"/>
			<path opacity="0.8" fill-rule="evenodd" clip-rule="evenodd" fill="#9A1F61" d="M903.2,127.6c0.2-0.2,0.7-0.2,0.9,0
				c0.2,0.2,0.3,0.6,0,0.8c-0.2,0.2-0.7,0.2-0.9,0C903,128.2,903,127.8,903.2,127.6z"/>
			<path opacity="0.8" fill-rule="evenodd" clip-rule="evenodd" fill="#9A1F61" d="M904.1,134.7c0.1-0.3,0.6-0.7,0.9-0.7
				c0.4,0,0.7,0.4,0.6,0.8c-0.1,0.3-0.6,0.7-0.9,0.7C904.3,135.5,904,135,904.1,134.7z"/>
			<path opacity="0.8" fill-rule="evenodd" clip-rule="evenodd" fill="#9A1F61" d="M897.7,145.4c0.9,1.3,0,1.5-1,3.2
				c-0.6,1-1.7-0.6-1.5-1.5C895.4,146.1,896.9,144.3,897.7,145.4z"/>
			<path opacity="0.8" fill-rule="evenodd" clip-rule="evenodd" fill="#9A1F61" d="M908.4,152.5c-0.8-0.6,1.2-1.6,1.8-1.1
				C911,152,909,153,908.4,152.5z"/>
			<path opacity="0.8" fill-rule="evenodd" clip-rule="evenodd" fill="#9A1F61" d="M900.2,166c-0.1-1.3,0.7-2.2,1.5-2.9
				c4.6-4.3,1.5,10.6-1,4.8C900.4,166.9,900.3,166.6,900.2,166z"/>
			<path opacity="0.8" fill-rule="evenodd" clip-rule="evenodd" fill="#9A1F61" d="M907.7,125.7c1.1,0.8-2.1,3.4-3,2.2
				C903.8,126.7,906.4,124.8,907.7,125.7z"/>
			<path opacity="0.8" fill-rule="evenodd" clip-rule="evenodd" fill="#9A1F61" d="M876.6,163.6c0.2-0.4-1.1-0.3-1.2-0.7
				c0-0.2-0.1-0.6,0.2-0.8c0.4-0.2,0.1,0,0.5-0.3c0.5-0.4,1.4,0.2,1.7,0.7c0.4,0.8-0.4,0.9-1.1,1.6
				C876.4,164.3,876.5,163.8,876.6,163.6z"/>
			<path opacity="0.8" fill-rule="evenodd" clip-rule="evenodd" fill="#9A1F61" d="M889.2,159.5c0.6-0.9,1.8,1.1,1.2,1.9
				c-0.4,0.6-0.5-1.4-1.2-1.1C888.9,160.3,889,159.8,889.2,159.5z"/>
			<g opacity="0.8">
				<path fill-rule="evenodd" clip-rule="evenodd" fill="#802A89" d="M907.5,91.7c0,0-0.2,0-0.2,0c-0.7-1-0.6-4.9,0.7-5
					c1.2-0.1,1.1,3.4,0.6,4.5c-0.1,0.4-0.9,1.2-1.2,1C907.3,92.1,907.6,91.8,907.5,91.7z"/>
				<path fill-rule="evenodd" clip-rule="evenodd" fill="#802A89" d="M920,103.5c0.4,0.1,0.3,1.3,0,1.6c-0.2,0.2-1.1,0.4-1.2,0.1
					C918.6,104.8,919.5,103.4,920,103.5z"/>
				<path fill-rule="evenodd" clip-rule="evenodd" fill="#802A89" d="M928.2,116.8c-0.4,0.4-1.8,0.4-2-0.1c-0.2-0.6,1.2-2.1,1.8-1.9
					C928.4,114.9,928.5,116.4,928.2,116.8z"/>
				<path fill-rule="evenodd" clip-rule="evenodd" fill="#802A89" d="M892,109.4c0.1,0.4-0.7,1.3-1.2,1.3c-0.5,0-1-0.9-1.1-1.4
					c0-0.2,0.2-0.6,0.4-0.7C890.6,108.5,891.9,108.9,892,109.4z"/>
				<path fill-rule="evenodd" clip-rule="evenodd" fill="#802A89" d="M901.4,126.2c0.5-0.2,0,0.8,0.2,1.4c0.6,2.1-0.9,4.5-1.5,6.6
					c-0.2,0.8-0.1,2.6-0.7,2.2C896.8,134.6,898.2,127.7,901.4,126.2z"/>
				<path fill-rule="evenodd" clip-rule="evenodd" fill="#802A89" d="M880.2,125c-0.3,0-0.2-0.3-0.3-0.6c-0.3-1.2,3.1-2.8,3.6-1.6
					c0.1,0.1,0,0.2,0,0.3C883.7,124.3,881.4,125,880.2,125z"/>
				<path fill-rule="evenodd" clip-rule="evenodd" fill="#802A89" d="M897.3,125.3c1.1,0-0.9,1.9-1.3,3.1c-0.2,0.7-1.3,2.4-1.7,1.5
					C893.6,128.3,895,125.2,897.3,125.3z"/>
				<path fill-rule="evenodd" clip-rule="evenodd" fill="#802A89" d="M898.6,140.8c0.2-0.1,0.2,0.5,0,0.6
					C898.4,141.6,898.4,140.8,898.6,140.8z"/>
				<path fill-rule="evenodd" clip-rule="evenodd" fill="#802A89" d="M898.5,141.5c0.8,0.1,0.1,2.9-0.6,2.7
					C896.8,143.8,897.6,141.4,898.5,141.5z"/>
				<path fill-rule="evenodd" clip-rule="evenodd" fill="#802A89" d="M922.1,127c0.2-0.5,0.7-0.9,1.3-0.9c0.3,0,2.4,0.9,2.6-0.2
					c0.3-1.1-0.1-2.1-0.7-2.4c-0.3-0.1-0.9,0.4-1.1,0.2c-0.3-0.3,0.1-1.5,0.3-1.9c0.3-0.5,1.6-1.2,1.7-1c0.3,0.3-0.6,0.9-0.4,1.2
					c0.4,0.5,2.2,0.3,2.7-0.2c0.4-0.3,0.6-1.3,0.5-1.8c-0.2-0.7-1.2-1.3-2-1.3c-0.7,0-1.9,0.9-2.4,0.7c-0.4-0.2-1.4-0.8-1.3-1.3
					c0.1-0.3,1-0.1,1.2-0.3c0.1-0.3-0.5-0.8-0.6-1.1c-0.1-0.3,1.4-1.9,1.3-2.1c-0.9-1.4-2.4,1.2-2.7,1c-0.1-0.1-0.2-0.3-0.2-0.5
					c0.2-1.3,2.2-3.7,3.5-4c0.3-0.1,0.7,0.7,1,0.6c0.6-0.1,1-1.5,1.4-2c0.6-0.6,3.1-1.7,2.6-2.3c-0.5-0.6-2.1,1.9-2.9,2
					c-0.3,0-0.6-0.6-0.9-0.6c-0.6,0.1-1.1,1.6-1.5,2c-1,0.9-3.2,3.1-4.4,2.8c-0.1,0-0.2-0.3-0.2-0.5c0.2-0.9,2.4-1.6,3-2.4
					c0.3-0.4,1-1.3,1-1.8c0-0.5-0.8-1.5-1.4-1.5c-0.6,0-1.6,1.2-1.7,1.8c0,0.2,0.4,0.6,0.3,0.8c-0.2,0.8-1.7,2.3-2.4,2.1
					c-0.5-0.1-0.3-1.4,0-1.9c0.3-0.5,1.4-0.3,1.4-0.8c0-0.6-1.9-1.1-2.4-0.6c-0.2,0.2-0.2,0.9-0.4,1.1c-0.2,0.2-0.3,0.3-0.5,0.2
					c-0.7-0.2-0.9-1.1-1.3-1.6c-0.5-0.5,0.9-2.5,0.6-3.2c-0.2-0.6-3.6-1.8-3.5-2c0.3-1.6,1.9-1.2,2.1-2.6c0.2-1.1,0.6-1.8,1.4-2.7
					c0.7-0.8,1.4-1.6,2.2-2.4c0.7-0.7,1.3-1.5,2-2.2c0.7-0.6,3.7-2.6,4.5-3c1.3-0.8-1.9-1.8-2.5-1.4c-0.8,0.5-3,3.6-3.5,4.3
					c-0.6,0.7-2.3,1.1-2.9,1.8c-0.6,0.7-0.2,1.6-0.8,2.3c-1.2,1.4-2.3,4.1-3.9,4.5c-1.3,0.3-2.2-1.6-2.7-2.7
					c-0.6-1.5,0.4-6.8-1.3-6.5c-2,0.3,0.7,6-0.3,7.7c-0.1,0.2-0.5,0.5-0.8,0.5c-0.4,0.1-1.2-0.1-1.5-0.3c-1-0.5-2.3-2.4-2.8-3.4
					c-0.4-0.8-1-2.5-1.2-3.3c-0.3-0.9-0.7-2.6-1-3.5c-0.2-0.5-0.7-1.4-0.7-1.9c0.1-0.9-0.4-1.5-0.3-2.4c0-0.1-0.2-0.3-0.1-0.4
					c0.1-0.2,0.6-0.2,0.7-0.4c0.6-0.9,1.4-3.5,0.7-4.3c-1.3-1.2-4-1-5.4,0.3c-1,0.9-1.7,3.9-1.2,5c0.2,0.6,1.8,0.7,2.2,1.1
					c0.6,0.6,1,2.2,1.6,2.8c0.1,0.1,0.5,0.3,0.6,0.4c1.1,1.3,2.1,4.8,2.6,6.4c0.1,0.3,0.1,0.9,0.3,1.1c0.1,0.3,0.6,0.7,0.7,1
					c0.1,0.2,0,0.6,0,0.8c0.1,0.5,0.6,1.3,0.4,1.8c-0.2,0.5-1.2,1.3-1.7,1.6c-0.6,0.4-1.8,1.4-2.4,1.2c-0.3-0.1-0.2-1.1-0.5-1.1
					c-0.6,0-1.7,1.4-1.4,1.9c0.2,0.4,1.7-0.6,2-0.2c0.4,0.5-0.4,1.9-0.7,2.4c-0.2,0.4-0.5,1.3-0.9,1.6c-0.5,0.3-1.8-0.5-2.2-0.2
					c-0.1,0.1-0.1,0.5,0,0.6c0.3,0.4,1.7-0.1,2,0.3c0.3,0.5-0.4,1.7-0.4,2.3c-0.1,0.7,0.5,2.3,0.2,2.9c-0.2,0.3-0.5,0.5-0.9,0.8
					c0.5-0.2,0.9-0.2,1.2,0c0.4,0.3-0.4,1.7-0.6,2.2c-0.1,0.3-0.5,0.8-0.8,1c-0.6,0.5-1.6,0.9-2.3,1.4c-1,0.8-2.5,1.4-2.5,2
					c-2.9,0.6-8.2,3.5-6.5,5.6c1.9,2.4,5.5-3.5,8.2-5.4c2.1-1.5,4.6-5.4,6.2-4.5c1.4,0.7-2.5,5-0.8,6.3c0.9,0.7,1.1-2.6,3-2.6
					c0.4,0,0.7-1.1,1.1-0.8c1,0.7-1.1,3.5-0.1,3.5c0.6,0,0.6-3.1,1.6-2.7c0.7,0.2,1.2,0.2,2,0.8c0.5,0.3,0.9,0.6,1.1,1.1
					c0,0.1,0,0.3-0.1,0.4c-1.1,0.9-2,2.3-0.4,2.3c1.1,0,0.5-1.9,1.6-1.4c1.6,0.6,0.7,3.3,3.2,3.6c0.8,0.1,0.4,1.7,1.4,1.4
					c1.2-0.4,1.7,0.1,2.7,0.5c0.8,0.3,1.7-0.2,2.9-0.3c0.5,0,0.6-1.3,1.1-1.2c1.6,0.2,0.8-0.6,1.2-1.2c0.7-0.9,4.3,2.8,5.2,2.2
					C925.3,130.5,922,127.5,922.1,127z"/>
				<path fill-rule="evenodd" clip-rule="evenodd" fill="#802A89" d="M895.4,116.4c-0.2,0.1-0.4,0.2-0.6,0.3
					C895,116.6,895.2,116.5,895.4,116.4z"/>
				<path fill-rule="evenodd" clip-rule="evenodd" fill="#802A89" d="M929.6,130.9c-0.9-0.7-2.6-1-4-1.5c-1.1-0.3-3.7-2.1-4.1-1.7
					c-0.1,0.1,0.1,0.2,0.1,0.3c1.8,2,1.5,1.4,3.8,2.1c1.6,0.5,3.1,3,4.6,1.7C930.4,131.4,929.8,131,929.6,130.9z"/>
				<path fill-rule="evenodd" clip-rule="evenodd" fill="#802A89" d="M886.7,121c1.1,2.5,5.3-2.7,8.1-4.3
					C891.7,118,885.5,118.5,886.7,121z"/>
				<path fill-rule="evenodd" clip-rule="evenodd" fill="#802A89" d="M895.3,104.6c0.1,0.6-0.3,1.9-0.8,2.2c-0.6,0.4-2.3,0.3-3-0.1
					c-0.7-0.4-1.9-1.7-1.9-2.6c0.1-2.4,3-2.6,3.4-2.4C893.9,102.2,895.1,103.7,895.3,104.6z"/>
				<path fill-rule="evenodd" clip-rule="evenodd" fill="#802A89" d="M899.4,136.5c0.7-0.1,0.3,2.6-0.5,2.7
					C898.1,139.3,898.6,136.6,899.4,136.5z"/>
				<path fill-rule="evenodd" clip-rule="evenodd" fill="#802A89" d="M914.2,139.1c-1.1,0.8-4.2-1.6-4.4-2.9c-0.2-1,1.4-3.4,2.3-3.3
					C913.8,133.1,915.5,138,914.2,139.1z"/>
			</g>
			<path opacity="0.8" fill-rule="evenodd" clip-rule="evenodd" fill="#D01C5C" d="M935.6,139.8c4.7,7.9-8.3,12.4-9.8,3.7
				C924.8,137.7,932.3,134.3,935.6,139.8z M932.9,144.6c-0.5-0.2-0.9,0.4-0.9,0.8c0,0.3,0.2,1,0.2,1.2c0,0.7,1.1,0.1,1.4-0.1
				C934.4,146,933.8,145.1,932.9,144.6z"/>
			<path opacity="0.8" fill-rule="evenodd" clip-rule="evenodd" fill="#8D1E5D" d="M920.7,136.7c0.2,0.3,0.2,2,0,2.9
				c-0.8,4.3,3.7,5.4-0.6,8.1c-1.3,0.8-2.2,2.4-3.3,2.9c-1.3,0.6-2.4-0.1-3.6,0.9c-3.4,2.9-10-3.1-12.2-6.8
				c-3.8-6.3,0.4-13.5,6.5-14.8c3.1-0.7,7.1,0.1,10.3,4.1C918.9,135.4,920.4,136.1,920.7,136.7z"/>
			<g opacity="0.8">
				<path fill-rule="evenodd" clip-rule="evenodd" fill="#CE3A90" d="M900.7,163.7c-0.3-0.8-1.8-0.5-1.9-1.4c0-0.3,0.1-0.6,0.2-1
					c1.2-3.4,3.3-6.8,6.5-8.2c1.3-0.6,2.2-1.8,3.1-1.9c0.3,0,0.5,0.2,0.7,0.5c1.6,1.7-1.3,3-2.9,4.8c-1,1.1-2,2.3-2.5,3.1
					c-0.7,1-0.1,1.5,0.4,2.8c0.6,1.7-2.6,2.5-2.9,4.2c-0.5,2.1-1,3.6-1.9,5.6c-0.3,0.7-0.8,1.5-1.6,1.5c-0.4,0-0.8-0.3-0.9-0.7
					C896.4,169.5,902,167.7,900.7,163.7z"/>
				<path fill-rule="evenodd" clip-rule="evenodd" fill="#CE3A90" d="M923.6,74.5c0.6-0.7,0.2,0.5,1.1,1.2c0.9,0.6-0.3,2.3,0,3.3
					c0.1,0.3,0.3-0.4,0.5-0.2c1,1.1,0.7,2.8-0.3,3.5c-0.4,0.2-0.1-0.6-0.1-0.8C924.8,78.8,922.4,75.8,923.6,74.5z"/>
				<path fill-rule="evenodd" clip-rule="evenodd" fill="#CE3A90" d="M885.4,88.3c1.6-0.7,5.4,1.8,4,3.6c-0.4,0.6-0.5,1-0.3,1.5
					c0.9,2.4,4.3,2.5,5.7,4.8c0.4,0.6,0.1,0.9,0.4,1.8c0.1,0.4-0.3,0.3-0.3,0.6c0,0.6,1.1,1.2,0.4,1.7c-1.1,0.7-1.5-1.8-2.2-2.9
					c-2.5-3.5-8.9-4.2-9-9.1C884.1,89.3,884.7,88.6,885.4,88.3z"/>
				<path fill-rule="evenodd" clip-rule="evenodd" fill="#CE3A90" d="M935.7,89.6c0.5-0.5,0.7,1.6,0.2,2.5
					C935.2,93.4,935.1,90.3,935.7,89.6z"/>
				<path fill-rule="evenodd" clip-rule="evenodd" fill="#CE3A90" d="M934.7,99c0.7-0.6,0.8,1.2,0.1,1.7
					C934.3,101,934.3,99.4,934.7,99z"/>
				<path fill-rule="evenodd" clip-rule="evenodd" fill="#CE3A90" d="M934.3,100.8c0.1-0.1,0.3-0.1,0.4,0c0.1,0.1,0.1,0.3,0,0.4
					c-0.1,0.1-0.3,0.1-0.4,0C934.2,101.1,934.2,100.9,934.3,100.8z"/>
				<path fill-rule="evenodd" clip-rule="evenodd" fill="#CE3A90" d="M911.7,96.6c0.3-0.3,0.9-0.3,1.2,0c1,0.8-1.1,2-1.7,1.3
					C910.8,97.5,911.3,97,911.7,96.6z"/>
				<path fill-rule="evenodd" clip-rule="evenodd" fill="#CE3A90" d="M929.5,119.6c-0.4-0.3,0.6-0.8,0.9-0.5
					C930.8,119.4,929.8,119.8,929.5,119.6z"/>
				<path fill-rule="evenodd" clip-rule="evenodd" fill="#CE3A90" d="M938.9,137.2c0.4-0.3,2.5,0.4,2.5,0.4s4.6,2.2,3.7,5.3
					c-0.6,2,0,5.1-3.4,5.3c-2.5,0.2-6,2-7.5-0.8c-2.6-4.9,2.5-3.5,3.9-7.8C938.3,139.4,938.5,137.5,938.9,137.2z"/>
				<path fill-rule="evenodd" clip-rule="evenodd" fill="#CE3A90" d="M901.6,140.3c0.3,0.7,0.4,2-0.1,2.8c-1.4,2.4-6.1,4.7-7.5,2.5
					c-1.2-1.9,2.6-3.5,4.6-4.8C899.6,140.1,901.2,139.4,901.6,140.3z"/>
				<path fill-rule="evenodd" clip-rule="evenodd" fill="#CE3A90" d="M899.2,132.4c-1-0.1-1-0.8-1.4-1.6c-0.5-1.1-0.5-2.7,0.5-3.2
					c1.7-0.9,3.6,0.6,3.5,2.3C901.8,131.2,900.9,132.2,899.2,132.4z"/>
				<path fill-rule="evenodd" clip-rule="evenodd" fill="#CE3A90" d="M891.2,148c0.1,0.3-0.3,1.8-0.5,2c-0.6,0.7-1.1,1.7-1.9,2.1
					c-1.4,0.6-5.2-2.1-3.7-4.9c2.1-1.8,3.5,0.1,4.7,0.4C890.1,147.8,891.2,147.9,891.2,148z"/>
				<path fill-rule="evenodd" clip-rule="evenodd" fill="#CE3A90" d="M925.4,84.1c0.4-1.4,0,1,0.3,2.2c0.4,1.4-1.5-1.4-1.1-1.9
					C924.9,84,925.2,84.6,925.4,84.1z"/>
				<path fill-rule="evenodd" clip-rule="evenodd" fill="#CE3A90" d="M937.5,84.6c-2.1-0.8-0.9-7.3,1.4-7.7c1.9-0.3,0.1,3.6-0.3,5.6
					C938.3,83.9,939,85.1,937.5,84.6z"/>
				<path fill-rule="evenodd" clip-rule="evenodd" fill="#CE3A90" d="M924.5,94.6c0.4,0.4,0.4,1.5,0.6,1.8c0.4,0.9,1.8,3,0.9,3.8
					c-2.3,2.2-1.8-1.6-2.2-2.7c0-0.1-0.7-1.3-0.8-1.8c-0.1-0.4,0.2-1.3,0.5-1.5C923.7,94,924.3,94.4,924.5,94.6z"/>
				<path fill-rule="evenodd" clip-rule="evenodd" fill="#CE3A90" d="M933,100.1c-1-1,0.1-3.1,0.7-4.3c0.6-1.1,0.1-2.6,1.3-2.6
					c1,0-0.4,2.3-0.5,3c-0.2,0.9,0,2.9-0.8,3.6C933.5,99.9,933.4,100.5,933,100.1z"/>
				<path fill-rule="evenodd" clip-rule="evenodd" fill="#CE3A90" d="M932.7,101.1c0.7-0.3-0.3,1.5,0.4,1.5c0.2,0,0.1-0.3,0.5-0.6
					c0.7-0.5,0.1,1-0.3,1.5c-1.1,1.4-1,4-2.1,3.8C930.2,107.1,931.1,101.9,932.7,101.1z"/>
				<path fill="#CE3A90" d="M932.8,120.8c-0.1-0.2-0.4-0.2-0.5-0.2c-0.4,0.1-0.3,0.3,0,0.7C932.6,121.8,932.9,121.1,932.8,120.8z"/>
				<path fill="#CE3A90" d="M931.6,121.1c-0.1-0.1-0.4-0.1-0.5,0c-0.6,0.9-1.5,1.7-0.6,1.7C931.1,122.7,932.4,121.8,931.6,121.1z"/>
				<path fill="#CE3A90" d="M923.9,166.6c0.5,0.3,1.1-0.1,1.4-0.4c0.3-0.3,0.4-0.7,0.6-1.3c1-2.6-1.7-6.6-2.3-9.3
					c-0.3-1.3,0.4-3.5-0.8-3.4C920.6,152.2,919.6,164.3,923.9,166.6z"/>
				<path fill="#CE3A90" d="M933.4,176.5c-0.2,0,0.2-0.6,0.2-0.6c0.1-0.3-0.6-0.6-0.5-0.9c0-0.1,0.4,0.2,0.4,0.2
					c0.5-1.9-0.1-6.6-1.3-6.9c-0.1,0-0.2,0.4-0.3,0.2c-0.2-0.2-0.4-0.4-0.5-0.7c0.1,0.7,0.3,1.4,0.4,2.1c1.1,4.8-1.8,12.3,2.5,14.4
					c1.3,0.6,1.7-2.1,1.3-3.2c-0.6-1.6-0.8-3.8-1.5-4.8"/>
				<path fill="#CE3A90" d="M931.7,127.1c-0.1,0-0.6,0.6-0.7,0.6c-0.3,0-0.2-0.8-0.2-1.1c0,0,0,0,0,0c0-0.2,0-0.6-0.2-0.7
					c-0.2-0.1-0.8,0.3-0.9-0.1c-0.1-0.4,1.1-0.6,0.5-0.8c-0.9-0.2-1.6-0.1-1.6-0.9c0-0.7,1.5,0.3,1.2-0.2c-0.4-1,0.4-1.8,0.1-2.2
					c-0.7-0.8-2.2,0.4-2.2,1.2c0,0.4-0.2,0.1-0.4,0.2c-0.1,0.1,0,0.8-0.3,0.4c-0.1-0.2-0.1-0.4,0-0.5c0.1-0.1,0.1-0.2,0.2-0.3
					c0.4-0.8,2.4-1.4,1.8-1.9c-0.6-0.6-1.2,1.1-2.1,0.8c-0.5-0.2-0.3-0.4-0.2-0.9c0.5-2.7,3.4-3.5,3.1-5.6c-0.1-0.7,0.2-0.8,0.5-1.5
					c0.6-1.5,1.9-3.5,0.5-3.7c-2.3-0.3-1.1,5.6-2.5,7.4c-0.5,0.7-2.3,1.2-3.3,1.6c-0.4,0.2-0.3-1.4-0.7-0.9
					c-0.6,0.6-0.1,2.9-0.8,1.9c-0.3-0.4-0.3-1.8-0.6-2.2c-2-3.3-2.7,0-4.6,0.4c-0.6,0.1-0.5,1.2-1.1,1.3c0,0-0.1,0-0.1,0
					c-0.9-0.5,2.7-3.9,1.3-4.3c-1-0.3-1.5,2.8-2.3,2.8c-0.6,0,0.5-0.8,0.4-1.5c0-0.3-0.3-0.4-0.5-0.5c-1-0.7-0.5,2.2-1.3,1.3
					c-0.7-0.8,1.3-2.1,0.6-2.6c-0.9-0.7-0.5,1.6-1.2,0.8c-0.6-0.7,1.2-3.8,0.5-4.8c-2.1-2.8,0.1-8.1-2.2-7.6
					c-3.3,0.7,2.3,10.8-0.5,12.7c-1.4,0.9-2.8,1.1-4,0.2c-0.7-0.5-0.1-0.2-0.7-0.7c-2.7-2.1-5-5.9-7.4-9.3c-1.2-1.6-1.9-4.3-2.8-3.2
					c-4.3,5.1,12.1,9.2,9.1,16.2c-0.4,0.9-1.6,1.4-2.6,1.4c-0.3,0-0.1-0.7-0.4-0.7c-1.6-0.2-2.8-4.1-4.3-3.3
					c-0.2,0.1-0.2,0.7-0.3,0.4c-0.5-1-2.2-1.5-2.7-2.5c-1.4-2.8-5.4,0-7.7-2.7c-0.1-0.2-1-0.7-1.4-0.5c-0.5,0.2-0.6,1.4-0.1,1.8
					c1.6,1.6,4,1.5,6.1,2.7c1.8,1,3.9,0.5,5.9,1.8c2.1,1.4,4.4,3.3,6.2,5.5c0.5,0.6,2.2,1.9,2,2.9c-0.2,1.1-3,2.1-2.5,3.2
					c0.4,1,3.1,0.1,3.8,0.8c1.4,1.5,1.1,4.5,0.6,5.8c-0.7,2-8.2,2.5-5.1,5.9c1.7,1.9,3.4-7.3,9-1.4c2,2.2,6.2,1.2,8.7,3.5
					c0.6,0.6,0.9,1.9,0.9,2.9c-0.1,2-1,5.7,1.3,5.6c1.4-0.1-0.2-3.8-0.1-5.7c0-0.6,0.1-1.2,0.3-1.5c0.4-0.4,0.7-1.3,1.2-0.8
					c0.5,0.5,0.8,0.9,1,1.5c1,2.3,1.9,5.8,2.9,7.9c0.1,0.2,0.4,0.1,0.5,0.3c0.4,0.9,0.3,1.7,0.1,2.8c-0.5,3.7,0.3,8.9,2.3,11.7
					c-1.2-7.1-0.9-16.2-3-22.9c-0.4-1.2-2.1-2.4-2-3.6c0.3-2,3-1.1,4.8-2.8c2.1-1.9,1.7-4.9,2-6.7
					C933.4,130.6,935.4,127.9,931.7,127.1z M915,118.2c-0.2,0.2-0.4,0-0.5-0.2c-0.1-0.1,0-0.3,0.2-0.4
					C914.8,117.5,915.2,117.9,915,118.2z M919.3,119.3c-0.2,0.1-0.5,0.1-0.7-0.1c-0.3-0.3,0.1-0.7,0.3-0.8
					C919.3,118.2,919.6,119.1,919.3,119.3z M921.5,119.8c-0.2,0.1-0.5-0.1-0.6-0.2c-0.3-0.3,0.1-1.1,0.4-1.3
					C922,117.9,922.1,119.6,921.5,119.8z M925.3,120.9c-0.2,0.3-0.6-0.4-0.4-0.5C925.1,120.2,925.4,120.6,925.3,120.9z"/>
				<path fill="#CE3A90" d="M930.7,126.4C930.7,126.4,930.7,126.3,930.7,126.4C930.7,126.3,930.7,126.4,930.7,126.4z"/>
			</g>
			<path opacity="0.8" fill-rule="evenodd" clip-rule="evenodd" fill="#4C3D93" d="M926.1,98.4c-0.4,0.9-0.3,1.9-0.5,2.2
				c-7.1,5.7-19,2.8-21.8-5.4c-0.1-0.5,0.5-1.1,0.9-1.6c-1.3-2.9,0-6.3,2.7-10c1.5-1.3,3.2-1.6,4.5-3.9c5-2.6,17.1-1.6,17.5,5.6
				c0.3,0.4,1.6,0.6,1.3,1.1c1.2,3,0.2,6.5-1.5,10.1C928.3,97.5,926.6,97.8,926.1,98.4z"/>
			<path opacity="0.8" fill-rule="evenodd" clip-rule="evenodd" fill="#BA1D75" d="M902.4,93.5c2.7,0.2,4.3,2.1,6.1,1.9
				c4.5-0.4,5.2-1.7,8.5-0.6c4.4,1.4,2.2-2.7,5.2-0.4c1.6,1.2,2.9,1.1,3.8-0.2c0.8-1.2-3.8-0.4-5.2-2.3c-0.5-0.7-0.9-2-0.2-2.7
				c1.4-1.4,3.9,0.9,5.5,0.8c0.9-0.1,2.5-1.8,3.8-0.9c6,4,1.9-1.4,1.1-3.2c-0.4-0.9,2.1-0.3,0.6-1.5c-0.6-0.5-0.7-2.4-0.6-3
				c0.1-1.4,1.5-2.6,2.6-3.2c4.2-2.2,7.6,2.5,9,7.2c0.2,0.8,1-0.6,2.9,0.5c2.3,1.3,1.1,9,3.7,7.6c4.1-2.2,6.5-0.6,6.1,3.3
				c-0.1,1-1.4,1.5-1.3,2.5c0.7,3.5-1.1,4.3-0.4,6c1.1,2.5,3.1,3.3,2.9,6.3c-0.2,3.1,5,3.1,7.3,4.3c1.3,0.7,1.5,1.6,2.4,3
				c0.6,1,2.8,1.6,2,2.6c-1,1.2-2.5,0.4-3.9-0.5c-1.1-0.7-0.8,0.6-2.7,0c-2.3-0.7-4.9-3.7-6.1-4.7c-0.8-0.6-2.5-1.5-5.5,1.2
				c-1.5,1.4,0.3,2.5-0.2,4.6c-0.4,1.6,2.9,2,3.2,4.2c0.1,0.6,0.2,1.2,0,1.8c-0.5,1.8-2.8,1.7-3.5,0.6c-0.4-0.7,0.1-1-0.5-1.4
				c-0.3-0.2-0.5,0.2-1.1,0.2c-1,0-0.5-1.7-1.4-3.1c-0.6-1-1.1-1.9-2.2-1.8c-0.8,0.1-0.8-2-2-2.1c-4.2-0.4-3.6,3.5-6.3,6.2
				c-1,1-4.2-1.4-5.2-0.4c-3,2.9-8.6,2.5-11.2-1.9c-3.5-5.8,0.8-8.6,8.4-7.8c0.6,0.1,1.8-0.1,2.2-1.2c0.3-0.9,1.8-1.8,0-3.1
				c-0.7-0.5-2.4,0.2-3.1,0c-1.5-0.4-2.3-1.9-3.5-1.7c-2.7,0.4-7.1,4.2-6.5,2c0.3-1.2-0.5-1.3-1.3-1.5c-2.1-0.5-2.5,1.1-4.3,0.8
				c-1-0.1-3.4,0.8-3.9-0.9c-0.4-1.4,3.3-3.8,4.9-3.1c1.7,0.7,2.9,0.9,5.3,0.4c3.1-0.6,5.3-0.8,6.6-2.9c0.9-1.4-2.3-3.1-5.7-2.4
				c-1.9,0.4,0-1.3-1.8-1.3c-0.6,0-0.7,1.3-2.2,0.7c-0.4-0.2-1.1-0.5-1.3-0.7c-1.7-1-2.9,0-5.4,0.4c-0.7,0.1-1.3,0-1.9-0.3
				c-1.1-0.7-1.9-1.6-2.9-2.2c-2-1.1-3.4,2.1-4.8,0.3c-0.7-0.9,1.9-2.9,1-3.8C897.7,94.4,899.8,93.3,902.4,93.5z M951,103.4
				c0.5,0.3,0.6-0.7,0.4-1C951,102.1,950.7,103.2,951,103.4z M960.7,117.8c0.1-0.2-0.2-0.5-0.4-0.5
				C959.6,117.1,960.1,118.6,960.7,117.8z"/>
			<path opacity="0.8" fill-rule="evenodd" clip-rule="evenodd" fill="#EE5A28" d="M962.4,107.3c0.5-0.5,0.8,0,1,0.5
				c0.4,0.7-1.7,2.5-2.2,1.6C960.8,108.5,961.8,108,962.4,107.3z"/>
			<path opacity="0.8" fill-rule="evenodd" clip-rule="evenodd" fill="#EE5A28" d="M933.9,109.9c0.8-0.6,0.6,2.2-0.4,1.3
				C932.8,110.7,933.5,110.2,933.9,109.9z"/>
			<path opacity="0.8" fill-rule="evenodd" clip-rule="evenodd" fill="#EE5A28" d="M930.5,112.8c-0.2,0.4-1.3,0.5-1.5,0.1
				c-0.1-0.3-0.2-0.7,0-1C929.4,111.1,930.9,111.8,930.5,112.8z"/>
			<path opacity="0.8" fill-rule="evenodd" clip-rule="evenodd" fill="#EE5A28" d="M936,117.7c0.3-0.3,1,0.6,0.5,1
				c-0.2,0.2-0.7,0.2-1,0C935,118.3,935.6,118,936,117.7z"/>
			<path opacity="0.8" fill-rule="evenodd" clip-rule="evenodd" fill="#EE5A28" d="M939.7,121.3c-0.1,0.2-0.3,0.3-0.5,0.5
				c-0.6,0.5-1.4-1-1.1-1.5C938.7,119.7,940.3,120.4,939.7,121.3z"/>
			<path opacity="0.8" fill-rule="evenodd" clip-rule="evenodd" fill="#EE5A28" d="M927.8,123c0.4,0.4,0.3,1,0.6,1.5
				c0.3,0.4,1-0.4,1.4-0.6c1.2-0.5-0.8,3.3-1.6,3.6C926.7,128,926.4,121.5,927.8,123z"/>
			<path opacity="0.8" fill-rule="evenodd" clip-rule="evenodd" fill="#EE5A28" d="M933.1,126.6c0.2,0.2,0.3,0.7,0,1
				c-0.4,0.5-1.3-0.1-1-0.7C932.3,126.6,932.8,126.3,933.1,126.6z"/>
			<path opacity="0.8" fill-rule="evenodd" clip-rule="evenodd" fill="#EE5A28" d="M926.2,128.1c1.3,1.6-1.6,3.1-2.4,1.9
				C922.6,128.3,925.3,127,926.2,128.1z"/>
			<path opacity="0.8" fill-rule="evenodd" clip-rule="evenodd" fill="#EE5A28" d="M988.6,131c-0.1,0.4-0.3,0.8-0.7,1
				C983.9,134.1,990,127.1,988.6,131z"/>
			<path opacity="0.8" fill-rule="evenodd" clip-rule="evenodd" fill="#EE5A28" d="M929.6,137.5c0.7-0.5,1,0,1.3,0.5
				c0.2,0.3-0.2,0.8-0.5,1C929.4,139.8,928.8,138,929.6,137.5z"/>
			<path opacity="0.8" fill-rule="evenodd" clip-rule="evenodd" fill="#EE5A28" d="M929.2,140.6c0.4,1.3-1,2.1-2.2,1.8
				C924.3,141.8,928.5,138.2,929.2,140.6z"/>
			<path opacity="0.8" fill-rule="evenodd" clip-rule="evenodd" fill="#EE5A28" d="M936.7,140.3c1,1.8-3,3.7-3.9,2.2
				C931.8,140.7,935.8,138.7,936.7,140.3z"/>
			<path opacity="0.8" fill-rule="evenodd" clip-rule="evenodd" fill="#EE5A28" d="M922.7,142.1c0.6-0.3,0.9,0.5,0.8,1
				c-0.1,0.3-0.8,0.7-1.2,0.3C921.6,142.8,922.4,142.3,922.7,142.1z"/>
			<path opacity="0.8" fill-rule="evenodd" clip-rule="evenodd" fill="#EE5A28" d="M971.5,144c0.5,0.3,1,1,0.8,1.7
				C971.7,148.8,968.2,142.3,971.5,144z"/>
			<path opacity="0.8" fill-rule="evenodd" clip-rule="evenodd" fill="#EE5A28" d="M946.8,148.2c0.5,1.5-1,2.8-2.4,2.1
				c-0.4-0.2-0.6-0.6-0.8-1C942.8,147.9,946.3,146.7,946.8,148.2z"/>
			<path opacity="0.8" fill-rule="evenodd" clip-rule="evenodd" fill="#EE5A28" d="M976.4,147.3c0.9,1.9-2,2.2-2.2,0.8
				C974.1,147.1,975.9,146.2,976.4,147.3z"/>
			<path opacity="0.8" fill-rule="evenodd" clip-rule="evenodd" fill="#EE5A28" d="M923.6,149.9c0.7,0.5,0.1,1.8-0.7,1.8
				C921.9,151.7,922.5,149.1,923.6,149.9z"/>
			<path opacity="0.8" fill-rule="evenodd" clip-rule="evenodd" fill="#EE5A28" d="M961.2,149.7c0.7-0.4,1.1-0.2,1.5,0.2
				c0.7,0.7-0.3,2.1-1.4,1.6C960.9,151.2,960.8,149.9,961.2,149.7z"/>
			<path opacity="0.8" fill-rule="evenodd" clip-rule="evenodd" fill="#EE5A28" d="M963.1,151.9c1.6-0.9,2.6,0.2,2.6,1.4
				C965.7,156.8,959.8,153.6,963.1,151.9z"/>
			<path opacity="0.8" fill-rule="evenodd" clip-rule="evenodd" fill="#EE5A28" d="M958.6,152.3c0.6-0.8,0.7,1.7,0,1
				C958.4,153,958.4,152.5,958.6,152.3z"/>
			<path opacity="0.8" fill-rule="evenodd" clip-rule="evenodd" fill="#EE5A28" d="M960.2,154.7c0.2,0.4,0.1,0.6-0.2,1
				c-0.3,0.5-1.1,0.1-1.3-0.2C958.2,154.8,959.8,154,960.2,154.7z"/>
			<path opacity="0.8" fill-rule="evenodd" clip-rule="evenodd" fill="#EE5A28" d="M961.5,156.9c0.9,1.8-1.9,2.2-2.2,0.8
				C959,156.5,961.1,156,961.5,156.9z"/>
			<path opacity="0.8" fill-rule="evenodd" clip-rule="evenodd" fill="#EE5A28" d="M985.6,155.8c-1.3,1.8-3.9-0.6-3.6-1.9
				C982.5,152,987.4,153.3,985.6,155.8z"/>
			<path opacity="0.8" fill-rule="evenodd" clip-rule="evenodd" fill="#EE5A28" d="M961.8,164c-1,0.1-1.7-0.5-1.8-1.2
				C959.2,159.4,965.5,163.4,961.8,164z"/>
			<path opacity="0.8" fill-rule="evenodd" clip-rule="evenodd" fill="#EC486A" d="M966.4,121.4c-0.5,0.8,0.8,3.1,0.9,3.9
				c0.1,1.2-1.2,1.2-1.2,2.3c0.1,1.5,1,0.4,2.4,0.9c1.1,0.3,1.8,1,1.9,1.1c1.1,1.6-1.1,1.6-2.5,2c-1.5,0.4-0.1,2.3-0.3,4
				c-0.2,1.8-0.3,3.1,0.8,3.1c1.4,0,2.4,0,3.1,1.3c1.2,2-0.6,3.7-2.4,3.6c-0.9,0-2.9,1.7-4.4,1.5c-0.8-0.1-1.2-1.9-2.4-2.2
				c-1.6-0.4-0.5,3.4-3.4,5.3c-0.5,0.3-0.8,1.9-1.9,1.4c-1.6-0.8-1.5,1.2-2.4,1.2c-1.2-0.1-0.4,1.8-1.5,1.8
				c-2.5-0.1-3.9-2.9-7.4-3.2c-5.3-0.5-8.7-5.5-12.2-9.6c-0.4-0.5-1.8-0.3-2.1-0.9c-0.7-1.4,0.3-2.3,0.2-3.8c0-0.7-1.5-0.3-1.8-0.9
				c-0.6-1.4,0.4-2.2,0.8-3.8c0.2-0.8,1.9-0.6,2.2-1.3c0.6-1.4-0.9-2.1,0.1-3c0.9-0.9,1.7-1.6,2.4-3.2c1.2-2.7,6.2-1.5,7.2-4.5
				c0.2-0.7-0.3-1.6,0-2.5c0.5-1.5,2.2-2.6,3.2-1.6c0.4,0.4,1,1.2,1.3,1.7c1.1,1.8,2.7,0.2,2.7-1.2c0-2.4,0.7-3.1,2.3-2.9
				c2.1,0.3,2.6,3.9,0.9,4.5c-0.6,0.2-0.9,1.2-0.6,1.7c0.8,1.1,4.2,1.7,5.1-0.6c0.4-1-0.2-1-0.5-1.7c-0.6-1.5,1.6-3.5,2.2-2.4
				c0.3,0.5,1.7-0.5,2.5,0.8c0.3,0.5,0.4,1.6,1,1.9C964.2,117.1,967.3,119.8,966.4,121.4z"/>
			<path opacity="0.8" fill-rule="evenodd" clip-rule="evenodd" fill="#EE5A28" d="M969.1,122.7c0.8,0.2,1.6-1.5,0.4-1.5
				C969.4,121.6,968.9,121.8,969.1,122.7z"/>
			<path opacity="0.8" fill-rule="evenodd" clip-rule="evenodd" fill="#EE5A28" d="M917.6,116.8c0.5,2-4.5,2.2-4.7,0.7
				C912.6,115.9,917.2,115.2,917.6,116.8z"/>
			<path opacity="0.8" fill-rule="evenodd" clip-rule="evenodd" fill="#EE5A28" d="M982.4,127.7c2.1,2.9-3.9,5.7-5.6,3.2
				C974.8,128,980.9,125.6,982.4,127.7z"/>
			<path opacity="0.8" fill-rule="evenodd" clip-rule="evenodd" fill="#EE5A28" d="M943.2,161.7c1.6,2.1-1.8,4.9-3.6,3.9
				C937.8,164.6,941.6,159.6,943.2,161.7z"/>
			<g opacity="0.8">
				<path fill-rule="evenodd" clip-rule="evenodd" fill="#EE5B4B" d="M942.2,152c0,0.1,0.2,0.2,0.2,0.3c-0.3,1.9-4.3,6.1-5.6,4.8
					c-1.2-1.2,2.3-4.9,3.8-5.7c0.5-0.2,2.1-0.3,2.2,0.2C942.8,151.7,942.2,151.8,942.2,152z"/>
				<path fill-rule="evenodd" clip-rule="evenodd" fill="#EE5B4B" d="M941.6,125.3c-0.3-0.5,1-1.8,1.5-1.8c0.4,0,1.4,0.8,1.3,1.2
					C944.2,125.4,942,125.9,941.6,125.3z"/>
				<path fill-rule="evenodd" clip-rule="evenodd" fill="#EE5B4B" d="M946.7,101.6c0.7,0,2.1,1.6,1.9,2.3c-0.4,0.9-3.2,1-3.6,0.2
					C944.5,103.4,945.9,101.6,946.7,101.6z"/>
				<path fill-rule="evenodd" clip-rule="evenodd" fill="#EE5B4B" d="M974.8,149.3c0.3-0.5,2-0.6,2.4-0.2c0.4,0.5,0.1,2.2-0.3,2.7
					c-0.2,0.2-0.8,0.5-1,0.3C975.2,151.8,974.4,149.9,974.8,149.3z"/>
				<path fill-rule="evenodd" clip-rule="evenodd" fill="#EE5B4B" d="M982,120.3c-0.7-0.3,0.8-1,1.1-1.7c1.4-3,5.3-4.1,7.9-5.8
					c1-0.6,2.7-2.8,2.8-1.6C994.7,116,986.7,122.2,982,120.3z"/>
				<path fill-rule="evenodd" clip-rule="evenodd" fill="#EE5B4B" d="M1001.6,144.8c0.3,0.3-0.1,0.6-0.3,1c-0.9,1.7-5.8-0.2-5.1-2.1
					c0.1-0.2,0.2-0.2,0.3-0.4C997.5,141.7,1000.3,143.5,1001.6,144.8z"/>
				<path fill-rule="evenodd" clip-rule="evenodd" fill="#EE5B4B" d="M985.1,125.9c-1.1-1.2,2.7-1.1,4.3-2c0.9-0.5,3.5-1.2,3.1,0.1
					C991.8,126.5,987.3,128.4,985.1,125.9z"/>
				<path fill-rule="evenodd" clip-rule="evenodd" fill="#EE5B4B" d="M999,107.3c-0.3-0.2,0.3-0.7,0.6-0.7
					C1000,106.5,999.3,107.4,999,107.3z"/>
				<path fill-rule="evenodd" clip-rule="evenodd" fill="#EE5B4B" d="M999.8,106.5c-0.7-1,2.8-3.4,3.2-2.4
					C1003.7,105.8,1000.6,107.6,999.8,106.5z"/>
				<path fill-rule="evenodd" clip-rule="evenodd" fill="#EE5B4B" d="M962.6,96.8c-0.6,0.4-1.6,0.2-2.1-0.4
					c-0.2-0.3-1.4-3.6-2.7-2.6c-1.4,1-2,2.5-1.6,3.4c0.2,0.4,1.3,0.5,1.3,1c0,0.7-1.5,1.6-2.2,1.7c-0.8,0.2-2.7-0.4-2.7-0.8
					c0-0.6,1.5-0.3,1.6-0.9c0.1-1-1.9-2.7-2.8-2.8c-0.7-0.1-1.8,0.8-2.2,1.4c-0.5,0.9-0.1,2.8,0.7,3.6c0.7,0.7,2.8,1.1,3,1.9
					c0.2,0.7,0.6,2.5,0,2.8c-0.4,0.2-1.1-1.1-1.5-0.9c-0.4,0.2-0.2,1.4-0.5,1.8c-0.2,0.4-3.2,0.5-3.3,1c-0.5,2.5,3.5,1.3,3.7,1.8
					c0,0.2-0.1,0.6-0.2,0.7c-1.5,1.2-5.9,1.7-7.4,0.6c-0.4-0.3,0-1.5-0.4-1.8c-0.7-0.5-2.5,0.6-3.4,0.6c-1.2,0.1-4.7-1.5-4.8-0.2
					c-0.1,1.3,3.9,0.1,4.8,1c0.3,0.3,0,1.4,0.3,1.7c0.7,0.5,2.6-0.5,3.5-0.5c1.8,0.1,6.2,0.1,7,1.7c0.1,0.2-0.1,0.6-0.2,0.7
					c-1.1,0.7-4-0.8-5.3-0.7c-0.7,0.1-2.2,0.3-2.7,0.9c-0.5,0.6-0.7,2.6-0.2,3.1c0.6,0.7,2.8,0.4,3.5-0.2c0.3-0.2,0.2-1.1,0.5-1.3
					c0.9-0.6,3.9-0.7,4.5,0.3c0.4,0.7-1.1,1.9-1.9,2.2c-0.7,0.2-1.7-1.2-2.2-0.7c-0.6,0.7,0.9,3.3,1.8,3.3c0.4,0,1.1-0.7,1.5-0.8
					c0.4,0,0.6,0,0.8,0.3c0.5,0.9-0.3,2.2-0.3,3.2c-0.1,1.1-3.3,1.8-3.7,2.9c-0.3,0.9,1.8,5.8,1.5,6c-1.8,1.4-3-0.7-4.6,0.5
					c-1.3,1-2.4,1.4-4.1,1.4c-1.5,0.1-3,0.3-4.5,0.3c-1.3,0-2.7,0.3-4,0.2c-1.3,0-6.1-1.2-7.3-1.5c-2-0.5,0.1,4.1,1.1,4.3
					c1.2,0.3,6.4-0.7,7.7-0.9c1.3-0.2,3.3,1.2,4.6,1.1c1.3-0.1,1.8-1.6,3.1-1.7c2.6-0.2,6.3-2.1,8.2-0.7c1.5,1.1,0.6,4.2,0,6
					c-0.9,2.4-7,7.1-5.1,8.7c2.2,1.8,5.2-7.5,7.9-8.3c0.3-0.1,1,0.1,1.2,0.3c0.5,0.3,1.1,1.4,1.3,2c0.4,1.7-0.1,5.2-0.5,6.8
					c-0.3,1.3-1.5,3.8-2,5c-0.6,1.3-1.9,3.7-2.5,4.9c-0.3,0.7-0.7,2.4-1.2,2.9c-0.9,0.9-1.1,2.2-2.1,3c-0.1,0.1-0.2,0.5-0.3,0.6
					c-0.3,0.1-0.8-0.4-1.1-0.4c-1.5,0.3-4.9,2.3-4.9,4c0,2.7,2.9,5.5,5.5,5.6c1.8,0.1,5.5-2.4,6.1-4.3c0.3-0.9-1-2.7-1-3.6
					c0-1.3,1.2-3.6,1.2-4.8c0-0.3-0.2-0.9-0.2-1.2c0.2-2.7,2.6-7.6,3.7-10c0.2-0.4,0.7-1.1,0.8-1.5c0.1-0.4,0.1-1.4,0.2-1.9
					c0.1-0.3,0.6-0.6,0.7-0.9c0.4-0.6,0.7-2.1,1.3-2.4c0.7-0.4,2.4-0.1,3.2,0c0.9,0.2,3.1,0.4,3.5,1.3c0.2,0.4-1,1.4-0.7,1.8
					c0.5,0.7,3,0.3,3.2-0.6c0.2-0.7-2.2-1.2-2.1-1.9c0.1-0.9,2.3-1.6,3.1-1.9c0.6-0.3,1.8-0.9,2.4-0.7c0.8,0.3,1.2,2.5,2,2.6
					c0.2,0,0.6-0.4,0.7-0.7c0.1-0.7-1.7-1.8-1.6-2.5c0.1-0.9,2.1-1.5,2.7-2c0.8-0.8,1.7-3.1,2.7-3.4c0.5-0.1,1-0.1,1.6,0.1
					c-0.7-0.3-1.1-0.7-1.2-1.4c-0.1-0.9,2.1-1.5,2.8-1.8c0.4-0.2,1.3-0.3,1.8-0.3c1.1,0.1,2.4,0.7,3.6,0.9c1.8,0.3,3.8,1.2,4.5,0.5
					c3.5,2.5,11.5,5.1,11.8,0.8c0.4-4.7-8.8-2.1-13.3-2.9c-3.6-0.6-9.8,0.9-10.5-1.8c-0.6-2.3,7.3-2.8,6.9-6.1
					c-0.2-1.8-3.5,1.7-5.5-0.4c-0.4-0.5-1.7,0.4-1.9-0.4c-0.3-1.8,4.6-2.7,3.5-3.8c-0.6-0.7-3.6,2.8-4.2,1.2c-0.4-1-0.9-1.5-1.2-3
					c-0.1-0.8-0.3-1.7,0-2.5c0.1-0.2,0.3-0.4,0.5-0.3c1.9,0.2,4.2-0.3,2.7-2c-1-1.2-2.3,1.5-3-0.2c-0.9-2.4,2.6-4.4,0.4-7.5
					c-0.7-1,1.3-2.4,0-3.1c-1.5-0.8-1.5-2-2.2-3.4c-0.5-1.2-1.8-1.6-3-2.8c-0.6-0.5-1.9,0.7-2.3,0.1c-1.3-1.9-1.4-0.2-2.4-0.1
					c-1.6,0.3-1.5-7.7-2.9-8C962.8,89.5,963.2,96.5,962.6,96.8z"/>
				<path fill-rule="evenodd" clip-rule="evenodd" fill="#EE5B4B" d="M978.2,137.8c0.3,0.1,0.6,0.2,0.9,0.3
					C978.8,138,978.5,137.9,978.2,137.8z"/>
				<path fill-rule="evenodd" clip-rule="evenodd" fill="#EE5B4B" d="M959,84.4c0.2,1.8,1.5,4,2.5,6c0.8,1.6,1.5,6.4,2.3,6.4
					c0.2,0,0.1-0.3,0.1-0.4c0.2-4.2-0.1-3.2-1.7-6.4c-1.1-2.2-0.1-6.7-2.9-6.9C958.8,83,959,84,959,84.4z"/>
				<path fill-rule="evenodd" clip-rule="evenodd" fill="#EE5B4B" d="M991.3,142.1c1.4-4-7.9-2.8-12.1-4
					C983.5,140,989.9,146.2,991.3,142.1z"/>
				<path fill-rule="evenodd" clip-rule="evenodd" fill="#EE5B4B" d="M966.9,151c0.5-0.7,2.1-1.8,2.9-1.6c1,0.2,2.5,2.3,2.8,3.3
					c0.3,1.2,0.1,4-0.7,4.9c-2.4,2.5-5.5-0.4-5.7-1C965.8,155.2,966.1,152.1,966.9,151z"/>
				<path fill-rule="evenodd" clip-rule="evenodd" fill="#EE5B4B" d="M994.1,111.1c-0.7-0.7,2.2-3.2,3.1-2.5
					C998.1,109.4,995,111.9,994.1,111.1z"/>
				<path fill-rule="evenodd" clip-rule="evenodd" fill="#EE5B4B" d="M982.2,92.1c1.9,0.3,2.5,6.3,1.5,7.9c-0.8,1.2-4.7,2.3-5.5,1.1
					C976.6,99.2,979.8,91.8,982.2,92.1z"/>
			</g>
			<g opacity="0.8">
				<path fill-rule="evenodd" clip-rule="evenodd" fill="#F5931F" d="M979.3,156.6c0,0.2,0.1,0.3,0,0.6c-0.2-0.1-0.2,0.2-0.4,0.1
					c0-0.1-0.1-0.1-0.2-0.2c-0.1-0.2,0.4-0.3,0-0.4C978.9,156.6,979.1,156.6,979.3,156.6z"/>
				<path fill-rule="evenodd" clip-rule="evenodd" fill="#F5931F" d="M972.4,82.8c0.1,0,0.2,0.1,0.2,0.3c0.1,0.5-0.2,0.7-0.5,0.9
					c-0.4,0.3-1,0-1.1-0.3C970.9,83,971.8,82.8,972.4,82.8z"/>
				<path fill-rule="evenodd" clip-rule="evenodd" fill="#F5931F" d="M964.3,101c0.4,0,0.9,0.1,1,0.6c0.1,0.3-0.2-0.2,0.1,0.3
					c0.7,0.8-2.6,0.6-2.1-0.3C963.5,101.2,963.9,101,964.3,101z"/>
				<path fill-rule="evenodd" clip-rule="evenodd" fill="#F5931F" d="M1006.8,101.2c0.5-0.6,1.3,0.6,0.9,1c-0.3,0.2-0.3,0.3-0.5,0.4
					C1006.7,103,1006.4,101.7,1006.8,101.2z"/>
				<path fill-rule="evenodd" clip-rule="evenodd" fill="#F5931F" d="M974.4,117.7c0.1,0.5-1.8,0.1-1.5-0.4
					C973.3,116.9,974.3,117.2,974.4,117.7z"/>
				<path fill-rule="evenodd" clip-rule="evenodd" fill="#F5931F" d="M968.1,120.2c0.6-0.5,2,0.7,1.4,1.2c-0.3,0.2-0.7,0.1-1.1-0.1
					C968.1,121.1,967.7,120.5,968.1,120.2z"/>
				<path fill-rule="evenodd" clip-rule="evenodd" fill="#F5931F" d="M967.6,126.8c0.6-0.3,1.7,0.8,1.1,1.3
					c-0.2,0.2-0.7,0.1-0.9-0.1C967.4,127.8,967.1,127,967.6,126.8z"/>
				<path fill-rule="evenodd" clip-rule="evenodd" fill="#F5931F" d="M965.9,127.3c0.4-0.4,1.1,0.6,0.8,0.7
					C966.3,128.1,965.6,127.6,965.9,127.3z M966.3,127.6C966.7,128,966,127.1,966.3,127.6L966.3,127.6z"/>
				<path fill-rule="evenodd" clip-rule="evenodd" fill="#F5931F" d="M1006.5,136.6c0.9-0.2,0.6,1,1,1.9c0.3,0.8-0.2,2.6-1.6,1.8
					C1004.7,139.7,1005.6,136.9,1006.5,136.6z M1006.5,139.5c-0.1-0.1-0.4,0-0.3,0.1C1006.3,139.6,1006.6,139.5,1006.5,139.5z"/>
				<path fill-rule="evenodd" clip-rule="evenodd" fill="#F5931F" d="M966.5,95.5c0.3,0-0.1,0.6-0.3,0.8c-0.3,0.2-0.6,0.2-0.8,0.2
					C964.8,96.4,966.1,95.5,966.5,95.5z"/>
				<path fill-rule="evenodd" clip-rule="evenodd" fill="#F5931F" d="M992.1,140c-0.5,0.6-2,0.5-2.1-0.3c-0.1-1.1,0-2.3,0.9-3
					C991.6,136.1,992.8,139.2,992.1,140z"/>
				<path fill="#F5931F" d="M992.3,89.2c0,0.1,0.1,0.2,0.1,0.3c-0.1-2-0.9-4-1.7-6.1C990.9,85.6,991.7,87.6,992.3,89.2z"/>
				<path fill="#F5931F" d="M990.8,81.8c0-0.3,0.4-0.5,0.5-0.9c0.2-2.1,0.4-4.9-0.7-6.1c-0.2-0.2-0.6-0.5-0.6-0.7
					c-0.1-0.4,1-1.7,0-2.4c-0.3-0.2-0.2,1-0.6,0.7c-0.9-0.6-1.3,1.3-1.2,2.6c0.2,3,1.5,5.8,2.6,8.5
					C990.7,82.9,990.7,82.3,990.8,81.8z"/>
				<path fill="#F5931F" d="M974.2,123.5c-0.3,0.5-0.2,0.9,0.3,1.4c0.5,0.5,1.5-0.1,2.2-0.5c0.6-0.3,0.8-1,1.3-1.5
					c0.9-1,0.8-1.7,1.6-2.7c0.3-0.4,0.7-0.7,1.1-1C978.2,120.3,975.3,121.5,974.2,123.5z"/>
				<path fill="#F5931F" d="M985.5,125.1c0.5-0.5,0.9-0.9,1.3-1.4C986.1,124,985.8,124.5,985.5,125.1z"/>
				<path fill="#F5931F" d="M1011.6,118.7c-0.3-0.6-0.9,0-1.2-0.3c-0.5-0.5,0.7,0.2,0.4-0.4c-0.1-0.2,0.1-0.3,0-0.5
					c-0.1-0.2-0.4,0.2-0.4,0c-0.1-1.8-3.2-1.8-5.3-3.4c-0.9-0.7,0.3-1.4-0.6-2.2c-0.5-0.5-0.9,0.9-1.1,0.9c-0.1,0-0.4,0-0.5,0.1
					c-0.2,0.1,0,0.4-0.3,0.7c-0.2,0.1-0.7,0.2-0.7,0.3c0,0.2,0.5,0.4,0.5,0.6c0.1,1.2-1.1,2.6-2.3,2.8c-1.2,0.2,1.2-3.7,1.1-3.8
					c0.1-0.1,0.2-0.3,0.3-0.4c0,0,0,0,0,0c0.6-0.4,1.3-0.8,1.1-1.1c-0.3-0.5,0.7-0.7,0.6-1.6c0-0.1-0.1-0.8-0.1-0.9
					c0.1-0.2,0.9,0.6,1,0.5c0.3-0.2,0.1-0.5,0.1-0.7c0-0.5,0.8-1,0.4-1.7c-0.2-0.3-0.5,0.1-0.5-0.2c-0.3-1.3,1.2-2.3,1.3-3.7
					c0-0.3-0.1-0.4-0.4-0.7c-0.4-0.5-0.9,0.5-1.5,0.2c-1.3-0.9-0.1-2.9-0.8-4.2c-0.6-1.1-2.3-1.1-2.5-2.2c-0.6-2.9,3.8-4.4,4.4-6.6
					c0.2-0.6,0.5-1.4,0.1-1.3c-1.7,0.1-1.5,3.6-3.1,4.2c-0.2,0.1-0.4-0.1-0.5,0c-2.6,2.1-4.4,3.4-5,1c-0.7-2.5,0.3-5.6,1.4-8.2
					c0.2-0.5,0.1-1.1,0-1.5c-0.5-0.9-0.8-1-1.4-1c-1-0.1-0.3,2.2-0.5,3.3c-0.2,1.7,0.5,5.9-1.2,6.8c-1.2,0.6-2-0.5-2.1-1.3
					c-0.1-1.1,0.2-1.6-0.1-2.5c0.1,1.4-0.1,2.9-0.8,4.4c-1.4,3.1-6.7,1.4-9.1-2.5c-1.4-2.3-2.9-6.4-5.3-5.5c-0.1,0.1-0.2,0-0.4,0.1
					c-2.7,1.2,1.1,4.4,3.1,5.7c2.4,1.6,5.8,3.3,6.2,6.2c0.6,4.7-6.8-0.1-9.3-1.1c-2.6-1.1-5-2.5-6.5-5.1c-0.6-1-2.3-1.3-2.7-2.5
					c-0.1-0.2-0.2-1-0.3-1.1c-1.1-0.8-5.7,0.3-2.3,2.7c0.2,0.1,0.6,0.1,0.9,0.5c1.4,1.6,2.5,2.2,4.8,3.3c0.8,0.4,1.7,0.9,2.7,1.3
					c3.4,1.2,6.7,2.8,9.3,5.3c0.5,0.5,1,1,1.1,1.7c0.4,1.9-1.4,2.8-1,4.8c0.1,0.6,0.8,0.8,0.8,1.5c0,1-1.4,0.5-1.3,1.7
					c0.1,1,2.6,0.2,2.1,1.3c-1.3,2.9-9.1,2.9-7.8,5.4c1.2,2.5,6.6-5.8,7.6-3c0.2,0.6,0.2,1.1,0.1,1.5c1-1.4,2-3.4,3.3-2
					c0.1,0.1,0.2,0.2,0.2,0.4c0.4,3.8-6.6,5.3-4.4,7.9c0.9,1.1,3.6-3.8,4.1-1.7c0.3,1-0.1,2.1-0.9,3.1c0,0,0,0,0,0
					c0.4-0.2,0.4-0.4,0.7-0.5c0.3-0.1,1-0.3,1.1,0.2c0,0.8-1.1,2.7-0.1,2.4c1.2-0.4,1-3.9,2.2-2.8c0.1,0.1,0.2,0.2,0.2,0.4
					c0.1,1.2,0,3.3,0,4.6c0,1.2-1.4,1.9-1.4,3.1c0,0.9,0.8,3.2,1.5,3.5c3.1,1,1.9-5.5,2.2-8.3c0.2-1.6,1.5-4.3,0.4-5.9
					c-0.2-0.3-0.5-0.5-0.4-0.7c0.3-0.6,0.1-1.2,0.9-1c1.6,0.4,1.4,3.1,2.1,4.6c0.6,1.1,1.1,2.3,1.5,3.6c0.1-1.8,0.1-2.9-0.8-4.8
					c-0.2-0.4-1-1.5-0.8-2.2c0-0.2,0.4,0.3,0.4,0c-0.1-0.9,0.3-3.9,1.3-3c0.5,0.5,0.8,0.4,0.9,1c0.3,3.6,2.3,6.4,2.9,9.6
					c0.3,1.4,0.7,2.4,1.5,3.2c0.3,0.3,0.2,1.1,0.7,1c0.8-0.2-0.3-1.5,0.5-2.1c0.5-0.3,1.2-0.1,1.1-0.6c-0.1-0.5-0.2-0.8-0.5-1.1
					c-0.5-0.6-0.9,0.8-1.4,0.7c-1.6-0.3-2.7-3.8-1.6-4.5c2.3-1.6,6.4,1.8,7.9,0c0.7-0.8,1.4-1.9,1.7-3.1
					C1011.8,120.1,1011.9,119.5,1011.6,118.7z"/>
				<path fill="#F5931F" d="M980.7,119.1c1.7-0.9,3.2-1.8,3.6-3c-0.2,0.3-0.4,0.5-0.6,0.7C982.8,117.7,981.7,118.2,980.7,119.1z"/>
				<path fill="#F5931F" d="M998.6,135.6c-0.4,3-0.9,6.7,0.9,9.2c0.3,0.4,0.7,1.1,1.2,0.9c0.2-0.1,0-0.2,0-0.4
					c0.2-0.7,0.6-1.9,0.5-2.4c-0.2-1.1-0.3-2.6-0.9-2.5c-0.2,0,0,0.7-0.2,0.5c-0.3-0.2,0.2-0.7,0.2-0.9c-0.2-0.9,0-0.9-0.4-1.6
					c-0.3-0.5-0.6-1.2-0.6-1.4c-0.1,0-0.1,0-0.1-0.1c-0.1-0.5,0.1-0.9,0-1.7c-0.1-0.6-0.3-1.5-0.4-2c-0.1-0.9-0.3-0.9-0.6-1.4
					c0.1,1.2,0.2,2.3,0.2,3.4C998.4,135.3,998.7,135.2,998.6,135.6z"/>
				<path fill="#F5931F" d="M997.7,126.9c0-0.1-0.1-0.1-0.1-0.1c0.1,0.7,0.3,1.4,0.4,2C997.9,128.1,997.9,127.4,997.7,126.9z"/>
				<path fill="#F5931F" d="M980.7,132.3c1.6,1.2,2.3-3.2,3.5-4.9c0.5-0.7,0.8-1.6,1.2-2.3C982.6,127.9,978.2,130.3,980.7,132.3z"/>
				<path fill="#F5931F" d="M998.2,131.6c-0.1-0.9-0.2-1.8-0.3-2.7c0,0.8,0,1.7,0.2,2.3C998.1,131.4,998.2,131.5,998.2,131.6z"/>
			</g>
			<path opacity="0.8" fill-rule="evenodd" clip-rule="evenodd" fill="#B1D035" d="M1003.7,112c0.1-0.1,0.2-0.3,0.3-0.4
				c-0.2,0.2-0.5,0.3-0.8,0.4C1003.4,112.1,1003.6,112.2,1003.7,112z"/>
			<path opacity="0.8" fill-rule="evenodd" clip-rule="evenodd" fill="#B1D035" d="M972,129.4c-0.4,0.1-0.7,0.3-1.1,0.6
				c0.1,0.2,0.2,0.4,0.2,0.6C971.3,130.2,971.6,129.7,972,129.4z"/>
			<path opacity="0.8" fill-rule="evenodd" clip-rule="evenodd" fill="#B1D035" d="M989.1,144.8c-0.6,0.2-1.1,0.5-1.1,1.1
				c-0.2,3.3,3.9,8.6,7.3,5.9c0.6-0.5,0.6-0.9,0.4-1.3C992.5,150.2,989.8,147.6,989.1,144.8z"/>
			<path opacity="0.8" fill-rule="evenodd" clip-rule="evenodd" fill="#B1D035" d="M970.8,132.7c-0.1,0.3-0.3,0.6-0.6,0.9
				c0.3,0,0.7,0.1,1,0.1C971.1,133.4,970.9,133.1,970.8,132.7z"/>
			<g opacity="0.8">
				<path fill-rule="evenodd" clip-rule="evenodd" fill="#EDC21E" d="M987,104.2c0,0,0.1,0,0.2,0c0.6,0.6,1.1,3.3,0.2,3.5
					c-0.8,0.2-1.2-2.2-1.1-3c0.1-0.3,0.5-0.9,0.7-0.8C987.1,103.9,987,104.2,987,104.2z"/>
				<path fill-rule="evenodd" clip-rule="evenodd" fill="#EDC21E" d="M976.6,97.4c-0.3,0-0.4-0.8-0.3-1.1c0.1-0.2,0.7-0.3,0.8-0.2
					C977.4,96.4,976.9,97.4,976.6,97.4z"/>
				<path fill-rule="evenodd" clip-rule="evenodd" fill="#EDC21E" d="M968.9,89.1c0.2-0.3,1.2-0.4,1.4-0.1c0.2,0.4-0.5,1.5-1,1.5
					C968.9,90.4,968.7,89.4,968.9,89.1z"/>
				<path fill-rule="evenodd" clip-rule="evenodd" fill="#EDC21E" d="M995.4,90.8c-0.1-0.3,0.3-0.9,0.6-1c0.3,0,0.9,0.5,0.9,0.8
					c0,0.1,0,0.4-0.2,0.5C996.5,91.3,995.5,91.1,995.4,90.8z"/>
				<path fill-rule="evenodd" clip-rule="evenodd" fill="#EDC21E" d="M986.3,80.2c-0.3,0.2-0.1-0.6-0.3-0.9c-0.7-1.4,0-3.2,0.1-4.6
					c0-0.6-0.3-1.8,0.2-1.5C988.3,74.1,988.4,78.9,986.3,80.2z"/>
				<path fill-rule="evenodd" clip-rule="evenodd" fill="#EDC21E" d="M1001.4,79.1c0.2,0,0.2,0.2,0.3,0.4c0.4,0.8-1.8,2.2-2.3,1.4
					c-0.1-0.1,0-0.1-0.1-0.2C999,79.9,1000.5,79.2,1001.4,79.1z"/>
				<path fill-rule="evenodd" clip-rule="evenodd" fill="#EDC21E" d="M989.4,80.5c-0.8,0.1,0.3-1.4,0.5-2.2c0.1-0.5,0.5-1.7,0.9-1.2
					C991.5,78.1,990.9,80.3,989.4,80.5z"/>
				<path fill-rule="evenodd" clip-rule="evenodd" fill="#EDC21E" d="M986.2,70.1c-0.1,0.1-0.2-0.3-0.1-0.4
					C986.2,69.5,986.3,70.1,986.2,70.1z"/>
				<path fill-rule="evenodd" clip-rule="evenodd" fill="#EDC21E" d="M986.1,69.6c-0.6,0-0.5-2,0-1.9
					C987,67.9,986.8,69.6,986.1,69.6z"/>
				<path fill-rule="evenodd" clip-rule="evenodd" fill="#EDC21E" d="M971.6,81.6c0,0.4-0.4,0.7-0.8,0.7c-0.2,0-1.8-0.4-1.8,0.4
					c0,0.8,0.4,1.4,0.8,1.5c0.2,0,0.6-0.4,0.8-0.3c0.3,0.2,0.2,1,0,1.3c-0.2,0.3-0.9,0.9-1.1,0.9c-0.2-0.2,0.3-0.7,0.1-0.9
					c-0.3-0.3-1.6,0-1.9,0.4c-0.2,0.3-0.2,0.9-0.1,1.2c0.2,0.4,1.1,0.8,1.6,0.7c0.5-0.1,1.2-0.8,1.6-0.7c0.3,0.1,1.1,0.4,1.1,0.8
					c0,0.2-0.7,0.1-0.8,0.3c0,0.2,0.5,0.5,0.6,0.7c0.1,0.2-0.7,1.4-0.6,1.6c0.8,0.9,1.5-1,1.8-0.9c0.1,0,0.2,0.2,0.2,0.3
					c0,0.9-1,2.8-1.9,3c-0.2,0.1-0.6-0.4-0.8-0.3c-0.4,0.2-0.5,1.1-0.7,1.5c-0.3,0.5-1.9,1.4-1.5,1.8c0.4,0.4,1.2-1.5,1.8-1.6
					c0.2,0,0.5,0.4,0.7,0.3c0.4-0.1,0.5-1.2,0.8-1.5c0.6-0.7,1.8-2.4,2.7-2.3c0.1,0,0.2,0.2,0.2,0.3c0,0.6-1.5,1.3-1.8,1.9
					c-0.2,0.3-0.5,1-0.4,1.3c0.1,0.3,0.8,1,1.2,0.9c0.4-0.1,1-1,0.9-1.4c0-0.2-0.4-0.4-0.4-0.5c0-0.5,0.8-1.7,1.4-1.7
					c0.4,0,0.4,0.9,0.3,1.3c-0.1,0.3-1,0.3-0.9,0.7c0.1,0.4,1.5,0.5,1.8,0.2c0.1-0.2,0-0.6,0.1-0.8c0.1-0.2,0.2-0.2,0.3-0.2
					c0.5,0.1,0.8,0.7,1.1,1c0.4,0.3-0.2,1.8,0.1,2.2c0.2,0.4,2.8,0.9,2.8,1c0,1.1-1.1,1-1.1,1.9c0,0.8-0.2,1.3-0.6,2
					c-0.4,0.6-0.8,1.2-1.2,1.8c-0.4,0.5-0.7,1.1-1.1,1.6c-0.4,0.5-2.2,2.1-2.7,2.5c-0.8,0.7,1.6,1,2,0.7c0.5-0.4,1.6-2.7,1.9-3.2
					c0.3-0.5,1.4-1,1.7-1.5c0.3-0.6-0.1-1.1,0.2-1.7c0.7-1.1,1-3,2.1-3.4c0.9-0.3,1.8,0.9,2.3,1.6c0.7,1,0.7,4.6,1.9,4.3
					c1.3-0.4-1.4-4-0.9-5.3c0-0.1,0.3-0.4,0.5-0.4c0.3-0.1,0.9-0.1,1.1,0c0.8,0.3,2,1.4,2.5,2c0.4,0.5,1,1.6,1.4,2.1
					c0.3,0.6,0.9,1.7,1.2,2.3c0.2,0.3,0.7,0.9,0.8,1.2c0.1,0.6,0.5,1,0.6,1.6c0,0.1,0.2,0.2,0.1,0.3c0,0.1-0.4,0.2-0.5,0.3
					c-0.3,0.7-0.5,2.5,0.1,3c1.1,0.7,2.9,0.3,3.7-0.7c0.6-0.7,0.6-2.8,0.1-3.5c-0.3-0.4-1.3-0.3-1.7-0.6c-0.5-0.3-1-1.4-1.5-1.8
					c-0.1-0.1-0.4-0.1-0.5-0.2c-1-0.8-2.2-3-2.8-4.1c-0.1-0.2-0.2-0.6-0.3-0.7c-0.1-0.2-0.5-0.4-0.7-0.6c-0.1-0.1-0.1-0.4-0.1-0.5
					c-0.1-0.3-0.6-0.8-0.6-1.2c0-0.4,0.7-1,0.9-1.3c0.3-0.3,1.1-1.1,1.5-1c0.2,0,0.3,0.7,0.5,0.7c0.4,0,1-1.1,0.7-1.4
					c-0.2-0.3-1.1,0.5-1.4,0.3c-0.3-0.3,0-1.3,0.1-1.7c0.1-0.3,0.2-1,0.4-1.1c0.3-0.2,1.3,0.2,1.6-0.1c0.1-0.1,0-0.4-0.1-0.4
					c-0.3-0.2-1.2,0.2-1.4,0c-0.3-0.3,0-1.2,0-1.6c-0.1-0.5-0.7-1.5-0.5-2c0.1-0.2,0.3-0.4,0.5-0.6c-0.3,0.2-0.6,0.2-0.9,0.1
					c-0.4-0.2,0-1.2,0.1-1.6c0.1-0.2,0.3-0.6,0.4-0.8c0.4-0.4,1-0.7,1.4-1.2c0.6-0.6,1.6-1.2,1.5-1.6c2-0.7,5.3-3.1,3.7-4.4
					c-1.7-1.4-3.4,2.9-5,4.5c-1.3,1.2-2.5,4.1-3.7,3.6c-1.1-0.4,1-3.6-0.4-4.3c-0.7-0.4-0.4,1.8-1.7,2c-0.3,0-0.4,0.8-0.7,0.6
					c-0.8-0.4,0.3-2.5-0.4-2.4c-0.4,0.1,0,2.1-0.7,2c-0.5-0.1-0.9,0-1.5-0.3c-0.4-0.2-0.7-0.3-0.9-0.7c-0.1-0.1-0.1-0.2,0-0.3
					c0.6-0.7,1.1-1.7,0-1.6c-0.8,0.1-0.1,1.3-0.9,1.1c-1.2-0.3-0.9-2.2-2.8-2.2c-0.6,0-0.5-1.1-1.2-0.8c-0.8,0.4-1.2,0.1-1.9-0.1
					c-0.6-0.1-1.1,0.3-2,0.4c-0.4,0.1-0.3,0.9-0.6,0.9c-1.1,0-0.5,0.5-0.7,0.9c-0.3,0.7-3.4-1.5-3.9-1
					C968.9,79.6,971.7,81.3,971.6,81.6z"/>
				<path fill-rule="evenodd" clip-rule="evenodd" fill="#EDC21E" d="M992,86.4c0.1-0.1,0.3-0.2,0.4-0.3
					C992.2,86.2,992.1,86.3,992,86.4z"/>
				<path fill-rule="evenodd" clip-rule="evenodd" fill="#EDC21E" d="M965.8,79.7c0.8,0.4,2,0.5,3,0.6c0.8,0.1,2.9,1.1,3.1,0.8
					c0-0.1-0.1-0.1-0.1-0.2c-1.5-1.2-1.3-0.8-2.9-1c-1.2-0.2-2.6-1.7-3.5-0.7C965.2,79.5,965.6,79.6,965.8,79.7z"/>
				<path fill-rule="evenodd" clip-rule="evenodd" fill="#EDC21E" d="M997.4,82.4c-1.2-1.6-3.4,2.3-5,3.7
					C994.3,84.9,998.6,84,997.4,82.4z"/>
				<path fill-rule="evenodd" clip-rule="evenodd" fill="#EDC21E" d="M993.7,94.3c-0.1-0.4-0.1-1.3,0.2-1.6c0.4-0.4,1.6-0.4,2.1-0.2
					c0.6,0.2,1.6,1,1.7,1.6c0.3,1.6-1.7,2-2,2C995.1,95.8,994,94.9,993.7,94.3z"/>
				<path fill-rule="evenodd" clip-rule="evenodd" fill="#EDC21E" d="M986.2,73.1c-0.5,0.1-0.6-1.7-0.1-1.9
					C986.7,71.1,986.8,73,986.2,73.1z"/>
				<path fill-rule="evenodd" clip-rule="evenodd" fill="#EDC21E" d="M975.5,72.7c0.7-0.7,3.1,0.7,3.5,1.5c0.2,0.6-0.5,2.4-1.2,2.5
					C976.6,76.8,974.7,73.6,975.5,72.7z"/>
			</g>
			<path opacity="0.8" fill-rule="evenodd" clip-rule="evenodd" fill="#D01C5C" d="M916.7,103.3c8.4-3.6,11.2,9.9,2.4,10.2
				C913.3,113.7,910.9,105.8,916.7,103.3z M921.1,106.6c-0.3,0.4,0.3,0.9,0.6,1c0.3,0.1,1-0.1,1.3,0c0.7,0.1,0.2-1.1,0.1-1.4
				C922.7,105.3,921.7,105.8,921.1,106.6z"/>
			<g opacity="0.8">
				<path fill-rule="evenodd" clip-rule="evenodd" fill="#F6AF18" d="M949.8,122.7c0.7-0.1,0.7-1.4,1.4-1.3c0.3,0,0.5,0.2,0.7,0.3
					c2.5,1.6,4.9,3.8,5.5,6.6c0.3,1.1,1.1,2.1,1,2.8c0,0.2-0.3,0.4-0.5,0.5c-1.6,1-2.1-1.6-3.4-3.1c-0.8-1-1.5-2-2-2.5
					c-0.7-0.7-1.1-0.3-2.3-0.2c-1.5,0.2-1.6-2.5-2.9-3.1c-1.6-0.7-2.8-1.4-4.2-2.4c-0.5-0.4-1.1-0.9-1-1.5c0.1-0.3,0.4-0.6,0.7-0.6
					C945.8,118.3,946.3,123.1,949.8,122.7z"/>
				<path fill-rule="evenodd" clip-rule="evenodd" fill="#F6AF18" d="M1017.4,156.1c0.4,0.6-0.4,0.1-1.1,0.7
					c-0.7,0.6-1.8-0.7-2.7-0.6c-0.2,0,0.3,0.3,0.1,0.4c-1,0.6-2.4,0.1-2.7-0.8c-0.1-0.3,0.5,0,0.6,0.1
					C1013.8,156.4,1016.5,155,1017.4,156.1z"/>
				<path fill-rule="evenodd" clip-rule="evenodd" fill="#F6AF18" d="M1012.6,123.2c0.3,1.4-2.3,4-3.5,2.6c-0.4-0.5-0.8-0.5-1.1-0.5
					c-2.1,0.3-2.7,3-4.7,3.8c-0.5,0.2-0.8,0-1.5,0c-0.3,0-0.2-0.3-0.4-0.4c-0.5-0.1-1.2,0.7-1.4,0.1c-0.4-1,1.7-0.9,2.7-1.3
					c3.2-1.4,4.8-6.4,8.7-5.7C1012,121.9,1012.5,122.5,1012.6,123.2z"/>
				<path fill-rule="evenodd" clip-rule="evenodd" fill="#F6AF18" d="M1003.4,163.3c0.4,0.5-1.4,0.3-2-0.3
					C1000.4,162.3,1002.9,162.8,1003.4,163.3z"/>
				<path fill-rule="evenodd" clip-rule="evenodd" fill="#F6AF18" d="M996,161c0.4,0.7-1.1,0.4-1.3-0.2
					C994.5,160.3,995.8,160.5,996,161z"/>
				<path fill-rule="evenodd" clip-rule="evenodd" fill="#F6AF18" d="M994.6,160.3c0.1,0.1,0,0.2,0,0.3c-0.1,0.1-0.2,0-0.3-0.1
					c-0.1-0.1,0-0.2,0-0.3C994.4,160.2,994.5,160.2,994.6,160.3z"/>
				<path fill-rule="evenodd" clip-rule="evenodd" fill="#F6AF18" d="M1001.7,142.9c0.2,0.3,0.1,0.7-0.2,0.9
					c-0.8,0.7-1.4-1.2-0.8-1.6C1001.1,142,1001.4,142.5,1001.7,142.9z"/>
				<path fill-rule="evenodd" clip-rule="evenodd" fill="#F6AF18" d="M980.4,153.3c0.3-0.3,0.5,0.6,0.3,0.8
					C980.3,154.4,980.1,153.5,980.4,153.3z"/>
				<path fill-rule="evenodd" clip-rule="evenodd" fill="#F6AF18" d="M964.8,157.9c0.1,0.3-0.8,2-0.8,2s-2.5,3.3-4.9,2.1
					c-1.5-0.8-4-0.9-3.7-3.6c0.3-2-0.7-5.2,1.9-5.9c4.3-1.2,2.4,2.6,5.6,4.5C963.1,157,964.6,157.5,964.8,157.9z"/>
				<path fill-rule="evenodd" clip-rule="evenodd" fill="#F6AF18" d="M968.3,127.4c-0.6,0.2-1.6,0-2.2-0.5c-1.7-1.6-2.7-5.7-0.8-6.4
					c1.7-0.7,2.3,2.7,3.1,4.5C968.8,125.8,969.1,127.2,968.3,127.4z"/>
				<path fill-rule="evenodd" clip-rule="evenodd" fill="#F6AF18" d="M975.1,126.8c0.3-0.8,0.8-0.7,1.5-0.8c1-0.2,2.3,0,2.5,0.9
					c0.4,1.5-1.1,2.8-2.4,2.4C975.6,129,974.9,128.2,975.1,126.8z"/>
				<path fill-rule="evenodd" clip-rule="evenodd" fill="#F6AF18" d="M963.8,117.7c-0.2,0-1.4-0.6-1.6-0.7c-0.5-0.6-1.2-1.1-1.4-1.9
					c-0.2-1.2,2.5-3.8,4.5-2.2c1.1,1.9-0.6,2.8-1.1,3.7C964.2,116.9,964,117.7,963.8,117.7z"/>
				<path fill-rule="evenodd" clip-rule="evenodd" fill="#F6AF18" d="M1009.4,156c1.1,0.5-0.8-0.2-1.8-0.1c-1.2,0.1,1.4-1,1.7-0.6
					C1009.6,155.6,1009.1,155.8,1009.4,156z"/>
				<path fill-rule="evenodd" clip-rule="evenodd" fill="#F6AF18" d="M1007.1,165.6c1-1.6,6,0.5,5.9,2.4c-0.1,1.6-2.9-0.5-4.4-1.2
					C1007.5,166.4,1006.4,166.7,1007.1,165.6z"/>
				<path fill-rule="evenodd" clip-rule="evenodd" fill="#F6AF18" d="M1001.2,153.5c-0.4,0.2-1.3,0.1-1.6,0.2
					c-0.8,0.1-2.7,0.9-3.2,0.1c-1.4-2.2,1.6-1.2,2.6-1.3c0.1,0,1.2-0.4,1.6-0.3c0.3,0,1,0.4,1.1,0.7
					C1001.8,152.9,1001.4,153.4,1001.2,153.5z"/>
				<path fill-rule="evenodd" clip-rule="evenodd" fill="#F6AF18" d="M995.4,159.4c0.9-0.7,2.5,0.6,3.3,1.3c0.8,0.7,2.1,0.5,1.9,1.5
					c-0.1,0.8-1.7-0.7-2.3-0.9c-0.7-0.3-2.3-0.5-2.7-1.2C995.5,159.8,995,159.7,995.4,159.4z"/>
				<path fill-rule="evenodd" clip-rule="evenodd" fill="#F6AF18" d="M994.7,159c0.2,0.6-1.1-0.5-1.2,0.1c0,0.2,0.2,0.1,0.4,0.5
					c0.3,0.7-0.8-0.1-1.1-0.5c-0.9-1.1-3-1.5-2.7-2.4C990.3,155.9,994.2,157.5,994.7,159z"/>
				<path fill="#F6AF18" d="M978.9,155.7c0.2,0,0.2-0.3,0.2-0.4c0-0.4-0.2-0.3-0.6-0.1C978.1,155.4,978.7,155.8,978.9,155.7z"/>
				<path fill="#F6AF18" d="M978.9,154.7c0.1-0.1,0.2-0.3,0.1-0.4c-0.6-0.6-1.2-1.5-1.2-0.8C977.6,154,978.2,155.3,978.9,154.7z"/>
				<path fill="#F6AF18" d="M943.7,140.8c-0.3,0.3-0.1,0.9,0.1,1.2c0.2,0.3,0.5,0.4,0.9,0.7c1.9,1.3,5.6-0.2,7.8-0.3
					c1.1,0,2.7,0.9,2.9,0C955.7,140.7,946.2,137.8,943.7,140.8z"/>
				<path fill="#F6AF18" d="M934.2,146.8c0.1-0.1,0.5,0.2,0.4,0.3c0.3,0.1,0.6-0.4,0.8-0.2c0.1,0-0.2,0.3-0.2,0.3
					c1.4,0.7,5.3,1,5.8,0.1c0-0.1-0.3-0.2-0.1-0.3c0.2-0.1,0.4-0.2,0.6-0.3c-0.6,0-1.2,0-1.8,0c-4,0.1-9.5-3.6-11.9-0.4
					c-0.7,0.9,1.4,1.7,2.3,1.6c1.4-0.2,3.2,0,4-0.4"/>
				<path fill="#F6AF18" d="M974,153.8c0-0.1-0.4-0.6-0.3-0.7c0.1-0.2,0.7,0,0.9,0c0,0,0,0,0,0c0.1,0,0.5,0.1,0.5,0
					c0.1-0.1-0.2-0.7,0.3-0.7c0.3,0,0.3,1,0.5,0.5c0.3-0.7,0.3-1.3,0.9-1.2c0.5,0.1-0.5,1.1,0,1c0.8-0.2,1.4,0.6,1.8,0.4
					c0.7-0.4,0.1-1.9-0.6-2c-0.4-0.1,0-0.2-0.1-0.3c-0.1-0.1-0.6-0.1-0.2-0.3c0.2-0.1,0.3,0,0.4,0.1c0.1,0.1,0.2,0.1,0.2,0.2
					c0.6,0.4,0.8,2.1,1.3,1.8c0.5-0.4-0.7-1.2-0.3-1.8c0.2-0.4,0.4-0.2,0.8,0c2.1,0.9,2.2,3.3,4,3.4c0.6,0,0.6,0.3,1.1,0.6
					c1.1,0.7,2.5,2.1,2.9,1.1c0.6-1.8-4.3-1.8-5.6-3.3c-0.5-0.5-0.6-2-0.7-2.9c-0.1-0.4,1.1,0,0.8-0.4c-0.4-0.6-2.3-0.6-1.4-1
					c0.4-0.2,1.5,0.1,1.9-0.1c2.9-1.1,0.4-2.2,0.4-3.8c0-0.5-0.9-0.6-0.9-1.1c0,0,0-0.1,0-0.1c0.5-0.6,2.7,2.9,3.3,1.8
					c0.4-0.8-2-1.7-1.9-2.4c0.1-0.5,0.6,0.5,1.2,0.6c0.2,0,0.4-0.2,0.5-0.3c0.7-0.7-1.7-0.8-0.9-1.3c0.7-0.5,1.5,1.4,2,0.9
					c0.7-0.6-1.2-0.7-0.4-1.1c0.7-0.4,2.9,1.6,3.8,1.2c2.6-1.2,6.5,1.4,6.5-0.5c-0.1-2.8-9,0.1-10.1-2.6c-0.5-1.3-0.4-2.5,0.5-3.3
					c0.6-0.5,0.2-0.1,0.7-0.5c2.1-1.8,5.6-3,8.6-4.4c1.5-0.7,3.7-0.8,3-1.7c-3.4-4.3-9.4,8.2-14.4,4.6c-0.6-0.4-0.8-1.5-0.7-2.3
					c0-0.2,0.6,0.1,0.6-0.2c0.4-1.2,3.8-1.6,3.4-2.9c-0.1-0.2-0.5-0.3-0.3-0.3c0.8-0.2,1.5-1.6,2.4-1.8c2.5-0.6,0.9-4.4,3.4-5.7
					c0.2-0.1,0.7-0.7,0.6-1.1c-0.1-0.4-1-0.7-1.5-0.4c-1.5,1-1.9,2.9-3.1,4.4c-1.1,1.3-1,3-2.4,4.4c-1.5,1.5-3.3,3-5.4,4.1
					c-0.6,0.3-1.8,1.5-2.7,1.1c-0.8-0.4-1.2-2.7-2.1-2.6c-0.9,0.1-0.6,2.5-1.3,2.9c-1.4,0.9-3.8,0.1-4.7-0.5c-1.5-0.9-0.7-7-3.9-5.1
					c-1.8,1.1,5.3,3.9-0.3,7.4c-2.1,1.3-2,4.8-4.2,6.4c-0.6,0.4-1.7,0.4-2.5,0.2c-1.6-0.5-4.4-1.8-4.7,0.1c-0.2,1.1,3.1,0.5,4.6,0.9
					c0.4,0.1,1,0.3,1.1,0.5c0.3,0.4,0.9,0.7,0.4,1.1c-0.4,0.3-0.8,0.5-1.3,0.6c-2,0.4-5,0.5-6.8,1c-0.2,0-0.2,0.3-0.4,0.4
					c-0.8,0.2-1.4-0.1-2.2-0.4c-2.9-1-7.2-1.2-9.7-0.1c5.9,0.2,13.1,2,18.8,1.4c1-0.1,2.2-1.3,3.2-1c1.5,0.5,0.4,2.6,1.4,4.3
					c1.2,2,3.6,2.2,5.1,2.8C970.9,154.5,972.8,156.6,974,153.8z M983.9,141.9c-0.2-0.2,0-0.3,0.2-0.4c0.1-0.1,0.2,0.1,0.3,0.2
					C984.4,141.8,984,142.1,983.9,141.9z M982.3,145.2c-0.1-0.2,0-0.4,0.2-0.5c0.3-0.2,0.5,0.2,0.6,0.4
					C983.1,145.4,982.4,145.5,982.3,145.2z M981.5,146.8c0-0.2,0.1-0.4,0.3-0.5c0.3-0.2,0.9,0.3,1,0.6
					C982.9,147.6,981.6,147.3,981.5,146.8z M980,149.7c-0.2-0.2,0.4-0.4,0.5-0.2C980.6,149.6,980.2,149.8,980,149.7z"/>
				<path fill="#F6AF18" d="M974.7,153.1C974.7,153.1,974.8,153.1,974.7,153.1C974.8,153.1,974.8,153.1,974.7,153.1z"/>
			</g>
			<path opacity="0.8" fill-rule="evenodd" clip-rule="evenodd" fill="#EDAA21" d="M1012.5,95.2c3.4,0,5.4,1.6,4.5,2.7
				C1014.9,100.4,1006.1,95.3,1012.5,95.2z"/>
			<path opacity="0.8" fill-rule="evenodd" clip-rule="evenodd" fill="#D43B6C" d="M907,105.8c1-0.8,3.5-2.6,4.7-2.2
				c0.3,0.1,0.1,0.9,0.4,1c0.8,0.4,2.6-1.2,3.5-1c1.6,0.5,2.3,4.5,3.7,5.2c0.9,0.5,3.2,0.6,4.1,0.3c0.4-0.1,0.8-0.8,1.2-0.9
				c0.9-0.2,2.8,0.6,3.6,1c0.7,0.3,1.8,1.3,2.3,1.8c0.6,0.6,1.3,1.8,1.5,2.9c0.2,0.9,0.7,1.7,0.3,2.9c-0.4,1.3-0.5,2-1.2,2.9
				c-0.8,1-1.8,1.8-2.8,2.5c-0.8,0.5-1.3,0.4-2.3,0.8c-0.9,0.3-1.5,0.4-3.1,0.4c-0.9,0-1.2,0.3-2.5-0.2c-1.6-0.7-2.3-1.4-2.9-1.7
				c-0.5-0.3,0.4-0.6,0.1-1.1c-0.3-0.6-0.8-0.7-1.2-0.6c-2.4,0.5-4.1,1.8-5.5,1.6c-0.4-0.1-0.8-0.8-1.2-0.8c-0.3,0-0.9,0.7-1.2,0.5
				c-0.3-0.1-0.2-0.8-0.4-1c-1-1.6-5-3.7-5.2-5.6c0-0.5,1.1-1.2,1.1-1.7c0-0.5-1-1.1-1-1.6c0-0.7,1.1-1.8,1.5-2.4
				C905.1,108.2,906.2,106.4,907,105.8z"/>
			<path opacity="0.8" fill-rule="evenodd" clip-rule="evenodd" fill="#F9AE3A" d="M995.7,91.8c-0.3,0.3-1,0.6-1.3,1.1
				c-1,1.6-4.5,2.2-6.3,0.7c-2.1-1.8-2.5-6.4,0.3-7c0.9-0.2,1.6-0.7,2.5-0.7c1.7-0.1,3.8,1.5,4.2,2.1
				C995.5,88.6,996.8,90.5,995.7,91.8z"/>
			<path opacity="0.8" fill-rule="evenodd" clip-rule="evenodd" fill="#F6AF18" d="M998.1,119.9c0.2-0.2,0.5,0.2,0.7-0.1
				c0.2-0.3-0.5-0.5-0.7-0.9c-1.7-3,2-4.6,5.2-3.8c0.2,0,1.3-0.3,1.8,0c0.7,0.4,0.9,1,1.1,1.3c0.2,0.4,0.4,0.5,0.3,1.1
				c0,0.1,0.2,0.1,0.3,0.2c0.4,0.4-0.4,0.6-0.1,0.8c1.1,0.8,1.3,0.7,0.9,1.8c-0.2,0.5-1.6,0.2-1.5,0.8c0.1,0.3,0.2,0.3,0.5,0.4
				c0.5,0.2,0.1,0.6,0.4,0.9c1.4,1.1,1.9,4,1.6,5.3c-0.1,0.7-1.6,2-1.8,2.4c-0.4,0.8-0.7,0.6-1.6,1.1c-0.4,0.2-0.2,0.4-0.4,0.5
				c-0.9,0.3-2.3,0.5-3.8,0.4c-5.1-0.6-9.6-8-5-10.3c0.7-0.4,1.5-0.3,1.7-0.9C998.1,120.3,997.9,120.1,998.1,119.9z"/>
			<path opacity="0.8" fill="#F9E117" d="M974.6,88.4c-1.2,1.3-2.4,1.3-2.8,3.5c-2-2-5.9-1.2-6.8,1.1c-0.6-0.1-1,0.4-0.9,0.7
				c0,0.2,0.4,0.5,0.4,0.5s-0.8,3.9,4.3,4.8c0.4,0.1,0,0.8,0.3,1.1c0.2,0.2,0.7,0.5,0.4,0.6c-1.1,0.4-1.5,1.7,0,1.9
				c0.6,0.1,1.2-0.4,1.1-1.4c0.1,0.1,0.3,0.2,0.4,0.2c2.3,0.9,5.2-0.7,5.7-2.9c0.2-0.6-0.3-1.4,0.2-1.9c0.2-0.2,0.8-0.1,1.1-0.2
				c0.3-0.1,1.7-1.1,1.9-1.3c1.4-1.9,1.3-5.8-1.3-6.6c-0.8-0.3-0.8-0.3-1.8-0.5C976.8,88,975,87.9,974.6,88.4z"/>
			<g opacity="0.85">
				<path fill-rule="evenodd" clip-rule="evenodd" fill="#F6D009" d="M995.6,163.6c0.1,0.1,0.2,0.2,0.2,0.4c-0.2,0-0.1,0.2-0.3,0.2
					c-0.1,0-0.1-0.1-0.2-0.1c-0.2-0.1,0.2-0.3-0.1-0.3C995.3,163.8,995.4,163.7,995.6,163.6z"/>
				<path fill-rule="evenodd" clip-rule="evenodd" fill="#F6D009" d="M969.5,111.6c0.1,0,0.2,0,0.3,0.1c0.2,0.4,0.1,0.5-0.1,0.8
					c-0.2,0.3-0.8,0.2-0.9,0C968.5,112.2,969.1,111.7,969.5,111.6z"/>
				<path fill-rule="evenodd" clip-rule="evenodd" fill="#F6D009" d="M968.3,127c0.3-0.1,0.7-0.1,1,0.2c0.1,0.2-0.2-0.1,0.2,0.2
					c0.7,0.4-1.8,1.1-1.7,0.4C967.8,127.4,968,127,968.3,127z"/>
				<path fill-rule="evenodd" clip-rule="evenodd" fill="#F6D009" d="M1001.5,116.2c0.2-0.6,1.2,0.1,1,0.5c-0.2,0.3-0.1,0.3-0.3,0.4
					C1001.9,117.5,1001.3,116.6,1001.5,116.2z"/>
				<path fill-rule="evenodd" clip-rule="evenodd" fill="#F6D009" d="M980.9,136.6c0.2,0.4-1.4,0.6-1.2,0.1
					C979.8,136.2,980.7,136.2,980.9,136.6z"/>
				<path fill-rule="evenodd" clip-rule="evenodd" fill="#F6D009" d="M976.7,140c0.3-0.5,1.8,0,1.4,0.5c-0.2,0.2-0.5,0.2-0.9,0.2
					C976.9,140.7,976.5,140.3,976.7,140z"/>
				<path fill-rule="evenodd" clip-rule="evenodd" fill="#F6D009" d="M978.1,145c0.4-0.4,1.5,0.1,1.2,0.6c-0.1,0.2-0.5,0.3-0.7,0.2
					C978.3,145.7,977.8,145.2,978.1,145z"/>
				<path fill-rule="evenodd" clip-rule="evenodd" fill="#F6D009" d="M977,145.7c0.2-0.4,1.1,0.1,0.8,0.3
					C977.5,146.2,976.8,146.1,977,145.7z M977.4,145.8C977.8,146,977,145.6,977.4,145.8L977.4,145.8z"/>
				<path fill-rule="evenodd" clip-rule="evenodd" fill="#F6D009" d="M1011.2,142.1c0.7-0.4,0.8,0.6,1.3,1.2c0.5,0.5,0.6,2-0.7,1.7
					C1010.7,144.7,1010.6,142.5,1011.2,142.1z M1012,144.1c-0.1,0-0.3,0.1-0.2,0.2C1011.9,144.3,1012.1,144.2,1012,144.1z"/>
				<path fill-rule="evenodd" clip-rule="evenodd" fill="#F6D009" d="M968.5,122.4c0.2-0.1,0.1,0.5,0,0.7c-0.2,0.2-0.4,0.3-0.6,0.4
					C967.5,123.5,968.2,122.5,968.5,122.4z"/>
				<path fill-rule="evenodd" clip-rule="evenodd" fill="#F6D009" d="M1000.9,148.2c-0.2,0.6-1.4,0.9-1.7,0.3
					c-0.4-0.8-0.7-1.7-0.2-2.4C999.4,145.5,1001.2,147.5,1000.9,148.2z"/>
				<path fill="#F6D009" d="M986.9,111.2c0.1,0.1,0.1,0.1,0.2,0.2c-0.7-1.5-1.8-2.7-3-4C984.7,108.9,986,110.1,986.9,111.2z"/>
				<path fill="#F6D009" d="M983.6,106.1c-0.1-0.3,0.2-0.5,0.1-0.8c-0.4-1.5-1.1-3.7-2.3-4.3c-0.2-0.1-0.6-0.2-0.7-0.3
					c-0.2-0.3,0.3-1.5-0.7-1.8c-0.3-0.1,0.1,0.8-0.2,0.7c-0.8-0.2-0.7,1.3-0.2,2.2c1,2.1,2.8,3.8,4.4,5.5
					C983.8,107,983.7,106.5,983.6,106.1z"/>
				<path fill="#F6D009" d="M982.4,140.9c-0.1,0.4,0.1,0.7,0.6,0.9c0.6,0.3,1.1-0.5,1.5-0.9c0.4-0.4,0.4-0.9,0.6-1.4
					c0.4-0.9,0.1-1.5,0.5-2.4c0.2-0.4,0.3-0.7,0.6-1C984.6,137.5,982.6,139.1,982.4,140.9z"/>
				<path fill="#F6D009" d="M991.6,139.1c0.2-0.5,0.4-0.9,0.6-1.3C991.8,138.1,991.7,138.6,991.6,139.1z"/>
				<path fill="#F6D009" d="M1010.2,127.7c-0.4-0.4-0.7,0.2-1,0.1c-0.5-0.2,0.6,0,0.2-0.4c-0.1-0.1,0-0.2-0.1-0.4
					c-0.1-0.1-0.3,0.2-0.3,0.1c-0.6-1.3-3-0.5-5.1-1.1c-0.9-0.3-0.1-1.1-1-1.5c-0.5-0.2-0.4,0.9-0.6,0.9c-0.1,0-0.3,0.1-0.4,0.2
					c-0.1,0.1,0.1,0.3-0.1,0.6c-0.1,0.1-0.5,0.3-0.5,0.4c0,0.1,0.5,0.1,0.6,0.3c0.4,0.8-0.2,2.2-1,2.6c-0.9,0.5-0.1-3-0.2-3.1
					c0-0.1,0.1-0.2,0.1-0.4c0,0,0,0,0,0c0.4-0.5,0.8-0.9,0.5-1.1c-0.4-0.3,0.4-0.7,0.1-1.3c0-0.1-0.3-0.5-0.3-0.6
					c0-0.2,0.9,0.2,0.9,0.1c0.2-0.2-0.1-0.4-0.1-0.5c-0.2-0.3,0.3-0.9-0.1-1.3c-0.2-0.2-0.3,0.2-0.5,0c-0.6-0.9,0.3-1.9,0-3
					c-0.1-0.2-0.2-0.3-0.5-0.4c-0.5-0.3-0.6,0.6-1.1,0.5c-1.3-0.3-0.9-2.1-1.8-2.9c-0.8-0.6-2.1-0.2-2.6-0.9
					c-1.3-1.9,1.7-4.2,1.6-5.9c0-0.4,0-1.1-0.3-1c-1.3,0.5-0.1,3-1.2,3.9c-0.1,0.1-0.3,0-0.4,0.1c-1.5,2.2-2.4,3.6-3.6,2
					c-1.3-1.7-1.3-4.1-1.2-6.4c0-0.4-0.2-0.9-0.4-1.1c-0.6-0.5-0.9-0.5-1.4-0.4c-0.8,0.2,0.4,1.7,0.6,2.5c0.3,1.3,2,4.2,1,5.3
					c-0.8,0.8-1.7,0.2-2-0.4c-0.4-0.8-0.3-1.2-0.8-1.8c0.5,1,0.7,2.1,0.6,3.4c-0.2,2.7-4.8,2.8-7.8,0.5c-1.7-1.3-4-3.9-5.7-2.6
					c-0.1,0.1-0.2,0.1-0.3,0.2c-1.7,1.6,2.1,2.9,4,3.4c2.3,0.6,5.4,0.9,6.6,2.9c1.8,3.3-5.3,1.7-7.6,1.6c-2.3-0.1-4.6-0.5-6.5-2.1
					c-0.8-0.6-2.2-0.3-2.8-1.1c-0.1-0.1-0.4-0.7-0.6-0.7c-1.1-0.3-4.4,1.7-1.1,2.5c0.2,0,0.5-0.1,0.8,0.1c1.6,0.8,2.5,0.9,4.6,1.2
					c0.8,0.1,1.5,0.2,2.5,0.2c3,0,6,0.3,8.8,1.5c0.5,0.2,1,0.5,1.3,0.9c0.8,1.3-0.3,2.4,0.6,3.7c0.3,0.4,0.9,0.4,1.1,0.9
					c0.3,0.7-0.9,0.7-0.6,1.6c0.3,0.7,2-0.5,2,0.4c-0.2,2.4-6.3,4.4-4.6,6c1.7,1.5,3.5-5.9,5-4.1c0.3,0.4,0.5,0.7,0.5,1.1
					c0.4-1.3,0.6-3,2-2.3c0.1,0.1,0.2,0.1,0.3,0.2c1.4,2.7-3.6,5.6-1.2,6.9c1,0.6,1.7-3.7,2.7-2.3c0.5,0.7,0.5,1.5,0.2,2.5
					c0,0,0,0,0,0c0.3-0.3,0.2-0.4,0.4-0.5c0.2-0.1,0.7-0.5,0.9-0.1c0.2,0.5-0.1,2.3,0.6,1.8c0.8-0.6-0.3-3.1,0.9-2.6
					c0.1,0.1,0.2,0.1,0.3,0.2c0.4,0.9,0.9,2.4,1.3,3.3c0.3,0.9-0.6,1.8-0.2,2.6c0.3,0.7,1.5,2.1,2.2,2.1c2.7,0-0.1-4.5-0.6-6.6
					c-0.3-1.2,0-3.6-1.4-4.4c-0.3-0.2-0.5-0.2-0.5-0.4c0-0.5-0.3-0.9,0.4-1c1.4-0.1,2,1.9,2.9,2.8c0.8,0.7,1.5,1.4,2.2,2.2
					c-0.5-1.3-0.8-2.1-1.9-3.3c-0.2-0.2-1.2-0.8-1.2-1.4c0-0.1,0.4,0.1,0.3-0.1c-0.3-0.6-0.8-2.9,0.1-2.5c0.6,0.2,0.8,0.1,1,0.5
					c1.2,2.5,3.6,4.1,5,6.2c0.6,1,1.2,1.5,2.1,1.9c0.3,0.1,0.5,0.7,0.9,0.5c0.6-0.3-0.6-1.1-0.2-1.7c0.3-0.4,0.9-0.4,0.7-0.7
					c-0.2-0.4-0.4-0.5-0.7-0.7c-0.6-0.3-0.5,0.8-0.9,0.9c-1.3,0.2-3.2-2.1-2.5-2.9c1.4-1.7,5.5-0.3,6.2-2.1c0.3-0.8,0.5-1.7,0.4-2.7
					C1010.7,128.6,1010.6,128.2,1010.2,127.7z"/>
				<path fill="#F6D009" d="M986.2,135.9c1.1-1.1,2-2.1,2-3.1c-0.1,0.2-0.2,0.5-0.3,0.7C987.4,134.3,986.7,135,986.2,135.9z"/>
				<path fill="#F6D009" d="M1004.8,143.3c0.5,2.3,1.2,5.2,3.3,6.5c0.4,0.2,0.9,0.6,1.1,0.3c0.1-0.1-0.1-0.1-0.1-0.3
					c-0.1-0.6,0-1.5-0.2-1.9c-0.4-0.8-0.9-1.8-1.4-1.6c-0.1,0.1,0.2,0.5,0,0.4c-0.3-0.1,0-0.6-0.1-0.7c-0.4-0.6-0.3-0.7-0.8-1.1
					c-0.4-0.3-0.8-0.7-0.8-0.9c-0.1,0-0.1,0-0.1,0c-0.2-0.4-0.1-0.7-0.5-1.3c-0.2-0.4-0.7-1-0.9-1.4c-0.3-0.6-0.5-0.6-0.9-0.9
					c0.4,0.8,0.8,1.7,1.1,2.5C1004.5,143.2,1004.7,143,1004.8,143.3z"/>
				<path fill="#F6D009" d="M1001.6,137.2c0,0-0.1,0-0.1,0c0.3,0.5,0.6,0.9,0.8,1.4C1002.1,138.1,1001.9,137.5,1001.6,137.2z"/>
				<path fill="#F6D009" d="M989.9,145.5c1.5,0.5,0.9-2.9,1.4-4.5c0.2-0.6,0.2-1.3,0.3-2C990.1,141.8,987.4,144.8,989.9,145.5z"/>
				<path fill="#F6D009" d="M1003.3,140.5c-0.3-0.6-0.6-1.3-1-1.9c0.2,0.6,0.4,1.2,0.8,1.7C1003.2,140.4,1003.3,140.4,1003.3,140.5z
					"/>
			</g>
			<path opacity="0.8" fill-rule="evenodd" clip-rule="evenodd" fill="#239B8F" d="M969.7,157.6c3.5-0.3,4.2,6.7,1,8
				C966.9,167,966.2,157.8,969.7,157.6z"/>
			<path opacity="0.8" fill-rule="evenodd" clip-rule="evenodd" fill="#E32728" d="M955.1,88.7c-0.3,0.4,0.4,1.7,0.4,2.1
				c0,0.6-0.7,0.6-0.7,1.2c0,0.8,0.5,0.2,1.3,0.5c0.6,0.2,1,0.5,1,0.6c0.6,0.9-0.7,0.8-1.5,1c-0.9,0.2-0.1,1.2-0.3,2.1
				c-0.2,0.9-0.3,1.6,0.4,1.7c0.8,0,1.4,0,1.8,0.7c0.6,1.1-0.4,1.9-1.4,1.9c-0.5,0-1.7,0.8-2.5,0.7c-0.5-0.1-0.6-1-1.3-1.2
				c-0.9-0.3-0.4,1.8-2,2.7c-0.3,0.2-0.5,1-1.1,0.7c-0.9-0.4-0.9,0.6-1.4,0.6c-0.7-0.1-0.3,1-0.9,0.9c-1.4-0.1-2.2-1.6-4.1-1.9
				c-3-0.4-4.8-3.1-6.7-5.3c-0.2-0.3-1-0.2-1.2-0.5c-0.4-0.7,0.2-1.2,0.2-2c0-0.4-0.9-0.2-1-0.5c-0.3-0.8,0.3-1.1,0.6-2
				c0.1-0.4,1.1-0.3,1.3-0.7c0.4-0.7-0.5-1.1,0.1-1.6c0.5-0.4,1-0.8,1.4-1.6c0.8-1.4,3.6-0.7,4.2-2.2c0.1-0.4-0.1-0.8,0.1-1.3
				c0.3-0.8,1.3-1.3,1.8-0.8c0.2,0.2,0.5,0.6,0.7,0.9c0.6,1,1.5,0.2,1.6-0.6c0-1.3,0.5-1.6,1.4-1.5c1.2,0.2,1.4,2.1,0.4,2.4
				c-0.4,0.1-0.6,0.6-0.4,0.9c0.4,0.6,2.3,1,2.9-0.2c0.3-0.5-0.1-0.5-0.3-0.9c-0.3-0.8,1-1.8,1.3-1.2c0.2,0.3,1-0.2,1.4,0.5
				c0.2,0.3,0.2,0.8,0.5,1C954,86.4,955.7,87.9,955.1,88.7z"/>
		</g>
	</g>
</g>
</svg>
